<?xml version="1.0" encoding="utf-8"?>
<!-- Generator: Adobe Illustrator 21.0.0, SVG Export Plug-In . SVG Version: 6.00 Build 0)  -->
<svg version="1.1" id="Capa_1" xmlns="http://www.w3.org/2000/svg" xmlns:xlink="http://www.w3.org/1999/xlink" x="0px" y="0px"
	 viewBox="0 0 60 44.8" style="enable-background:new 0 0 60 44.8;" xml:space="preserve">
<style type="text/css">
	.st0{fill:#B27171;stroke:#000000;stroke-miterlimit:10;}
	.st1{fill:#FFFFFF;}
</style>
<rect x="191.3" y="-0.8" class="st0" width="68.2" height="62"/>
<g id="XMLID_127_">
	<path id="XMLID_130_" class="st1" d="M52.2,5.3H7.8c-1.7,0-3.1,1.4-3.1,3.1v0.3c0,1.7,1.4,3.1,3.1,3.1h44.4c1.7,0,3.1-1.4,3.1-3.1
		V8.4C55.3,6.7,53.9,5.3,52.2,5.3z"/>
	<path id="XMLID_529_" class="st1" d="M52.2,18.9H7.8c-1.7,0-3.1,1.4-3.1,3.1v0.3c0,1.7,1.4,3.1,3.1,3.1h44.4c1.7,0,3.1-1.4,3.1-3.1
		V22C55.3,20.3,53.9,18.9,52.2,18.9z"/>
	<path id="XMLID_531_" class="st1" d="M52.2,32.9H7.8c-1.7,0-3.1,1.4-3.1,3.1v0.3c0,1.7,1.4,3.1,3.1,3.1h44.4c1.7,0,3.1-1.4,3.1-3.1
		v-0.3C55.3,34.3,53.9,32.9,52.2,32.9z"/>
</g>
</svg>
