<svg id="Capa_1" data-name="Capa 1" xmlns="http://www.w3.org/2000/svg" width="17" height="21" viewBox="0 0 17 21">
  <defs>
    <style>
      .cls-1 {
        fill: #201813;
      }
    </style>
  </defs>
  <title>11Mesa de trabajo 1</title>
  <g>
    <path id="_Trazado_compuesto_" data-name="&lt;Trazado compuesto&gt;" class="cls-1" d="M11.82,2.79H5.18A4.39,4.39,0,0,0,.79,7.18v6.64a4.39,4.39,0,0,0,4.39,4.39h6.64a4.39,4.39,0,0,0,4.39-4.39V7.18A4.39,4.39,0,0,0,11.82,2.79Zm3.07,11a3.07,3.07,0,0,1-3.07,3.07H5.18a3.07,3.07,0,0,1-3.07-3.07V7.18A3.07,3.07,0,0,1,5.18,4.11h6.64a3.07,3.07,0,0,1,3.07,3.07Z"/>
    <path id="_Trazado_compuesto_2" data-name="&lt;Trazado compuesto&gt;" class="cls-1" d="M8.5,6.55a3.95,3.95,0,1,0,3.95,3.95A4,4,0,0,0,8.5,6.55Zm0,6.58a2.63,2.63,0,1,1,2.63-2.63A2.63,2.63,0,0,1,8.5,13.13Z"/>
    <circle id="_Trazado_" data-name="&lt;Trazado&gt;" class="cls-1" cx="12.62" cy="6.32" r="0.95"/>
  </g>
</svg>
