<?xml version="1.0" encoding="utf-8"?>
<!-- Generator: Adobe Illustrator 19.0.0, SVG Export Plug-In . SVG Version: 6.00 Build 0)  -->
<svg version="1.1" xmlns="http://www.w3.org/2000/svg" xmlns:xlink="http://www.w3.org/1999/xlink" x="0px" y="0px"
	 viewBox="0 0 86.4 63.2" style="enable-background:new 0 0 86.4 63.2;" xml:space="preserve">
<g id="Capa_1">
</g>
<g id="Object">
	<g id="XMLID_739_">
		<g id="XMLID_744_">
			<polygon id="XMLID_749_" points="70.2,6.2 69.1,0 66.4,0 66.4,9.1 68,9.1 68,0.9 69.6,9.1 70.7,9.1 72.2,0.9 72.2,9.1 73.7,9.1 
				73.7,0 71.2,0 			"/>
			<polygon id="XMLID_748_" points="79.8,1.4 79.8,0 75.1,0 75.1,1.4 78.1,1.4 75,7.8 75,9.1 79.8,9.1 79.8,7.8 76.6,7.8 			"/>
			<path id="XMLID_745_" d="M84.5,0h-2.1l-2.1,9.1H82l0.5-2.4h1.8l0.5,2.4h1.7L84.5,0z M82.7,5.4l0.7-4.2l0.7,4.2H82.7z"/>
		</g>
		<path id="XMLID_741_" d="M47.6,9c-2.1-2.9-4.8-5.1-8-6.7C36.3,0.8,32,0,26.7,0H0v63.2h26.7c3.2,0,6.8-0.6,10.7-1.7
			c2.9-0.8,5.6-2.5,8.1-5c2.5-2.5,4.5-5.6,5.9-9.4c1.4-3.7,2.1-9,2.1-15.7c0-4.3-0.5-8.4-1.4-12.2C51.2,15.3,49.7,11.9,47.6,9z
			 M34.2,42.8c-0.9,2.3-2.1,3.8-3.7,4.7c-1.6,0.9-4.3,1.4-8,1.4H18V14.3h4.5c4.7,0,8,1.2,10,3.7c2,2.5,3,7.1,3,13.8
			C35.5,36.8,35.1,40.5,34.2,42.8z"/>
		<rect id="XMLID_740_" x="54.4" y="47.6" width="31.9" height="15.6"/>
	</g>
</g>
</svg>
