<svg id="Capa_1" data-name="Capa 1" xmlns="http://www.w3.org/2000/svg" width="106.13" height="20" viewBox="0 0 106.13 20">
  <defs>
    <style>
      .cls-1 {
        fill: #201813;
      }
    </style>
  </defs>
  <title>11Mesa de trabajo 1</title>
  <g id="_Grupo_" data-name="&lt;Grupo&gt;">
    <path id="_Trazado_compuesto_" data-name="&lt;Trazado compuesto&gt;" class="cls-1" d="M10.7,12.19a1.53,1.53,0,0,1,0,.19.45.45,0,0,1,0,.13.2.2,0,0,1-.06.08l-.09,0H7.31a.4.4,0,0,1-.24-.09A.36.36,0,0,1,7,12.22V5.52a.13.13,0,0,1,0-.08.14.14,0,0,1,.08-.05l.15,0h.46l.15,0a.16.16,0,0,1,.08.05.15.15,0,0,1,0,.08v6.26h2.59l.09,0a.21.21,0,0,1,.06.07.38.38,0,0,1,0,.13A1.61,1.61,0,0,1,10.7,12.19Z"/>
    <path id="_Trazado_compuesto_2" data-name="&lt;Trazado compuesto&gt;" class="cls-1" d="M19.48,12.27a.68.68,0,0,1,0,.2.14.14,0,0,1,0,.11.27.27,0,0,1-.15.05h-.55l-.16,0a.16.16,0,0,1-.08-.05l0-.08-.62-1.76h-3l-.59,1.74a.32.32,0,0,1,0,.09.21.21,0,0,1-.08.06l-.15,0h-.52a.27.27,0,0,1-.14-.05.14.14,0,0,1,0-.11.75.75,0,0,1,0-.2l2.43-6.72a.3.3,0,0,1,.06-.1.24.24,0,0,1,.11-.06l.18,0h.57l.19,0a.25.25,0,0,1,.11.06.28.28,0,0,1,.06.1ZM16.36,6.34h0L15.11,9.95h2.52Z"/>
    <path id="_Trazado_compuesto_3" data-name="&lt;Trazado compuesto&gt;" class="cls-1" d="M33.42,8.89a5.06,5.06,0,0,1-.24,1.64,3,3,0,0,1-.7,1.16,2.9,2.9,0,0,1-1.13.69,5,5,0,0,1-1.6.23H28.21a.4.4,0,0,1-.24-.09.36.36,0,0,1-.11-.31V5.77A.36.36,0,0,1,28,5.46a.4.4,0,0,1,.24-.09h1.64a4.56,4.56,0,0,1,1.59.24,2.89,2.89,0,0,1,1.09.7,3,3,0,0,1,.67,1.1A4.43,4.43,0,0,1,33.42,8.89Zm-1,0a4,4,0,0,0-.14-1.09A2.34,2.34,0,0,0,31.8,7,2.12,2.12,0,0,0,31,6.38a3.1,3.1,0,0,0-1.23-.21h-1v5.63h1A3.42,3.42,0,0,0,31,11.64a1.93,1.93,0,0,0,.79-.53,2.31,2.31,0,0,0,.48-.9A4.55,4.55,0,0,0,32.4,8.93Z"/>
    <path id="_Trazado_compuesto_4" data-name="&lt;Trazado compuesto&gt;" class="cls-1" d="M42.44,12.27a.68.68,0,0,1,0,.2.14.14,0,0,1,0,.11.27.27,0,0,1-.15.05h-.55l-.16,0a.16.16,0,0,1-.08-.05l0-.08-.62-1.76h-3l-.59,1.74a.32.32,0,0,1,0,.09.21.21,0,0,1-.08.06l-.15,0h-.52a.27.27,0,0,1-.14-.05.14.14,0,0,1,0-.11.75.75,0,0,1,0-.2l2.43-6.72a.3.3,0,0,1,.06-.1.24.24,0,0,1,.11-.06l.18,0h.57l.19,0a.25.25,0,0,1,.11.06.28.28,0,0,1,.06.1ZM39.33,6.34h0L38.07,9.95h2.52Z"/>
    <path id="_Trazado_compuesto_5" data-name="&lt;Trazado compuesto&gt;" class="cls-1" d="M49.58,5.79a1.28,1.28,0,0,1,0,.18.39.39,0,0,1,0,.13.18.18,0,0,1-.06.07l-.08,0h-2v6.27a.13.13,0,0,1,0,.08.15.15,0,0,1-.08.05l-.15,0h-.46l-.15,0a.16.16,0,0,1-.08-.05.15.15,0,0,1,0-.08V6.19h-2l-.08,0a.16.16,0,0,1-.06-.07.57.57,0,0,1,0-.13,1.06,1.06,0,0,1,0-.18,1.1,1.1,0,0,1,0-.19.61.61,0,0,1,0-.13.16.16,0,0,1,.06-.07l.08,0h5l.08,0a.17.17,0,0,1,.06.07.43.43,0,0,1,0,.13A1.33,1.33,0,0,1,49.58,5.79Z"/>
    <path id="_Trazado_compuesto_6" data-name="&lt;Trazado compuesto&gt;" class="cls-1" d="M57.44,12.27a.68.68,0,0,1,0,.2.14.14,0,0,1,0,.11.27.27,0,0,1-.15.05h-.55l-.16,0a.16.16,0,0,1-.08-.05l0-.08-.62-1.76h-3l-.59,1.74a.32.32,0,0,1,0,.09.21.21,0,0,1-.08.06l-.15,0h-.52a.27.27,0,0,1-.14-.05.14.14,0,0,1,0-.11.75.75,0,0,1,0-.2l2.43-6.72a.3.3,0,0,1,.06-.1.24.24,0,0,1,.11-.06l.18,0h.57l.19,0a.25.25,0,0,1,.11.06.28.28,0,0,1,.06.1ZM54.33,6.34h0L53.07,9.95h2.52Z"/>
    <path id="_Trazado_compuesto_7" data-name="&lt;Trazado compuesto&gt;" class="cls-1" d="M73.69,12.47a.15.15,0,0,1,0,.08.16.16,0,0,1-.08.05l-.15,0H73l-.15,0a.15.15,0,0,1-.08-.05.13.13,0,0,1,0-.08V6.17h0L70.16,12.5a.19.19,0,0,1,0,.07l-.09,0-.14,0h-.4l-.14,0-.09,0a.15.15,0,0,1,0-.06L66.79,6.17h0v6.3a.13.13,0,0,1,0,.08.16.16,0,0,1-.08.05l-.15,0h-.47l-.15,0a.14.14,0,0,1-.08-.05.16.16,0,0,1,0-.08V5.81a.4.4,0,0,1,.12-.34.43.43,0,0,1,.28-.1h.59a1.34,1.34,0,0,1,.32,0,.71.71,0,0,1,.24.11.62.62,0,0,1,.17.18,1.36,1.36,0,0,1,.12.26l2.07,5.24h0L71.91,6A1.48,1.48,0,0,1,72,5.7a.75.75,0,0,1,.16-.19.57.57,0,0,1,.2-.1.93.93,0,0,1,.25,0h.62l.16,0a.33.33,0,0,1,.13.08.39.39,0,0,1,.09.13.5.5,0,0,1,0,.2Z"/>
    <path id="_Trazado_compuesto_8" data-name="&lt;Trazado compuesto&gt;" class="cls-1" d="M82.06,12.21a1.46,1.46,0,0,1,0,.18.42.42,0,0,1,0,.13.17.17,0,0,1-.06.07l-.09,0H77.59a.32.32,0,0,1-.24-.09.39.39,0,0,1-.09-.29V12a1.18,1.18,0,0,1,0-.13.6.6,0,0,1,0-.13,1.12,1.12,0,0,1,.08-.16l.12-.2,3.34-5.22h-3.3l-.1,0a.16.16,0,0,1-.06-.07.38.38,0,0,1,0-.12,1.17,1.17,0,0,1,0-.18,1.33,1.33,0,0,1,0-.19.42.42,0,0,1,0-.13.15.15,0,0,1,.06-.07l.1,0h4a.32.32,0,0,1,.24.09.36.36,0,0,1,.09.27v.22a1,1,0,0,1,0,.16.72.72,0,0,1,0,.14l-.07.16-.13.2-3.32,5.2h3.53a.16.16,0,0,1,.15.1A.72.72,0,0,1,82.06,12.21Z"/>
    <path id="_Trazado_compuesto_9" data-name="&lt;Trazado compuesto&gt;" class="cls-1" d="M90.91,12.27a.68.68,0,0,1,0,.2.14.14,0,0,1,0,.11.27.27,0,0,1-.15.05h-.55l-.16,0a.16.16,0,0,1-.08-.05l0-.08-.62-1.76h-3l-.59,1.74a.32.32,0,0,1,0,.09.21.21,0,0,1-.08.06l-.15,0h-.52a.27.27,0,0,1-.14-.05.14.14,0,0,1,0-.11.75.75,0,0,1,0-.2L87.2,5.55a.3.3,0,0,1,.06-.1.24.24,0,0,1,.11-.06l.18,0h.57l.19,0a.25.25,0,0,1,.11.06.28.28,0,0,1,.06.1ZM87.8,6.34h0L86.54,9.95h2.52Z"/>
    <path id="_Trazado_compuesto_10" data-name="&lt;Trazado compuesto&gt;" class="cls-1" d="M99.17,14.28a.68.68,0,0,1,0,.29.15.15,0,0,1-.14.09H93.6a.16.16,0,0,1-.15-.08.58.58,0,0,1,0-.28.64.64,0,0,1,0-.29.16.16,0,0,1,.15-.1H99a.15.15,0,0,1,.14.09A.63.63,0,0,1,99.17,14.28Z"/>
  </g>
</svg>
