<svg id="Capa_1" data-name="Capa 1" xmlns="http://www.w3.org/2000/svg" width="36.33" height="164" viewBox="0 0 36.33 164">
  <defs>
    <style>
      .cls-1 {
        fill: #fff;
      }
    </style>
  </defs>
  <title>11Mesa de trabajo 1</title>
  <g id="_Grupo_" data-name="&lt;Grupo&gt;">
    <path id="_Trazado_compuesto_" data-name="&lt;Trazado compuesto&gt;" class="cls-1" d="M21.3,142.44l.27,0,.18.05a.29.29,0,0,1,.11.09.22.22,0,0,1,0,.12v4.56a.57.57,0,0,1-.12.35.51.51,0,0,1-.44.16H11.78a.19.19,0,0,1-.11,0,.21.21,0,0,1-.08-.11,1.18,1.18,0,0,1,0-.22,2.29,2.29,0,0,1,0-.33,2.25,2.25,0,0,1,0-.33,1.12,1.12,0,0,1,0-.21.22.22,0,0,1,.08-.11.21.21,0,0,1,.11,0h8.93v-3.7a.22.22,0,0,1,0-.12.3.3,0,0,1,.1-.09.54.54,0,0,1,.18-.05Z"/>
    <path id="_Trazado_compuesto_2" data-name="&lt;Trazado compuesto&gt;" class="cls-1" d="M21.41,129.92a1,1,0,0,1,.28-.07.2.2,0,0,1,.16.06.38.38,0,0,1,.07.21c0,.1,0,.23,0,.4s0,.3,0,.39a.87.87,0,0,1,0,.22.23.23,0,0,1-.08.11l-.12.07-2.51.88v4.29l2.48.84.12.06a.3.3,0,0,1,.09.12.71.71,0,0,1,.05.22,3.54,3.54,0,0,1,0,.36,2.9,2.9,0,0,1,0,.38.39.39,0,0,1-.08.21.21.21,0,0,1-.16.06,1.07,1.07,0,0,1-.28-.07l-9.59-3.46a.43.43,0,0,1-.14-.08.34.34,0,0,1-.09-.15,1.14,1.14,0,0,1,0-.26c0-.1,0-.24,0-.4s0-.31,0-.42a1.26,1.26,0,0,1,0-.27.36.36,0,0,1,.09-.16.4.4,0,0,1,.15-.09Zm-8.47,4.44h0l5.15,1.78v-3.59Z"/>
    <path id="_Trazado_compuesto_3" data-name="&lt;Trazado compuesto&gt;" class="cls-1" d="M16.58,110a7.23,7.23,0,0,1,2.34.34,4.24,4.24,0,0,1,1.66,1,4.14,4.14,0,0,1,1,1.62,7.09,7.09,0,0,1,.33,2.28v2.19a.57.57,0,0,1-.12.35.51.51,0,0,1-.44.16H12.13a.51.51,0,0,1-.44-.16.57.57,0,0,1-.12-.35v-2.34a6.5,6.5,0,0,1,.35-2.27,4.12,4.12,0,0,1,1-1.55,4.26,4.26,0,0,1,1.58-1A6.32,6.32,0,0,1,16.58,110Zm.06,1.44a5.65,5.65,0,0,0-1.56.21,3.34,3.34,0,0,0-1.25.65,3,3,0,0,0-.82,1.12,4.43,4.43,0,0,0-.29,1.75v1.4h8v-1.41a4.88,4.88,0,0,0-.25-1.67,2.76,2.76,0,0,0-.76-1.13,3.3,3.3,0,0,0-1.28-.68A6.5,6.5,0,0,0,16.64,111.47Z"/>
    <path id="_Trazado_compuesto_4" data-name="&lt;Trazado compuesto&gt;" class="cls-1" d="M21.41,97.16a1,1,0,0,1,.28-.07.2.2,0,0,1,.16.06.38.38,0,0,1,.07.21c0,.1,0,.23,0,.4s0,.3,0,.39a.87.87,0,0,1,0,.22.23.23,0,0,1-.08.11l-.12.07-2.51.88v4.29l2.48.84.12.06a.3.3,0,0,1,.09.12.71.71,0,0,1,.05.22,3.54,3.54,0,0,1,0,.36,2.9,2.9,0,0,1,0,.38.39.39,0,0,1-.08.21.21.21,0,0,1-.16.06,1.07,1.07,0,0,1-.28-.07l-9.59-3.46a.43.43,0,0,1-.14-.08.34.34,0,0,1-.09-.15,1.14,1.14,0,0,1,0-.26c0-.1,0-.24,0-.4s0-.31,0-.42a1.26,1.26,0,0,1,0-.27.36.36,0,0,1,.09-.16.4.4,0,0,1,.15-.09Zm-8.47,4.44h0l5.15,1.78V99.8Z"/>
    <path id="_Trazado_compuesto_5" data-name="&lt;Trazado compuesto&gt;" class="cls-1" d="M12.16,87l.26,0a.56.56,0,0,1,.18.05.25.25,0,0,1,.1.09.21.21,0,0,1,0,.12v2.9h9a.19.19,0,0,1,.11,0,.21.21,0,0,1,.08.11,1.21,1.21,0,0,1,0,.21,2.73,2.73,0,0,1,0,.66,1.23,1.23,0,0,1,0,.22.22.22,0,0,1-.08.11.21.21,0,0,1-.11,0h-9v2.9a.21.21,0,0,1,0,.12.23.23,0,0,1-.1.08l-.18.05-.26,0-.27,0-.19-.05a.22.22,0,0,1-.1-.08.22.22,0,0,1,0-.12V87.24a.22.22,0,0,1,0-.12.24.24,0,0,1,.1-.09A.61.61,0,0,1,11.9,87Z"/>
    <path id="_Trazado_compuesto_6" data-name="&lt;Trazado compuesto&gt;" class="cls-1" d="M21.41,75.75a1,1,0,0,1,.28-.07.2.2,0,0,1,.16.06.38.38,0,0,1,.07.21c0,.1,0,.23,0,.4s0,.3,0,.39a.87.87,0,0,1,0,.22.23.23,0,0,1-.08.11l-.12.07L19.18,78v4.29l2.48.84.12.06a.3.3,0,0,1,.09.12.71.71,0,0,1,.05.22,3.54,3.54,0,0,1,0,.36,2.9,2.9,0,0,1,0,.38.39.39,0,0,1-.08.21.21.21,0,0,1-.16.06,1.07,1.07,0,0,1-.28-.07L11.81,81a.43.43,0,0,1-.14-.08.34.34,0,0,1-.09-.15,1.14,1.14,0,0,1,0-.26c0-.1,0-.24,0-.4s0-.31,0-.42a1.26,1.26,0,0,1,0-.27.36.36,0,0,1,.09-.16.4.4,0,0,1,.15-.09ZM12.94,80.2h0L18.09,82V78.4Z"/>
    <path id="_Trazado_compuesto_7" data-name="&lt;Trazado compuesto&gt;" class="cls-1" d="M21.69,52.58a.21.21,0,0,1,.11,0,.23.23,0,0,1,.08.12,1.26,1.26,0,0,1,0,.21,2.21,2.21,0,0,1,0,.33,2.24,2.24,0,0,1,0,.32,1.18,1.18,0,0,1,0,.22.21.21,0,0,1-.08.11.19.19,0,0,1-.11,0h-9v0l9,3.64a.26.26,0,0,1,.1.07.33.33,0,0,1,.07.13.91.91,0,0,1,0,.2c0,.08,0,.17,0,.28a2.35,2.35,0,0,1,0,.29,1.05,1.05,0,0,1,0,.2.34.34,0,0,1-.07.12.21.21,0,0,1-.09.06l-9,3.48h9a.19.19,0,0,1,.11,0,.22.22,0,0,1,.08.11,1.27,1.27,0,0,1,0,.22,2.3,2.3,0,0,1,0,.34,2.24,2.24,0,0,1,0,.33,1.09,1.09,0,0,1,0,.21.2.2,0,0,1-.08.11.23.23,0,0,1-.11,0H12.19a.58.58,0,0,1-.48-.18.61.61,0,0,1-.14-.4v-.84a1.91,1.91,0,0,1,0-.45,1,1,0,0,1,.15-.34.89.89,0,0,1,.26-.24,1.93,1.93,0,0,1,.38-.17l7.48-3v0l-7.45-3.07a2.11,2.11,0,0,1-.41-.19,1.06,1.06,0,0,1-.27-.23.82.82,0,0,1-.14-.28,1.32,1.32,0,0,1,0-.36v-.88a.75.75,0,0,1,0-.23.47.47,0,0,1,.11-.19.56.56,0,0,1,.19-.12.72.72,0,0,1,.28,0Z"/>
    <path id="_Trazado_compuesto_8" data-name="&lt;Trazado compuesto&gt;" class="cls-1" d="M21.32,40.63l.26,0a.6.6,0,0,1,.18.05.24.24,0,0,1,.1.09.24.24,0,0,1,0,.12V47a.46.46,0,0,1-.13.34.56.56,0,0,1-.41.13h-.49l-.19-.05-.22-.11-.29-.18-7.45-4.76v4.71a.27.27,0,0,1,0,.14.22.22,0,0,1-.1.09.54.54,0,0,1-.18.05l-.25,0-.27,0a.6.6,0,0,1-.18-.05.22.22,0,0,1-.1-.09.27.27,0,0,1,0-.14V41.31A.46.46,0,0,1,11.7,41a.52.52,0,0,1,.38-.12h.31l.23,0,.2.06L13,41l.28.18,7.42,4.74v-5a.23.23,0,0,1,.14-.21A1,1,0,0,1,21.32,40.63Z"/>
    <path id="_Trazado_compuesto_9" data-name="&lt;Trazado compuesto&gt;" class="cls-1" d="M21.41,28a1,1,0,0,1,.28-.07.2.2,0,0,1,.16.06.38.38,0,0,1,.07.21c0,.1,0,.23,0,.4s0,.3,0,.39a.87.87,0,0,1,0,.22.23.23,0,0,1-.08.11l-.12.07-2.51.88v4.29l2.48.84.12.06a.3.3,0,0,1,.09.12.71.71,0,0,1,.05.22,3.54,3.54,0,0,1,0,.36,2.9,2.9,0,0,1,0,.38.39.39,0,0,1-.08.21.21.21,0,0,1-.16.06,1.07,1.07,0,0,1-.28-.07l-9.59-3.46a.43.43,0,0,1-.14-.08.34.34,0,0,1-.09-.15,1.14,1.14,0,0,1,0-.26c0-.1,0-.24,0-.4s0-.31,0-.42a1.26,1.26,0,0,1,0-.27.36.36,0,0,1,.09-.16.4.4,0,0,1,.15-.09Zm-8.47,4.44h0l5.15,1.78V30.64Z"/>
    <path id="_Trazado_compuesto_10" data-name="&lt;Trazado compuesto&gt;" class="cls-1" d="M24.27,16.21a1,1,0,0,1,.41.06.21.21,0,0,1,.13.2v7.68a.23.23,0,0,1-.12.21.83.83,0,0,1-.4.07.91.91,0,0,1-.41-.07.23.23,0,0,1-.14-.21V16.48a.21.21,0,0,1,.13-.2A.89.89,0,0,1,24.27,16.21Z"/>
  </g>
</svg>
