<svg id="Capa_1" data-name="Capa 1" xmlns="http://www.w3.org/2000/svg" width="61.67" height="135.5" viewBox="0 0 61.67 135.5">
  <defs>
    <style>
      .cls-1 {
        fill: #070308;
      }
    </style>
  </defs>
  <title>11Mesa de trabajo 2</title>
  <g>
    <g id="_Grupo_" data-name="&lt;Grupo&gt;">
      <g id="_Grupo_2" data-name="&lt;Grupo&gt;">
        <polygon id="_Trazado_" data-name="&lt;Trazado&gt;" class="cls-1" points="46.77 12.44 46.14 8.82 44.56 8.82 44.56 14.21 45.51 14.21 45.51 9.32 46.45 14.21 47.08 14.21 47.97 9.33 47.97 14.21 48.86 14.21 48.86 8.82 47.39 8.82 46.77 12.44"/>
        <polygon id="_Trazado_2" data-name="&lt;Trazado&gt;" class="cls-1" points="52.43 9.61 52.43 8.82 49.7 8.82 49.7 9.61 51.43 9.61 49.59 13.42 49.59 14.21 52.48 14.21 52.48 13.42 50.59 13.42 52.43 9.61"/>
        <path id="_Trazado_compuesto_" data-name="&lt;Trazado compuesto&gt;" class="cls-1" d="M55.26,8.82H54l-1.26,5.4h1l.31-1.42h1l.27,1.42h1ZM54.16,12l.42-2.5L55,12Z"/>
      </g>
      <path id="_Trazado_compuesto_2" data-name="&lt;Trazado compuesto&gt;" class="cls-1" d="M33.41,14.13a12.45,12.45,0,0,0-4.75-3.95,17.61,17.61,0,0,0-7.55-1.38H5.31V46.15h15.8a22.87,22.87,0,0,0,6.34-1,11.18,11.18,0,0,0,4.79-3,15.47,15.47,0,0,0,3.49-5.53A27.07,27.07,0,0,0,37,27.35a30,30,0,0,0-.84-7.23A16.94,16.94,0,0,0,33.41,14.13ZM25.5,34.07a5.33,5.33,0,0,1-2.21,2.8,10.2,10.2,0,0,1-4.74.8H15.95V17.27H18.6q4.13,0,5.92,2.19t1.78,8.13A19,19,0,0,1,25.5,34.07Z"/>
      <rect id="_Trazado_3" data-name="&lt;Trazado&gt;" class="cls-1" x="37.47" y="36.91" width="18.83" height="9.22"/>
    </g>
    <g id="_Grupo_3" data-name="&lt;Grupo&gt;">
      <path id="_Trazado_compuesto_3" data-name="&lt;Trazado compuesto&gt;" class="cls-1" d="M32.43,124h.14l.09,0,.06,0a.11.11,0,0,1,0,.06v2.33a.29.29,0,0,1-.06.18.26.26,0,0,1-.22.08H27.57l-.06,0a.1.1,0,0,1,0-.06.6.6,0,0,1,0-.11,1.17,1.17,0,0,1,0-.17,1.15,1.15,0,0,1,0-.17.57.57,0,0,1,0-.11.11.11,0,0,1,0-.06l.06,0h4.56V124.1a.11.11,0,0,1,0-.06l.05,0,.09,0Z"/>
      <path id="_Trazado_compuesto_4" data-name="&lt;Trazado compuesto&gt;" class="cls-1" d="M32.49,117.56l.14,0a.1.1,0,0,1,.08,0,.2.2,0,0,1,0,.11s0,.12,0,.2,0,.15,0,.2a.44.44,0,0,1,0,.11.12.12,0,0,1,0,.06l-.06,0-1.28.45v2.19l1.27.43.06,0a.15.15,0,0,1,0,.06.36.36,0,0,1,0,.11,1.81,1.81,0,0,1,0,.19,1.48,1.48,0,0,1,0,.19.2.2,0,0,1,0,.11.1.1,0,0,1-.08,0l-.14,0-4.9-1.77-.07,0a.17.17,0,0,1,0-.08.58.58,0,0,1,0-.13c0-.05,0-.12,0-.2s0-.16,0-.22a.64.64,0,0,1,0-.14.18.18,0,0,1,0-.08l.07,0Zm-4.32,2.27h0l2.63.91v-1.83Z"/>
      <path id="_Trazado_compuesto_5" data-name="&lt;Trazado compuesto&gt;" class="cls-1" d="M30,107.4a3.69,3.69,0,0,1,1.2.17,2.17,2.17,0,0,1,.85.51,2.12,2.12,0,0,1,.5.83,3.62,3.62,0,0,1,.17,1.17v1.12a.29.29,0,0,1-.06.18.26.26,0,0,1-.22.08h-4.7a.26.26,0,0,1-.22-.08.29.29,0,0,1-.06-.18V110a3.32,3.32,0,0,1,.18-1.16,2.11,2.11,0,0,1,.51-.79,2.18,2.18,0,0,1,.8-.49A3.23,3.23,0,0,1,30,107.4Zm0,.74a2.88,2.88,0,0,0-.8.11,1.71,1.71,0,0,0-.64.33,1.54,1.54,0,0,0-.42.57A2.26,2.26,0,0,0,28,110v.71h4.1V110a2.49,2.49,0,0,0-.13-.85,1.41,1.41,0,0,0-.39-.58,1.68,1.68,0,0,0-.65-.35A3.32,3.32,0,0,0,30.05,108.14Z"/>
      <path id="_Trazado_compuesto_6" data-name="&lt;Trazado compuesto&gt;" class="cls-1" d="M32.49,100.82l.14,0a.1.1,0,0,1,.08,0,.2.2,0,0,1,0,.11s0,.12,0,.2,0,.15,0,.2a.44.44,0,0,1,0,.11.12.12,0,0,1,0,.06l-.06,0-1.28.45v2.19l1.27.43.06,0a.15.15,0,0,1,0,.06.36.36,0,0,1,0,.11,1.81,1.81,0,0,1,0,.19,1.48,1.48,0,0,1,0,.19.2.2,0,0,1,0,.11.1.1,0,0,1-.08,0l-.14,0-4.9-1.77-.07,0a.17.17,0,0,1,0-.08.58.58,0,0,1,0-.13c0-.05,0-.12,0-.2s0-.16,0-.22a.64.64,0,0,1,0-.14.18.18,0,0,1,0-.08l.07,0Zm-4.32,2.27h0l2.63.91v-1.83Z"/>
      <path id="_Trazado_compuesto_7" data-name="&lt;Trazado compuesto&gt;" class="cls-1" d="M27.77,95.62h.13l.09,0,.05,0a.11.11,0,0,1,0,.06v1.48h4.57l.06,0a.11.11,0,0,1,0,.06.62.62,0,0,1,0,.11,1.4,1.4,0,0,1,0,.34.63.63,0,0,1,0,.11.11.11,0,0,1,0,.06l-.06,0H28.06v1.48a.11.11,0,0,1,0,.06l-.05,0-.09,0h-.27l-.1,0-.05,0a.11.11,0,0,1,0-.06V95.76a.11.11,0,0,1,0-.06l.05,0,.1,0Z"/>
      <path id="_Trazado_compuesto_8" data-name="&lt;Trazado compuesto&gt;" class="cls-1" d="M32.49,89.89l.14,0a.1.1,0,0,1,.08,0,.2.2,0,0,1,0,.11s0,.12,0,.2,0,.15,0,.2a.44.44,0,0,1,0,.11.12.12,0,0,1,0,.06l-.06,0-1.28.45v2.19l1.27.43.06,0a.15.15,0,0,1,0,.06.36.36,0,0,1,0,.11,1.81,1.81,0,0,1,0,.19,1.48,1.48,0,0,1,0,.19.2.2,0,0,1,0,.11.1.1,0,0,1-.08,0l-.14,0-4.9-1.77-.07,0a.17.17,0,0,1,0-.08.58.58,0,0,1,0-.13c0-.05,0-.12,0-.2s0-.16,0-.22a.64.64,0,0,1,0-.14.18.18,0,0,1,0-.08l.07,0Zm-4.32,2.27h0l2.63.91V91.24Z"/>
      <path id="_Trazado_compuesto_9" data-name="&lt;Trazado compuesto&gt;" class="cls-1" d="M32.63,78.05l.06,0a.12.12,0,0,1,0,.06.64.64,0,0,1,0,.11,1.13,1.13,0,0,1,0,.17,1.14,1.14,0,0,1,0,.17.6.6,0,0,1,0,.11.11.11,0,0,1,0,.06l-.06,0H28l4.61,1.86,0,0a.17.17,0,0,1,0,.07.47.47,0,0,1,0,.1s0,.09,0,.14a1.2,1.2,0,0,1,0,.15.54.54,0,0,1,0,.1.18.18,0,0,1,0,.06l0,0L28,83.08h4.59l.06,0a.11.11,0,0,1,0,.06.65.65,0,0,1,0,.11,1.17,1.17,0,0,1,0,.17,1.15,1.15,0,0,1,0,.17.56.56,0,0,1,0,.11.1.1,0,0,1,0,.06H27.78a.29.29,0,0,1-.24-.09.31.31,0,0,1-.07-.2v-.43a1,1,0,0,1,0-.23.51.51,0,0,1,.08-.17.45.45,0,0,1,.13-.12l.19-.09,3.82-1.51v0L27.9,79.35l-.21-.1a.54.54,0,0,1-.14-.12.42.42,0,0,1-.07-.14.67.67,0,0,1,0-.18v-.45a.38.38,0,0,1,0-.12.24.24,0,0,1,.06-.1l.1-.06a.37.37,0,0,1,.14,0Z"/>
      <path id="_Trazado_compuesto_10" data-name="&lt;Trazado compuesto&gt;" class="cls-1" d="M32.45,71.95h.13l.09,0,.05,0a.12.12,0,0,1,0,.06V75.2a.23.23,0,0,1-.07.17.28.28,0,0,1-.21.06h-.25l-.1,0L32,75.35l-.15-.09-3.81-2.43v2.4a.14.14,0,0,1,0,.07l-.05,0-.09,0h-.27l-.09,0a.11.11,0,0,1-.05,0,.14.14,0,0,1,0-.07V72.3a.23.23,0,0,1,.06-.17.26.26,0,0,1,.19-.06H28l.1,0,.11.05.14.09,3.79,2.42V72.09a.12.12,0,0,1,.07-.11A.53.53,0,0,1,32.45,71.95Z"/>
      <path id="_Trazado_compuesto_11" data-name="&lt;Trazado compuesto&gt;" class="cls-1" d="M32.49,65.5l.14,0a.1.1,0,0,1,.08,0,.2.2,0,0,1,0,.11s0,.12,0,.2,0,.15,0,.2a.44.44,0,0,1,0,.11.12.12,0,0,1,0,.06l-.06,0-1.28.45v2.19l1.27.43.06,0a.15.15,0,0,1,0,.06.36.36,0,0,1,0,.11,1.81,1.81,0,0,1,0,.19,1.48,1.48,0,0,1,0,.19.2.2,0,0,1,0,.11.1.1,0,0,1-.08,0l-.14,0-4.9-1.77-.07,0a.17.17,0,0,1,0-.08.58.58,0,0,1,0-.13c0-.05,0-.12,0-.2s0-.16,0-.22a.64.64,0,0,1,0-.14.18.18,0,0,1,0-.08l.07,0Zm-4.32,2.27h0l2.63.91V66.85Z"/>
      <path id="_Trazado_compuesto_12" data-name="&lt;Trazado compuesto&gt;" class="cls-1" d="M34,59.47a.49.49,0,0,1,.21,0,.11.11,0,0,1,.07.1v3.92a.12.12,0,0,1-.06.11.42.42,0,0,1-.2,0,.47.47,0,0,1-.21,0,.12.12,0,0,1-.07-.11V59.61a.11.11,0,0,1,.07-.1A.46.46,0,0,1,34,59.47Z"/>
    </g>
  </g>
</svg>
