<?xml version="1.0" encoding="utf-8"?>
<!-- Generator: Adobe Illustrator 19.0.0, SVG Export Plug-In . SVG Version: 6.00 Build 0)  -->
<svg version="1.1" xmlns="http://www.w3.org/2000/svg" xmlns:xlink="http://www.w3.org/1999/xlink" x="0px" y="0px"
	 viewBox="0 0 17 18.8" style="enable-background:new 0 0 17 18.8;" xml:space="preserve">
<style type="text/css">
	.st0{fill:#211915;stroke:#211915;stroke-miterlimit:10;}
</style>
<g id="Capa_1">
</g>
<g id="Object">
	<path id="XMLID_751_" class="st0" d="M11.6,11.6c0,0-0.1-0.1-0.1-0.1c0-0.1,0.1-0.1,0.1-0.2c1.1-1.4,1.5-3.2,1-4.9
		c-0.5-1.7-1.8-3-3.4-3.5C8.8,2.8,8.5,2.7,8.3,2.7c-0.1,0-0.2,0-0.4-0.1L7,2.6l-0.1,0c0,0-0.1,0-0.1,0c-1.4,0.2-2.7,0.9-3.5,2
		C2.4,5.8,2,7.2,2.2,8.6c0.2,1.8,1.4,3.4,3.1,4.1c1.7,0.8,3.6,0.6,5.1-0.4l0.2-0.1l1,1c0.9,0.9,1.8,1.8,2.7,2.7
		c0.1,0.1,0.2,0.1,0.3,0.2c0,0,0.1,0.1,0.1,0.1l0,0h0.3l0,0c0.2-0.2,0.4-0.3,0.4-0.5c0-0.2-0.1-0.4-0.3-0.6L11.6,11.6z M11.5,8
		c0,2.2-1.8,4.1-4.1,4.1h0c-1.1,0-2.1-0.4-2.9-1.2c-0.8-0.8-1.2-1.8-1.2-3c0-2.2,1.8-4,4.1-4h0c1.1,0,2.1,0.4,2.9,1.2
		C11.1,5.8,11.5,6.9,11.5,8z"/>
</g>
</svg>
