<?xml version="1.0" encoding="utf-8"?>
<!-- Generator: Adobe Illustrator 21.0.0, SVG Export Plug-In . SVG Version: 6.00 Build 0)  -->
<svg version="1.1" id="Capa_1" xmlns="http://www.w3.org/2000/svg" xmlns:xlink="http://www.w3.org/1999/xlink" x="0px" y="0px"
	 viewBox="0 0 23 24" style="enable-background:new 0 0 23 24;" xml:space="preserve">
<style type="text/css">
	.st0{stroke:#000000;stroke-width:0.28;stroke-miterlimit:10;}
</style>
<title>11Mesa de trabajo 1</title>
<path id="_Trazado_" class="st0" d="M6.8,4.9l9.9,5.7c0.7-0.9,1.8-1.4,2.9-1.3c0.9,0.1,1.7,0.5,2.3,1.2c1.2,1.4,1.1,3.4-0.3,4.6
	c-1.4,1.2-3.4,1.1-4.6-0.3c-0.1-0.1-0.2-0.2-0.2-0.3l-0.6,0.3l-7.8,4.5c-0.1,0.1-0.2,0.1-0.2,0.3c0.2,1.7-0.9,3.3-2.6,3.6
	c-1.3,0.3-2.7-0.2-3.4-1.4c-1-1.5-0.6-3.5,0.9-4.5c0.3-0.2,0.7-0.4,1.1-0.5c1.2-0.3,2.4,0.1,3.2,1l1.4-0.8l7.1-4.1
	c0.1-0.1,0.2-0.2,0.2-0.3c0.1-0.4-0.1-0.6-0.5-0.8C12.4,10.1,9.2,8.3,6,6.4c-0.1-0.1-0.3-0.1-0.4,0C4.2,7.5,2.1,7.2,1,5.7
	S0.3,2.2,1.7,1.2s3.5-0.8,4.6,0.7c0.3,0.4,0.5,0.8,0.6,1.3C7,3.7,7,4.3,6.8,4.9z"/>
</svg>
