<svg id="Capa_1" data-name="Capa 1" xmlns="http://www.w3.org/2000/svg" width="23" height="24" viewBox="0 0 23 24">
  <defs>
    <style>
      .cls-1 {
        fill: #f8ec38;
        stroke: #f8ec38;
        stroke-miterlimit: 10;
        stroke-width: 0.28px;
      }
    </style>
  </defs>
  <title>11Mesa de trabajo 1</title>
  <path id="_Trazado_" data-name="&lt;Trazado&gt;" class="cls-1" d="M6.79,4.87l9.93,5.74a3.26,3.26,0,0,1,2.87-1.27,3.21,3.21,0,0,1,2.26,1.17,3.28,3.28,0,1,1-5.14,4.06l-.59.33L8.28,19.43c-.13.07-.19.13-.17.3a3.29,3.29,0,0,1-2.57,3.64A3.14,3.14,0,0,1,2.16,22a3.27,3.27,0,0,1,2-5,3.32,3.32,0,0,1,3.2,1l1.41-.81,7.14-4.11c.14-.08.16-.18.18-.33.07-.41-.13-.6-.47-.79Q10.8,9.19,6,6.42a.29.29,0,0,0-.38,0A3.27,3.27,0,1,1,6.88,3.13,3.32,3.32,0,0,1,6.79,4.87Z"/>
</svg>
