<svg id="Capa_1" data-name="Capa 1" xmlns="http://www.w3.org/2000/svg" width="17" height="21" viewBox="0 0 17 21">
  <defs>
    <style>
      .cls-1 {
        fill: #201813;
      }
    </style>
  </defs>
  <title>11Mesa de trabajo 1</title>
  <path id="_Trazado_" data-name="&lt;Trazado&gt;" class="cls-1" d="M12.79,14.74c-1.41,0-2.82,0-4.23,0a2,2,0,0,1-1-.21,2,2,0,0,1-1.15-1.72c0-.51,0-1,0-1.55,0-.08,0-.1.1-.1h5.75a2,2,0,0,0,1.78-1,2,2,0,0,0-1.78-2.9H6.42V7.07c0-1,0-2,0-2.94a2.1,2.1,0,0,0-1.72-2l-.12,0H4l-.39.1A2.06,2.06,0,0,0,2.23,4c0,.09,0,.18,0,.27q0,4.11,0,8.23a6.77,6.77,0,0,0,.23,1.86,6,6,0,0,0,1,2A6.76,6.76,0,0,0,5.23,18a5.69,5.69,0,0,0,2.29.84l.63.08h4.8a5.12,5.12,0,0,0,.67-.23,2.09,2.09,0,0,0,.93-2.84A2,2,0,0,0,12.79,14.74Z"/>
</svg>
