<?xml version="1.0" standalone="no"?>
<!DOCTYPE svg PUBLIC "-//W3C//DTD SVG 1.1//EN" "http://www.w3.org/Graphics/SVG/1.1/DTD/svg11.dtd" >
<svg>
<metadata>
Created by FontForge 20090622 at Wed Nov 27 23:55:39 2019
 By deploy user
Copyright &#194;&#169; 2018 Monotype GmbH.  All rights reserved.
</metadata>
<defs>
<font id="RealHeadPro-BlackObl" horiz-adv-x="600" >
  <font-face 
    font-family="Real Head Pro Black Obl"
    font-weight="900"
    font-style="italic"
    font-stretch="normal"
    units-per-em="1000"
    panose-1="2 11 5 0 5 0 0 9 0 4"
    ascent="800"
    descent="-200"
    x-height="542"
    cap-height="700"
    bbox="-486 -353 1490 1105"
    underline-thickness="161"
    underline-position="-51"
    slope="-10"
    unicode-range="U+000D-U+1F310"
  />
<missing-glyph 
d="M530 700v-868h-462v868h462zM376 548h-154v-564h154v564z" />
    <glyph glyph-name="fi" unicode="fi" horiz-adv-x="663" 
d="M373 719q94 0 161 -21l-24 -137q-52 16 -112 16q-40 0 -55 -7.5t-18 -26.5l-4 -21h346l-92 -522h-200l68 385h-146l-68 -385h-200l68 385h-72l24 137h72l9 48q13 77 68 113t175 36z" />
    <glyph glyph-name="fl" unicode="fl" horiz-adv-x="648" 
d="M333 719q70 0 155 -22l197 9l-125 -706h-200l100 565q-22 12 -71 12q-34 0 -47 -7t-17 -27l-4 -21h66l-24 -137h-66l-68 -385h-200l68 385h-72l24 137h72l9 48q13 76 61.5 112.5t141.5 36.5z" />
    <glyph glyph-name="f_f" unicode="ff" horiz-adv-x="745" 
d="M724 577q-26 0 -38 -7.5t-15 -26.5l-4 -21h122l-24 -137h-122l-68 -385h-200l68 385h-146l-68 -385h-200l68 385h-72l24 137h72l7 38q30 159 230 159q104 0 183 -39q53 39 146 39q86 0 153 -23l-24 -132q-47 13 -92 13zM467 522l7 38q0 2 1 5t1 5q-49 17 -88 17
q-55 0 -63 -44l-4 -21h146z" />
    <glyph glyph-name="f_f_i" unicode="ffi" horiz-adv-x="1009" 
d="M667 522h346l-92 -522h-200l68 385h-146l-68 -385h-200l68 385h-146l-68 -385h-200l68 385h-72l24 137h72l7 38q30 159 230 159q105 0 185 -39q59 39 176 39q94 0 161 -21l-24 -137q-52 16 -112 16q-40 0 -54.5 -7.5t-18.5 -26.5zM467 522l9 48q-49 17 -88 17
q-55 0 -63 -44l-4 -21h146z" />
    <glyph glyph-name="f_f_j" unicode="ffj" horiz-adv-x="1009" 
d="M1012 522l-90 -518q-18 -107 -73.5 -154.5t-154.5 -47.5q-52 0 -97 9l24 138q13 -1 26 -1q34 0 53.5 20.5t29.5 79.5l58 337h-145l-68 -385h-200l68 385h-146l-68 -385h-200l68 385h-72l24 137h72l7 38q28 159 230 159q97 0 177 -42q57 42 184 42q94 0 161 -21l-24 -137
q-52 16 -112 16q-40 0 -55 -7.5t-18 -26.5l-4 -21h345zM467 522l9 48q-43 17 -88 17q-55 0 -63 -44l-4 -21h146z" />
    <glyph glyph-name="f_f_l" unicode="ffl" horiz-adv-x="984" 
d="M824 697l197 9l-125 -706h-200l100 565q-22 12 -71 12q-34 0 -47 -7t-17 -27l-4 -21h66l-24 -137h-66l-68 -385h-200l68 385h-136l-68 -385h-200l68 385h-72l24 137h72l7 38q28 159 226 159q92 0 172 -38q49 38 143 38q70 0 155 -22zM457 522l9 48q0 3 1 4q-36 13 -79 13
q-55 0 -63 -44l-4 -21h136z" />
    <glyph glyph-name="f_j" unicode="fj" horiz-adv-x="663" 
d="M666 522l-90 -518q-18 -107 -73.5 -154.5t-154.5 -47.5q-52 0 -97 9l24 138q13 -1 26 -1q34 0 53.5 20.5t29.5 79.5l58 337h-145l-68 -385h-200l68 385h-72l24 137h72l9 48q13 77 68 113t175 36q94 0 161 -21l-24 -137q-52 16 -112 16q-40 0 -55 -7.5t-18 -26.5l-4 -21
h345z" />
    <glyph glyph-name=".notdef" 
d="M530 700v-868h-462v868h462zM376 548h-154v-564h154v564z" />
    <glyph glyph-name=".null" horiz-adv-x="0" 
 />
    <glyph glyph-name="nonmarkingreturn" horiz-adv-x="333" 
 />
    <glyph glyph-name="NULL" horiz-adv-x="0" 
 />
    <glyph glyph-name="CR" unicode="&#xd;" horiz-adv-x="190" 
 />
    <glyph glyph-name="space" unicode=" " horiz-adv-x="190" 
 />
    <glyph glyph-name="exclam" unicode="!" horiz-adv-x="308" 
d="M63 250l23 262l34 191h218l-34 -191l-69 -262h-172zM126 -18q-43 0 -75.5 32t-32.5 75t32.5 75t75.5 32q44 0 76.5 -32t32.5 -75t-32.5 -75t-76.5 -32z" />
    <glyph glyph-name="quotedbl" unicode="&#x22;" horiz-adv-x="526" 
d="M308 716l-59 -336h-180l59 336h180zM554 716l-59 -336h-180l59 336h180z" />
    <glyph glyph-name="numbersign" unicode="#" 
d="M584 427h-80l-40 -186h66l-8 -115h-82l-27 -126h-137l27 126h-71l-27 -126h-137l27 126h-64l8 115h80l40 186h-66l8 115h83l30 142h137l-30 -142h71l30 142h137l-30 -142h63zM327 241l40 186h-71l-40 -186h71z" />
    <glyph glyph-name="dollar" unicode="$" horiz-adv-x="660" 
d="M410 439q120 -22 179.5 -67.5t59.5 -134.5q0 -111 -88 -179t-219 -77l-21 -130h-114l22 134q-140 20 -246 126l123 116q45 -41 80 -60t88 -25l23 128q-118 25 -174.5 73.5t-56.5 134.5q0 106 83.5 170.5t211.5 70.5l19 115h114l-20 -122q137 -23 226 -117l-151 -110
q-53 60 -117 71zM277 505q0 -17 10.5 -28t42.5 -21l18 104q-71 -8 -71 -55zM354 141q38 4 60 19.5t22 35.5q0 19 -12 31t-49 24z" />
    <glyph glyph-name="percent" unicode="%" horiz-adv-x="1047" 
d="M288 719q82 0 131.5 -48.5t49.5 -132.5q0 -124 -62 -206t-178 -82q-83 0 -132 45.5t-49 129.5q0 125 63 209.5t177 84.5zM886 712l-554 -724h-144l554 724h144zM282 615q-35 0 -58.5 -29.5t-33 -70.5t-9.5 -89q0 -72 55 -72q50 0 75 55.5t25 130.5t-54 75zM845 451
q82 0 131.5 -48.5t49.5 -132.5q0 -124 -62 -206t-178 -82q-83 0 -132 45.5t-49 129.5q0 125 63 209.5t177 84.5zM839 347q-35 0 -58.5 -29.5t-33 -70.5t-9.5 -89q0 -72 55 -72q50 0 75 55.5t25 130.5t-54 75z" />
    <glyph glyph-name="ampersand" unicode="&#x26;" horiz-adv-x="753" 
d="M275 -20q-111 0 -186 53t-75 151q0 147 169 218q-22 27 -32 42t-19.5 40.5t-9.5 54.5q0 82 71.5 130.5t176.5 48.5q111 0 169.5 -41.5t58.5 -110.5q0 -64 -40.5 -108.5t-121.5 -80.5l90 -96q17 43 21 103h180q-22 -139 -94 -216q36 -28 85 -32l-59 -152q-107 11 -163 66
q-95 -70 -221 -70zM345 472q40 22 54.5 36t14.5 33q0 22 -12 34.5t-33 12.5q-27 0 -42 -15t-15 -40q0 -24 33 -61zM312 140q47 0 79 22l-121 133q-39 -33 -39 -84q0 -71 81 -71z" />
    <glyph glyph-name="quotesingle" unicode="'" horiz-adv-x="280" 
d="M308 716l-59 -336h-180l59 336h180z" />
    <glyph glyph-name="parenleft" unicode="(" horiz-adv-x="364" 
d="M436 780q-200 -365 -200 -634q0 -156 32 -319h-152q-85 172 -85 339q0 162 65.5 319.5t181.5 294.5h158z" />
    <glyph glyph-name="parenright" unicode=")" horiz-adv-x="364" 
d="M-60 -173q200 365 200 634q0 156 -32 319h152q85 -172 85 -339q0 -162 -65.5 -319.5t-181.5 -294.5h-158z" />
    <glyph glyph-name="asterisk" unicode="*" horiz-adv-x="496" 
d="M368 716l-22 -142l127 65l52 -158l-142 -23l101 -101l-134 -97l-66 128l-64 -128l-135 98l101 101l-141 22l52 158l127 -64l-22 141h166z" />
    <glyph glyph-name="plus" unicode="+" 
d="M439 519l-27 -153h138l-27 -151h-138l-27 -152h-190l27 152h-138l27 151h138l27 153h190z" />
    <glyph glyph-name="comma" unicode="," horiz-adv-x="332" 
d="M129 222q55 0 90 -35.5t35 -89.5q0 -142 -156 -276l-102 57q24 28 36.5 44t24 41.5t13.5 52.5q-31 20 -45.5 42t-14.5 60q0 43 33.5 73.5t85.5 30.5z" />
    <glyph glyph-name="hyphen" unicode="-" horiz-adv-x="395" 
d="M387 394l-29 -161h-335l29 161h335z" />
    <glyph glyph-name="period" unicode="." horiz-adv-x="332" 
d="M137 222q49 0 84.5 -35t35.5 -84q0 -48 -35.5 -83.5t-84.5 -35.5q-48 0 -84.5 35.5t-36.5 83.5t36.5 83.5t84.5 35.5z" />
    <glyph glyph-name="slash" unicode="/" horiz-adv-x="570" 
d="M639 775l-512 -943h-184l512 943h184z" />
    <glyph glyph-name="zero" unicode="0" horiz-adv-x="672" 
d="M306 -14q-131 0 -203 71.5t-72 207.5q0 122 41.5 219.5t124 155.5t194.5 58q132 0 204 -70.5t72 -199.5q0 -192 -96.5 -317t-264.5 -125zM318 151q37 0 65 25t44 66.5t23.5 88.5t7.5 97q0 115 -78 115q-37 0 -65 -24.5t-43.5 -66t-23 -88.5t-7.5 -99q0 -114 77 -114z" />
    <glyph glyph-name="one" unicode="1" horiz-adv-x="519" 
d="M-18 0l28 156h163l51 288h-158l21 124h14q94 0 136.5 28t60.5 88h168l-93 -528h121l-28 -156h-484z" />
    <glyph glyph-name="two" unicode="2" horiz-adv-x="594" 
d="M361 698q108 0 172 -48.5t64 -136.5q0 -47 -16.5 -90t-41 -75.5t-68.5 -68.5t-82 -61.5t-99 -61.5h263l-28 -156h-551l27 151l63 39.5l63.5 40l57.5 37.5t55.5 38.5l46 36.5t41 38.5l28.5 36.5t21 39.5t6 38.5q0 48 -44 48q-62 0 -81 -103h-206q21 119 97.5 188t211.5 69
z" />
    <glyph glyph-name="three" unicode="3" horiz-adv-x="594" 
d="M353 698q118 0 178.5 -43.5t60.5 -118.5q0 -62 -44 -110.5t-116 -61.5q61 -12 97 -51t36 -98q0 -103 -87 -166t-213 -63q-117 0 -187.5 52.5t-84.5 146.5l187 39q11 -83 84 -83q40 0 64 20t24 56q0 31 -21.5 47.5t-59.5 16.5h-60l25 141h46q44 0 70 19.5t26 55.5
q0 49 -56 49q-61 0 -87 -68l-179 29q37 93 113.5 142t183.5 49z" />
    <glyph glyph-name="four" unicode="4" horiz-adv-x="644" 
d="M623 684l-74 -419h78l-27 -155h-78l-20 -110h-200l20 110h-339l27 154l338 420h275zM385 476l-153 -211h116z" />
    <glyph glyph-name="five" unicode="5" 
d="M616 684l-50 -156h-274l-28 -99q58 42 135 42q78 0 131.5 -49.5t53.5 -138.5q0 -141 -89 -219t-240 -78q-102 0 -171.5 49.5t-90.5 126.5l182 49q17 -70 91 -70q48 0 75 28t27 78q0 34 -18.5 54t-52.5 20q-54 0 -87 -47l-171 27l120 383h457z" />
    <glyph glyph-name="six" unicode="6" horiz-adv-x="609" 
d="M376 698q190 0 246 -150l-186 -54q-16 58 -71 58q-82 0 -123 -159q65 61 165 61q77 0 132 -52t55 -141q0 -118 -87.5 -196.5t-222.5 -78.5q-122 0 -193 68t-71 200q0 51 9 99q27 146 119.5 245.5t227.5 99.5zM320 305q-43 0 -69 -39q-18 -28 -18 -63q0 -29 15 -47.5
t43 -18.5q40 0 65 30t25 75q0 63 -61 63z" />
    <glyph glyph-name="seven" unicode="7" horiz-adv-x="541" 
d="M609 684l-25 -138q-132 -158 -201.5 -271t-111.5 -275h-217q26 98 65 181t90 149.5t94 111t103 98.5h-180l-13 -75h-164l39 219h521z" />
    <glyph glyph-name="eight" unicode="8" horiz-adv-x="636" 
d="M371 698q127 0 189.5 -49t62.5 -122q0 -47 -34 -89.5t-87 -62.5q41 -16 73 -53t32 -101q0 -107 -93 -171t-235 -64q-140 0 -208.5 52t-68.5 131q0 132 151 202q-64 48 -64 123q0 88 84 146t198 58zM356 552q-29 0 -46.5 -16.5t-17.5 -41.5q0 -40 37 -54l39 -14
q51 44 51 82q0 44 -63 44zM273 301q-57 -46 -57 -106q0 -27 20 -42.5t59 -16.5q44 -1 70.5 19.5t26.5 55.5q0 48 -54 67z" />
    <glyph glyph-name="nine" unicode="9" horiz-adv-x="619" 
d="M268 -14q-92 0 -154 32t-100 107l166 71q26 -58 91 -58q50 0 81 32.5t53 115.5q-73 -68 -165 -68q-76 0 -131.5 55t-55.5 145q0 119 87.5 199.5t222.5 80.5q122 0 193 -68t71 -200q0 -51 -9 -99q-13 -71 -40 -131t-69 -109t-103.5 -77t-137.5 -28zM327 371q42 0 69 40
q18 28 18 70q0 29 -15 47.5t-43 18.5q-40 0 -64.5 -32.5t-24.5 -77.5q0 -66 60 -66z" />
    <glyph glyph-name="colon" unicode=":" horiz-adv-x="332" 
d="M196 558q49 0 84.5 -35t35.5 -84q0 -48 -35.5 -83.5t-84.5 -35.5q-48 0 -84.5 35.5t-36.5 83.5t36.5 83.5t84.5 35.5zM137 222q49 0 84.5 -35t35.5 -84q0 -48 -35.5 -83.5t-84.5 -35.5q-48 0 -84.5 35.5t-36.5 83.5t36.5 83.5t84.5 35.5z" />
    <glyph glyph-name="semicolon" unicode=";" horiz-adv-x="332" 
d="M196 558q49 0 84.5 -35t35.5 -84q0 -48 -35.5 -83.5t-84.5 -35.5q-48 0 -84.5 35.5t-36.5 83.5t36.5 83.5t84.5 35.5zM129 222q55 0 90 -35.5t35 -89.5q0 -142 -156 -276l-102 57q24 28 36.5 44t24 41.5t13.5 52.5q-31 20 -45.5 42t-14.5 60q0 43 33.5 73.5t85.5 30.5z
" />
    <glyph glyph-name="less" unicode="&#x3c;" horiz-adv-x="540" 
d="M425 5l-374 174l37 208l435 174l-35 -206l-283 -80l255 -80z" />
    <glyph glyph-name="equal" unicode="=" 
d="M574 501l-29 -161h-466l29 161h466zM532 265l-28 -161h-466l28 161h466z" />
    <glyph glyph-name="greater" unicode="&#x3e;" horiz-adv-x="540" 
d="M118 561l375 -174l-36 -208l-437 -174l36 205l284 80l-256 80z" />
    <glyph glyph-name="question" unicode="?" horiz-adv-x="553" 
d="M153 250l7 32q10 47 35 82t53.5 53t55.5 32t44.5 28.5t17.5 33.5q0 20 -14 32t-36 12q-54 0 -90 -68l-169 43q73 184 295 184q105 0 169 -47.5t64 -132.5q0 -44 -16 -78t-40.5 -53.5t-53.5 -37t-55 -29.5t-46 -29.5t-25 -39.5l-4 -17h-192zM234 -18q-43 0 -75.5 32
t-32.5 75t32.5 75t75.5 32q44 0 76.5 -32t32.5 -75t-32.5 -75t-76.5 -32z" />
    <glyph glyph-name="at" unicode="@" horiz-adv-x="1076" 
d="M495 -198q-195 0 -318 109.5t-123 280.5q0 148 62.5 267t184.5 189.5t282 70.5q195 0 317.5 -107.5t122.5 -271.5q0 -134 -69 -228t-174 -94q-77 0 -113 36q-29 29 -33 73q-17 -45 -65.5 -76.5t-111.5 -31.5q-78 0 -129 55t-51 148q0 129 72.5 211.5t173.5 82.5
q57 0 100 -29q24 -16 36 -38l8 45h124l-52 -296q-2 -16 -2 -26q0 -45 43 -45q53 0 78.5 59t25.5 157q0 117 -84 191.5t-224 74.5q-114 0 -201 -55.5t-132 -146.5t-45 -201q0 -133 85.5 -210.5t220.5 -77.5q104 0 187 25l29 -109q-106 -32 -225 -32zM499 147q24 0 48 19.5
t38 57.5q16 42 16 98q0 72 -58 72q-46 0 -73.5 -50.5t-27.5 -124.5q0 -33 14.5 -52.5t42.5 -19.5z" />
    <glyph glyph-name="A" unicode="A" horiz-adv-x="659" 
d="M420 0l-7 91h-219l-40 -91h-223l343 700h262l96 -700h-212zM384 548l-121 -297h137z" />
    <glyph glyph-name="B" unicode="B" horiz-adv-x="679" 
d="M521 376q145 -28 145 -142q0 -116 -95 -175t-252 -59h-318l124 700h255q298 0 298 -157q0 -65 -40 -108.5t-117 -58.5zM374 426q37 0 59.5 18.5t22.5 49.5q0 49 -78 49h-69l-21 -117h86zM350 156q42 0 70 19.5t28 54.5q0 20 -7 33t-20 18.5t-24.5 7t-27.5 1.5h-104
l-24 -134h109z" />
    <glyph glyph-name="C" unicode="C" horiz-adv-x="739" 
d="M441 719q112 0 192 -52.5t113 -160.5l-199 -51q-25 94 -126 94q-82 0 -127.5 -77t-45.5 -180q0 -68 31 -104.5t86 -36.5q54 0 88.5 26.5t66.5 83.5l194 -59q-107 -221 -374 -221q-84 0 -152.5 30t-114 99t-45.5 168q0 187 116 314t297 127z" />
    <glyph glyph-name="D" unicode="D" horiz-adv-x="716" 
d="M365 700q70 0 130 -15t110.5 -47t79.5 -89t29 -135q0 -187 -109.5 -300.5t-304.5 -113.5h-299l124 700h240zM348 536h-40l-66 -372h73q45 0 80.5 20t56.5 54t31.5 74.5t10.5 84.5q0 73 -34 106t-112 33z" />
    <glyph glyph-name="E" unicode="E" horiz-adv-x="588" 
d="M601 532h-294l-17 -95h273l-28 -160h-273l-19 -109h303l-30 -168h-515l124 700h506z" />
    <glyph glyph-name="F" unicode="F" horiz-adv-x="559" 
d="M591 532h-284l-21 -118h261l-28 -160h-261l-45 -254h-212l124 700h496z" />
    <glyph glyph-name="G" unicode="G" horiz-adv-x="748" 
d="M445 719q239 0 306 -191l-196 -63q-28 88 -125 88q-60 0 -102.5 -40.5t-61 -100t-18.5 -129.5q0 -137 117 -137q54 0 90 28t43 74l2 13h-121l25 141h333l-71 -402h-182l10 60q-72 -80 -191 -80q-117 0 -196 73t-79 216q0 199 114.5 324.5t302.5 125.5z" />
    <glyph glyph-name="H" unicode="H" horiz-adv-x="732" 
d="M547 700h212l-124 -700h-212l49 279h-210l-49 -279h-212l124 700h212l-45 -253h210z" />
    <glyph glyph-name="I" unicode="I" horiz-adv-x="310" 
d="M337 700l-124 -700h-212l124 700h212z" />
    <glyph glyph-name="J" unicode="J" horiz-adv-x="414" 
d="M446 700l-81 -457q-24 -135 -88.5 -196t-199.5 -61q-67 0 -122 15l38 169q35 -8 70 -8q46 0 64.5 20.5t27.5 72.5l79 445h212z" />
    <glyph glyph-name="K" unicode="K" horiz-adv-x="700" 
d="M797 700l-309 -290l195 -410h-236l-122 278l-75 -68l-37 -210h-212l124 700h212l-43 -241l251 241h252z" />
    <glyph glyph-name="L" unicode="L" horiz-adv-x="548" 
d="M337 700l-93 -523h288l-31 -177h-500l124 700h212z" />
    <glyph glyph-name="M" unicode="M" horiz-adv-x="901" 
d="M928 700l-124 -700h-202l80 450l-184 -450h-184l-45 442l-78 -442h-190l124 700h275l41 -466l179 466h308z" />
    <glyph glyph-name="N" unicode="N" horiz-adv-x="731" 
d="M758 700l-124 -700h-256l-118 407l-71 -407h-188l124 700h261l112 -413l72 413h188z" />
    <glyph glyph-name="O" unicode="O" horiz-adv-x="788" 
d="M452 719q67 0 124 -16.5t105.5 -51.5t76 -97t27.5 -145q0 -184 -115 -306.5t-308 -122.5q-65 0 -123 19t-105 56t-74.5 98.5t-27.5 139.5q0 190 112 308t308 118zM437 549q-91 0 -138.5 -72t-47.5 -170q0 -157 127 -157q62 0 106 39t63 92t19 110q0 83 -31 120.5
t-98 37.5z" />
    <glyph glyph-name="P" unicode="P" horiz-adv-x="661" 
d="M391 700q149 0 223.5 -53t74.5 -165q0 -132 -96.5 -204.5t-258.5 -72.5h-85l-36 -205h-212l124 700h266zM349 368q56 0 87.5 26t31.5 70q0 69 -78 69h-83l-29 -165h71z" />
    <glyph glyph-name="Q" unicode="Q" horiz-adv-x="788" 
d="M785 409q0 -110 -43.5 -201.5t-122.5 -149.5q41 -24 116 -32l-95 -182q-123 33 -185 144q-48 -8 -93 -8q-65 0 -123 19t-105 56t-74.5 98.5t-27.5 139.5q0 190 112 308t308 118q67 0 124 -16.5t105.5 -51.5t76 -97t27.5 -145zM251 307q0 -157 127 -157q62 0 106 39t63 92
t19 110q0 83 -31 120.5t-98 37.5q-91 0 -138.5 -72t-47.5 -170z" />
    <glyph glyph-name="R" unicode="R" horiz-adv-x="672" 
d="M687 492q0 -153 -162 -219l125 -273h-240l-90 240h-65l-42 -240h-212l124 700h266q296 0 296 -208zM308 538l-25 -142h76q52 0 79.5 23t27.5 55q0 64 -75 64h-83z" />
    <glyph glyph-name="S" unicode="S" horiz-adv-x="661" 
d="M305 -20q-203 0 -334 131l141 125q97 -86 211 -86q46 0 74 14.5t28 37.5t-24.5 35.5t-103.5 30.5q-121 27 -176.5 75t-55.5 135q0 110 90.5 175.5t226.5 65.5q200 0 317 -124l-151 -115q-41 37 -79.5 54t-94.5 17q-41 0 -64.5 -12t-23.5 -34q0 -23 26.5 -36.5
t103.5 -28.5q121 -24 176.5 -68.5t55.5 -134.5q0 -119 -99.5 -188t-243.5 -69z" />
    <glyph glyph-name="T" unicode="T" horiz-adv-x="570" 
d="M657 700l-30 -170h-190l-94 -530h-212l94 530h-190l30 170h592z" />
    <glyph glyph-name="U" unicode="U" horiz-adv-x="722" 
d="M754 700l-75 -420q-26 -148 -108 -224t-235 -76q-137 0 -216.5 65t-79.5 179q0 29 7 65l73 411h212l-73 -411q-6 -31 -6 -51q0 -88 93 -88q56 0 83 31.5t39 99.5l74 419h212z" />
    <glyph glyph-name="V" unicode="V" horiz-adv-x="634" 
d="M731 700l-329 -700h-261l-86 700h218l23 -538l207 538h228z" />
    <glyph glyph-name="W" unicode="W" horiz-adv-x="875" 
d="M967 700l-268 -700h-237l20 484l-158 -484h-243l-21 700h224l-40 -500l167 500h216l-18 -493l138 493h220z" />
    <glyph glyph-name="X" unicode="X" horiz-adv-x="639" 
d="M705 700l-248 -323l155 -377h-241l-53 241l-138 -241h-249l283 377l-146 323h230l54 -191l116 191h237z" />
    <glyph glyph-name="Y" unicode="Y" horiz-adv-x="604" 
d="M721 700l-315 -439l-47 -261h-210l48 270l-162 430h233l57 -269l157 269h239z" />
    <glyph glyph-name="Z" unicode="Z" horiz-adv-x="616" 
d="M657 700l-28 -159l-367 -376h316l-29 -165h-583l28 158l370 381h-286l29 161h550z" />
    <glyph glyph-name="bracketleft" unicode="[" horiz-adv-x="351" 
d="M415 790l-29 -159h-94l-113 -645h94l-28 -159h-296l170 963h296z" />
    <glyph glyph-name="backslash" unicode="\" horiz-adv-x="570" 
d="M279 775l194 -943h-170l-194 943h170z" />
    <glyph glyph-name="bracketright" unicode="]" horiz-adv-x="351" 
d="M-50 -173l29 159h94l113 645h-94l28 159h296l-170 -963h-296z" />
    <glyph glyph-name="asciicircum" unicode="^" horiz-adv-x="660" 
d="M505 719l120 -408h-187l-56 237l-139 -237h-193l263 408h192z" />
    <glyph glyph-name="underscore" unicode="_" 
d="M548 -51l-28 -161h-610l28 161h610z" />
    <glyph glyph-name="grave" unicode="`" horiz-adv-x="404" 
d="M336 761l105 -168h-138l-198 168h231z" />
    <glyph glyph-name="a" unicode="a" horiz-adv-x="571" 
d="M326 557q230 0 230 -159q0 -20 -5 -50l-40 -226q-9 -54 -9 -79q0 -18 5 -43h-192q-12 25 -9 52q-56 -66 -155 -66q-74 0 -116 39.5t-42 107.5q0 176 269 209l89 11l3 16q3 18 3 23q0 18 -10 26t-34 8q-53 0 -60 -50h-199q31 181 272 181zM332 240l-45 -7
q-47 -7 -67 -23.5t-20 -44.5q0 -34 41 -34q32 0 55 20t29 51z" />
    <glyph glyph-name="b" unicode="b" horiz-adv-x="634" 
d="M424 557q100 0 150.5 -64t50.5 -182q0 -81 -33.5 -155t-98 -122t-145.5 -48q-105 0 -158 65l-9 -51h-190l124 700h200l-35 -198q63 55 144 55zM295 138q56 0 87.5 54t30.5 126q-3 87 -76 87q-55 0 -86 -53.5t-31 -124.5q0 -89 75 -89z" />
    <glyph glyph-name="c" unicode="c" horiz-adv-x="572" 
d="M338 557q182 0 248 -157l-174 -59q-16 64 -76 64q-59 0 -87.5 -50t-28.5 -115q0 -102 75 -102q33 0 54 19t37 54l170 -64q-91 -161 -281 -161q-128 0 -197.5 64t-69.5 176q0 139 93 235t237 96z" />
    <glyph glyph-name="d" unicode="d" horiz-adv-x="634" 
d="M471 700h200l-124 -700h-190l8 45q-64 -59 -156 -59q-99 0 -150 62.5t-51 173.5q0 133 78 234t199 101q98 0 151 -62zM296 138q54 0 85.5 53.5t31.5 124.5q0 89 -75 89q-56 0 -88 -54t-30 -126q1 -87 76 -87z" />
    <glyph glyph-name="e" unicode="e" horiz-adv-x="595" 
d="M336 557q116 0 184.5 -61.5t68.5 -172.5q0 -33 -6 -69l-6 -34h-368v-3q0 -85 88 -85q69 0 116 59l146 -73q-105 -132 -283 -132q-120 0 -193.5 66.5t-73.5 179.5q0 136 91 230.5t236 94.5zM395 332q2 16 2 25q0 66 -75 66q-72 0 -99 -91h172z" />
    <glyph glyph-name="f" unicode="f" horiz-adv-x="397" 
d="M377 577q-26 0 -38 -7.5t-15 -26.5l-4 -21h122l-24 -137h-122l-68 -385h-200l68 385h-72l24 137h72l7 38q28 159 213 159q86 0 153 -23l-24 -132q-47 13 -92 13z" />
    <glyph glyph-name="g" unicode="g" horiz-adv-x="610" 
d="M220 -198q-103 0 -163.5 15.5t-82 40.5t-21.5 65q0 72 88 122q-33 23 -33 71q0 67 90 129q-60 42 -60 114q0 91 79.5 144.5t202.5 53.5q93 0 146 -29q64 76 192 78l-24 -154q-50 0 -83 -9q20 -27 20 -72q0 -85 -76 -132.5t-191 -47.5q-73 0 -118 13q-15 -15 -15 -29
q0 -25 63 -25h61q118 0 180.5 -42t62.5 -115q0 -191 -318 -191zM303 322q34 0 54 17.5t20 48.5q0 22 -16.5 35t-44.5 13q-34 0 -55 -18.5t-21 -46.5q0 -24 17 -36.5t46 -12.5zM219 -71q110 0 110 39q0 19 -16 26t-50 7h-121q-22 -15 -22 -35t20 -28.5t79 -8.5z" />
    <glyph glyph-name="h" unicode="h" horiz-adv-x="614" 
d="M-9 0l124 700h200l-40 -225q64 82 167 82q71 0 114.5 -39.5t43.5 -110.5q0 -24 -14 -103l-54 -304h-200l48 267q10 57 10 78q0 45 -49 45q-36 0 -63 -27t-35 -72l-52 -291h-200z" />
    <glyph glyph-name="i" unicode="i" horiz-adv-x="278" 
d="M207 806q45 0 77.5 -29.5t32.5 -73.5q0 -43 -32.5 -73t-77.5 -30q-44 0 -77 30t-33 73t33 73t77 30zM287 542l-96 -542h-200l96 542h200z" />
    <glyph glyph-name="j" unicode="j" horiz-adv-x="279" 
d="M208 807q45 0 77.5 -29.5t32.5 -73.5q0 -43 -32.5 -73t-77.5 -30q-44 0 -77 30t-33 73t33 73t77 30zM-35 -198q-52 0 -97 9l24 138q13 -1 26 -1q34 0 53 20.5t30 79.5l87 494h200l-95 -538q-19 -107 -74 -154.5t-154 -47.5z" />
    <glyph glyph-name="k" unicode="k" horiz-adv-x="612" 
d="M672 542l-235 -204l148 -338h-222l-83 214l-60 -51l-29 -163h-200l124 700h200l-57 -322l183 164h231z" />
    <glyph glyph-name="l" unicode="l" horiz-adv-x="301" 
d="M310 700l-89 -503q-4 -20 -4 -35t8 -20t30 -5q9 0 19 1l-24 -135q-40 -11 -93 -11q-143 0 -143 137q0 26 9 80l87 491h200z" />
    <glyph glyph-name="m" unicode="m" horiz-adv-x="905" 
d="M-9 0l96 542h190l-12 -65q68 80 165 80q98 0 123 -87q75 87 189 87q69 0 107.5 -40t38.5 -117q0 -29 -6 -65l-59 -335h-200l57 320q3 17 3 26q0 44 -43 44q-29 0 -51 -24.5t-29 -67.5l-53 -298h-200l57 322q3 17 3 29q0 39 -43 39q-28 0 -50.5 -25t-29.5 -67l-53 -298
h-200z" />
    <glyph glyph-name="n" unicode="n" horiz-adv-x="614" 
d="M442 557q71 0 114.5 -39.5t43.5 -110.5q0 -24 -14 -103l-54 -304h-200l48 267q10 57 10 78q0 45 -49 45q-37 0 -64 -27.5t-35 -74.5l-51 -288h-200l96 542h190l-13 -75q68 90 178 90z" />
    <glyph glyph-name="o" unicode="o" horiz-adv-x="640" 
d="M350 557q130 0 205 -69.5t75 -188.5q0 -135 -94 -224t-246 -89q-133 0 -206.5 68t-73.5 188q0 135 95 225t245 90zM342 405q-61 0 -90 -51t-29 -120q0 -96 76 -96q59 0 89.5 53t30.5 120q0 94 -77 94z" />
    <glyph glyph-name="p" unicode="p" horiz-adv-x="634" 
d="M424 557q100 0 150.5 -64t50.5 -182q0 -81 -33.5 -155t-98 -122t-145.5 -48q-97 0 -150 56l-37 -216h-200l126 716h190l-10 -51q70 66 157 66zM295 138q56 0 87.5 54t30.5 126q-3 87 -76 87q-55 0 -86 -53.5t-31 -124.5q0 -89 75 -89z" />
    <glyph glyph-name="q" unicode="q" horiz-adv-x="634" 
d="M458 542h190l-126 -716h-200l36 213q-62 -53 -149 -53q-99 0 -150 62.5t-51 173.5q0 86 33.5 162t99.5 124.5t149 48.5q105 0 159 -66zM220 225q1 -87 76 -87q54 0 85.5 53.5t31.5 124.5q0 89 -75 89q-56 0 -88 -54t-30 -126z" />
    <glyph glyph-name="r" unicode="r" horiz-adv-x="415" 
d="M420 557q22 0 46 -3l-33 -187q-18 1 -31 1q-70 0 -114.5 -37.5t-62.5 -138.5l-34 -192h-200l96 542h190l-16 -87q52 102 159 102z" />
    <glyph glyph-name="s" unicode="s" horiz-adv-x="547" 
d="M313 557q142 0 244 -81l-105 -104q-69 49 -144 49q-53 0 -53 -31q0 -15 18 -23t90 -25q83 -19 122 -58t39 -109q0 -85 -83 -137t-197 -52q-94 0 -155 22.5t-120 67.5l96 115q92 -65 176 -65q68 0 68 32q0 16 -16.5 25.5t-75.5 22.5q-88 20 -132 58.5t-44 103.5
q0 87 76 138t196 51z" />
    <glyph glyph-name="t" unicode="t" horiz-adv-x="412" 
d="M296 385l-33 -187q-2 -12 -2 -20q0 -35 50 -35q29 0 71 9l-26 -153q-53 -13 -113 -13q-185 0 -185 153q0 29 6 61l33 185h-73l24 137h73l24 138h200l-24 -138h120l-24 -137h-121z" />
    <glyph glyph-name="u" unicode="u" horiz-adv-x="608" 
d="M167 -15q-69 0 -110.5 40t-41.5 111q0 25 14 104l54 302h200l-48 -265q-10 -57 -10 -78q0 -47 49 -47q36 0 60 27t32 75l51 288h200l-96 -542h-190l13 69q-61 -84 -177 -84z" />
    <glyph glyph-name="v" unicode="v" horiz-adv-x="545" 
d="M614 542l-263 -542h-253l-71 542h217l-1 -400l145 400h226z" />
    <glyph glyph-name="w" unicode="w" horiz-adv-x="805" 
d="M869 542l-224 -542h-230l9 385l-133 -385h-229l-30 542h210l-30 -369l128 369h217l-2 -369l107 369h207z" />
    <glyph glyph-name="x" unicode="x" horiz-adv-x="548" 
d="M604 542l-202 -249l129 -293h-232l-41 188l-103 -188h-234l228 293l-118 249h232l29 -149l85 149h227z" />
    <glyph glyph-name="y" unicode="y" horiz-adv-x="540" 
d="M609 542l-248 -541q-30 -65 -61.5 -106t-82 -67t-118.5 -26q-58 0 -107 8l23 132q37 -4 74 -4q41 0 59 11t30 51h-82l-74 542h222l-2 -410l138 410h229z" />
    <glyph glyph-name="z" unicode="z" horiz-adv-x="500" 
d="M521 542l-27 -151l-255 -233h227l-28 -158h-477l26 148l258 238h-196l28 156h444z" />
    <glyph glyph-name="braceleft" unicode="{" horiz-adv-x="370" 
d="M444 790l-27 -149h-19q-28 0 -42 -14.5t-20 -46.5l-28 -162q-9 -50 -45.5 -77.5t-79.5 -31.5q43 -7 67.5 -42t11.5 -108l-21 -122q-5 -32 3.5 -46.5t36.5 -14.5h19l-26 -149h-84q-92 0 -131.5 50.5t-22.5 145.5l23 131q9 48 -1.5 67.5t-44.5 26.5l21 122q37 7 54 26
t26 67l30 171q27 156 216 156h84z" />
    <glyph glyph-name="bar" unicode="|" horiz-adv-x="336" 
d="M335 774l-166 -942h-156l166 942h156z" />
    <glyph glyph-name="braceright" unicode="}" horiz-adv-x="370" 
d="M-60 -173l27 149h19q28 0 42 14.5t20 46.5l28 162q9 50 45.5 77.5t79.5 31.5q-43 7 -67.5 42t-11.5 108l21 122q5 32 -3.5 46.5t-36.5 14.5h-19l26 149h84q92 0 131.5 -50.5t22.5 -145.5l-23 -131q-9 -48 1.5 -67.5t44.5 -26.5l-21 -122q-37 -7 -54 -26t-26 -67l-30 -171
q-27 -156 -216 -156h-84z" />
    <glyph glyph-name="asciitilde" unicode="~" 
d="M384 207q-46 0 -96.5 28t-77.5 28q-58 0 -96 -49l-85 73q91 123 201 123q50 0 99 -27.5t75 -27.5q52 0 94 52l86 -77q-89 -123 -200 -123z" />
    <glyph glyph-name="uni00A0" unicode="&#xa0;" horiz-adv-x="190" 
 />
    <glyph glyph-name="exclamdown" unicode="&#xa1;" horiz-adv-x="308" 
d="M183 342q-44 0 -76.5 32t-32.5 75t32.5 75t76.5 32q43 0 75.5 -32t32.5 -75t-32.5 -75t-75.5 -32zM-29 -168l34 191l69 260h172l-23 -260l-34 -191h-218z" />
    <glyph glyph-name="cent" unicode="&#xa2;" 
d="M323 122q48 13 80 72l146 -54q-73 -132 -231 -151l-25 -138h-114l25 141q-83 17 -131 78t-48 154q0 131 75 222t203 108l20 114h114l-21 -117q115 -25 170 -147l-146 -58q-19 60 -64 74zM297 422q-96 -25 -96 -196q0 -82 44 -102z" />
    <glyph glyph-name="sterling" unicode="&#xa3;" horiz-adv-x="660" 
d="M316 274q-9 -45 -21 -67t-41 -45h319l-29 -162h-517l6 151q41 16 57 37t27 85l3 20h-77l17 97h77l23 129q15 89 84 144.5t186 55.5q86 0 151 -41t86 -116l-177 -53q-14 61 -64 61q-56 0 -69 -69l-20 -111h170l-17 -97h-171z" />
    <glyph glyph-name="currency" unicode="&#xa4;" horiz-adv-x="660" 
d="M105 604l107 -106q55 26 119 26q67 0 121 -26l105 105l98 -97l-101 -100q32 -59 32 -124q0 -66 -32 -125l101 -100l-98 -97l-106 105q-55 -25 -119 -25q-65 0 -120 25l-107 -106l-97 97l102 102q-32 59 -32 124q0 63 31 123l-101 102zM331 386q-39 0 -60.5 -27t-21.5 -77
t21.5 -77t61.5 -27q39 0 60.5 27t21.5 77t-21.5 77t-61.5 27z" />
    <glyph glyph-name="yen" unicode="&#xa5;" horiz-adv-x="660" 
d="M749 700l-282 -385h109l-17 -97h-133l-5 -28h133l-17 -96h-133l-17 -94h-210l17 94h-133l17 96h133l5 28h-133l17 97h108l-145 385h235l53 -281l157 281h241z" />
    <glyph glyph-name="brokenbar" unicode="&#xa6;" horiz-adv-x="336" 
d="M335 774l-65 -369h-156l65 369h156zM234 201l-65 -369h-156l65 369h156z" />
    <glyph glyph-name="section" unicode="&#xa7;" 
d="M425 506q80 -18 117.5 -53t37.5 -92q0 -105 -117 -166q44 -37 44 -102q0 -78 -71 -127.5t-186 -49.5q-157 0 -234 82l97 99q58 -47 132 -47q59 0 59 29q0 15 -18.5 25t-91.5 29q-157 41 -157 155q0 45 33 85t86 67q-47 38 -47 102q0 78 71 127.5t186 49.5q66 0 128.5 -21
t96.5 -57l-103 -102q-58 46 -117 46t-59 -29q0 -15 19.5 -24t93.5 -26zM302 260l20.5 -5l24.5 -6q35 34 35 71q0 24 -13.5 37t-51.5 22q-16 3 -44 11q-38 -35 -38 -73q0 -42 67 -57z" />
    <glyph glyph-name="dieresis" unicode="&#xa8;" horiz-adv-x="540" 
d="M214 804q41 0 71 -29.5t30 -70.5q0 -40 -30 -70t-71 -30t-71.5 30t-30.5 70q0 41 30.5 70.5t71.5 29.5zM478 804q41 0 71.5 -29.5t30.5 -70.5q0 -40 -30.5 -70t-71.5 -30t-71 30t-30 70q0 41 30 70.5t71 29.5z" />
    <glyph glyph-name="copyright" unicode="&#xa9;" horiz-adv-x="900" 
d="M464 719q167 0 273 -106t106 -264t-106 -263t-273 -105q-168 0 -274.5 105t-106.5 263t107 264t274 106zM464 635q-129 0 -205.5 -84t-76.5 -202t76 -201t206 -83q129 0 204.5 83t75.5 201t-75.5 202t-204.5 84zM468 569q138 0 191 -125l-119 -30q-26 55 -72 55
q-38 0 -63 -30.5t-25 -85.5q0 -57 23 -87.5t65 -30.5q58 0 83 62l116 -32q-56 -130 -199 -130q-88 0 -152 55.5t-64 162.5q0 106 61.5 161t154.5 55z" />
    <glyph glyph-name="ordfeminine" unicode="&#xaa;" horiz-adv-x="438" 
d="M295 719q176 0 176 -110q0 -16 -4 -44l-31 -173q-10 -64 -2 -91h-136q-6 14 -8 39q-46 -49 -135 -49q-52 0 -85.5 30t-33.5 81q0 132 209 155l73 8l2 12q2 12 2 19q0 14 -8.5 20t-28.5 6q-24 0 -36 -9t-17 -30h-147q14 66 69 101t141 35zM303 481l-39 -5q-73 -8 -73 -50
q0 -28 34 -28q28 0 48 15.5t25 38.5z" />
    <glyph glyph-name="guillemotleft" unicode="&#xab;" horiz-adv-x="622" 
d="M241 550l108 -87l-143 -187l78 -183l-123 -77l-154 180l29 164zM528 550l108 -87l-143 -187l78 -183l-123 -77l-154 180l29 164z" />
    <glyph glyph-name="logicalnot" unicode="&#xac;" 
d="M550 368l-52 -295h-200l24 134h-266l28 161h466z" />
    <glyph glyph-name="uni00AD" unicode="&#xad;" horiz-adv-x="395" 
d="M387 394l-29 -161h-335l29 161h335z" />
    <glyph glyph-name="registered" unicode="&#xae;" horiz-adv-x="900" 
d="M464 719q167 0 273 -106t106 -264t-106 -263t-273 -105q-168 0 -274.5 105t-106.5 263t107 264t274 106zM464 635q-129 0 -205.5 -84t-76.5 -202t76 -201t206 -83q129 0 204.5 83t75.5 201t-75.5 202t-204.5 84zM469 560q182 0 182 -128q0 -79 -81 -109l98 -155h-148
l-73 134h-26v-134h-124v392h172zM473 464h-52v-73h49q53 0 53 37q0 36 -50 36z" />
    <glyph glyph-name="macron" unicode="&#xaf;" horiz-adv-x="456" 
d="M510 750l-23 -132h-396l23 132h396z" />
    <glyph glyph-name="degree" unicode="&#xb0;" 
d="M351 719q78 0 131 -48t53 -121q0 -97 -66.5 -157.5t-169.5 -60.5q-78 0 -131.5 48t-53.5 122q0 96 67 156.5t170 60.5zM339 604q-37 0 -58.5 -30.5t-21.5 -69.5q0 -28 14.5 -42.5t37.5 -14.5q36 0 58 30.5t22 68.5q0 28 -14.5 43t-37.5 15z" />
    <glyph glyph-name="plusminus" unicode="&#xb1;" 
d="M450 584l-27 -153h138l-26 -151h-138l-17 -92h-190l17 92h-138l26 151h138l27 153h190zM514 161l-29 -161h-466l29 161h466z" />
    <glyph glyph-name="two.sups" unicode="&#xb2;" horiz-adv-x="400" 
d="M285 766q67 0 107 -33t40 -86q0 -66 -53 -117t-147 -96h167l-19 -104h-342l18 101l40.5 25l40 24.5l36 23t34.5 23.5l28 21.5t24.5 22.5l17.5 21.5t12.5 23t3.5 22.5q0 25 -28 25q-37 0 -49 -66h-131q14 78 64 123.5t136 45.5z" />
    <glyph glyph-name="three.sups" unicode="&#xb3;" horiz-adv-x="400" 
d="M282 766q71 0 112 -31t41 -80q0 -40 -25 -66t-66 -36q74 -20 74 -89q0 -66 -53 -107t-136 -41q-75 0 -121.5 33t-58.5 96l122 27q1 -24 17.5 -38t41.5 -14q23 0 38.5 11.5t15.5 33.5q0 36 -47 36h-43l17 94h32q57 0 57 40q0 29 -34 29q-37 0 -58 -45l-122 20q21 57 73 92
t123 35z" />
    <glyph glyph-name="acute" unicode="&#xb4;" horiz-adv-x="404" 
d="M450 761l-215 -168h-138l117 168h236z" />
    <glyph glyph-name="uni00B5" unicode="&#xb5;" horiz-adv-x="615" 
d="M-38 -174l126 716h193l-48 -273q-9 -48 -9 -70q0 -47 49 -47q81 0 99 102l51 288h200l-96 -542h-186l10 50q-54 -65 -115 -65q-39 0 -60 28l-34 -187h-180z" />
    <glyph glyph-name="paragraph" unicode="&#xb6;" horiz-adv-x="599" 
d="M632 700l-156 -862h-127l140 762h-71l-140 -762h-127l78 430q-81 11 -123.5 58.5t-42.5 118.5q0 109 78.5 182t210.5 73h280z" />
    <glyph glyph-name="periodcentered" unicode="&#xb7;" horiz-adv-x="332" 
d="M173 428q49 0 84.5 -35t35.5 -84q0 -48 -35.5 -83.5t-84.5 -35.5q-48 0 -84.5 35.5t-36.5 83.5t36.5 83.5t84.5 35.5z" />
    <glyph glyph-name="cedilla" unicode="&#xb8;" horiz-adv-x="383" 
d="M158 9l-9 -51q103 -10 103 -95q0 -57 -50 -89.5t-136 -32.5q-85 0 -152 36l56 87q43 -19 84 -19q44 0 44 26q0 16 -21.5 21.5t-76.5 5.5l33 111h125z" />
    <glyph glyph-name="one.sups" unicode="&#xb9;" horiz-adv-x="400" 
d="M69 330l19 104h103l25 146h-109l16 88h3q121 0 147 82h101l-55 -316h80l-19 -104h-311z" />
    <glyph glyph-name="ordmasculine" unicode="&#xba;" horiz-adv-x="502" 
d="M313 719q97 0 155.5 -51t58.5 -136q0 -104 -73.5 -173t-188.5 -69q-100 0 -157 49t-57 135q0 106 73 175.5t189 69.5zM305 607q-48 0 -72.5 -37.5t-24.5 -85.5q0 -81 65 -81q48 0 72.5 37.5t24.5 86.5q0 80 -65 80z" />
    <glyph glyph-name="guillemotright" unicode="&#xbb;" horiz-adv-x="623" 
d="M96 3l-108 87l144 190l-79 180l123 77l155 -177l-29 -164zM384 3l-108 87l144 190l-79 180l123 77l155 -177l-29 -164z" />
    <glyph glyph-name="onequarter" unicode="&#xbc;" horiz-adv-x="980" 
d="M898 712l-555 -724h-143l555 724h143zM60 280l19 104h103l25 146h-109l16 88h3q121 0 147 82h101l-55 -316h80l-19 -104h-311zM944 420l-45 -256h50l-18 -104h-50l-11 -60h-125l11 60h-202l19 108l200 252h171zM795 291l-97 -127h74z" />
    <glyph glyph-name="onehalf" unicode="&#xbd;" horiz-adv-x="1030" 
d="M898 712l-555 -724h-143l555 724h143zM60 280l19 104h103l25 146h-109l16 88h3q121 0 147 82h101l-55 -316h80l-19 -104h-311zM857 436q67 0 107 -33t40 -86q0 -66 -53 -117t-147 -96h167l-19 -104h-342l18 101l40.5 25l40 24.5l36 23t34.5 23.5l28 21.5t24.5 22.5
l17.5 21.5t12.5 23t3.5 22.5q0 25 -28 25q-37 0 -49 -66h-131q14 78 64 123.5t136 45.5z" />
    <glyph glyph-name="threequarters" unicode="&#xbe;" horiz-adv-x="940" 
d="M273 716q71 0 112 -31t41 -80q0 -40 -25 -66t-66 -36q74 -20 74 -89q0 -66 -53 -107t-136 -41q-75 0 -121.5 33t-58.5 96l122 27q1 -24 17.5 -38t41.5 -14q23 0 38.5 11.5t15.5 33.5q0 36 -47 36h-43l17 94h32q57 0 57 40q0 29 -34 29q-37 0 -58 -45l-122 20q21 57 73 92
t123 35zM858 712l-555 -724h-143l555 724h143zM904 420l-45 -256h50l-18 -104h-50l-11 -60h-125l11 60h-202l19 108l200 252h171zM755 291l-97 -127h74z" />
    <glyph glyph-name="questiondown" unicode="&#xbf;" horiz-adv-x="552" 
d="M316 544q43 0 75.5 -32t32.5 -75t-32.5 -75t-75.5 -32q-44 0 -76.5 32t-32.5 75t32.5 75t76.5 32zM397 276l-7 -32q-10 -47 -35 -82t-53.5 -53t-55.5 -32t-44.5 -28.5t-17.5 -33.5q0 -20 14 -32t36 -12q54 0 90 68l169 -43q-73 -184 -295 -184q-105 0 -169 47.5
t-64 132.5q0 44 16 78t40.5 53.5t53.5 37t55 29.5t46 29.5t25 39.5l4 17h192z" />
    <glyph glyph-name="Agrave" unicode="&#xc0;" horiz-adv-x="659" 
d="M494 753h-138l-198 168h231zM420 0l-7 91h-219l-40 -91h-223l343 700h262l96 -700h-212zM384 548l-121 -297h137z" />
    <glyph glyph-name="Aacute" unicode="&#xc1;" horiz-adv-x="659" 
d="M681 921l-203 -168h-146l110 168h239zM274 700h262l96 -700h-212l-7 91h-219l-40 -91h-223zM384 548l-121 -297h137z" />
    <glyph glyph-name="Acircumflex" unicode="&#xc2;" horiz-adv-x="659" 
d="M429 820l-82 -67h-184l172 165h206l112 -165h-168zM274 700h262l96 -700h-212l-7 91h-219l-40 -91h-223zM384 548l-121 -297h137z" />
    <glyph glyph-name="Atilde" unicode="&#xc3;" horiz-adv-x="659" 
d="M339 794q-26 0 -43 -30h-101q12 75 51.5 115t98.5 40q46 0 89.5 -22t51.5 -22q26 0 43 30h102q-8 -73 -50.5 -114t-99.5 -41q-46 0 -90 22t-52 22zM420 0l-7 91h-219l-40 -91h-223l343 700h262l96 -700h-212zM384 548l-121 -297h137z" />
    <glyph glyph-name="Adieresis" unicode="&#xc4;" horiz-adv-x="659" 
d="M297 764q-41 0 -71.5 30t-30.5 70q0 41 30.5 70.5t71.5 29.5t71 -29.5t30 -70.5q0 -40 -30 -70t-71 -30zM561 964q41 0 71.5 -29.5t30.5 -70.5q0 -40 -30.5 -70t-71.5 -30t-71 30t-30 70q0 41 30 70.5t71 29.5zM274 700h262l96 -700h-212l-7 91h-219l-40 -91h-223z
M384 548l-121 -297h137z" />
    <glyph glyph-name="Aring" unicode="&#xc5;" horiz-adv-x="659" 
d="M420 0l-7 91h-219l-40 -91h-223l339 691q-20 32 -20 75q0 66 45.5 106.5t111.5 40.5t111.5 -40.5t45.5 -106.5q0 -49 -26 -84l94 -682h-212zM407 809q-17 0 -28 -11.5t-11 -31.5t11 -31.5t28 -11.5t28 11.5t11 31.5t-11 31.5t-28 11.5zM400 251l-16 297l-121 -297h137z
" />
    <glyph glyph-name="AE" unicode="&#xc6;" horiz-adv-x="923" 
d="M946 700l-30 -168h-292l-3 -95h257l-28 -160h-233l-3 -109h287l-30 -168h-475l5 91h-210l-46 -91h-224l399 700h626zM424 547l-151 -296h135z" />
    <glyph glyph-name="Ccedilla" unicode="&#xc7;" horiz-adv-x="739" 
d="M365 151q54 0 88.5 26.5t66.5 83.5l194 -59q-92 -191 -308 -217l-5 -27q103 -10 103 -95q0 -57 -50 -89.5t-136 -32.5q-85 0 -152 36l56 87q43 -19 84 -19q44 0 44 26q0 16 -21.5 21.5t-76.5 5.5l26 88q-110 17 -180 91t-70 201q0 187 116 314t297 127q112 0 192 -52.5
t113 -160.5l-199 -51q-25 94 -126 94q-82 0 -127.5 -77t-45.5 -180q0 -68 31 -104.5t86 -36.5z" />
    <glyph glyph-name="Egrave" unicode="&#xc8;" horiz-adv-x="588" 
d="M466 753h-138l-198 168h231zM601 532h-294l-17 -95h273l-28 -160h-273l-19 -109h303l-30 -168h-515l124 700h506z" />
    <glyph glyph-name="Eacute" unicode="&#xc9;" horiz-adv-x="588" 
d="M653 921l-203 -168h-146l110 168h239zM1 0l124 700h506l-30 -168h-294l-17 -95h273l-28 -160h-273l-19 -109h303l-30 -168h-515z" />
    <glyph glyph-name="Ecircumflex" unicode="&#xca;" horiz-adv-x="588" 
d="M401 820l-82 -67h-184l172 165h206l112 -165h-168zM601 532h-294l-17 -95h273l-28 -160h-273l-19 -109h303l-30 -168h-515l124 700h506z" />
    <glyph glyph-name="Edieresis" unicode="&#xcb;" horiz-adv-x="588" 
d="M269 764q-41 0 -71.5 30t-30.5 70q0 41 30.5 70.5t71.5 29.5t71 -29.5t30 -70.5q0 -40 -30 -70t-71 -30zM533 764q-41 0 -71 30t-30 70q0 41 30 70.5t71 29.5t71.5 -29.5t30.5 -70.5q0 -40 -30.5 -70t-71.5 -30zM1 0l124 700h506l-30 -168h-294l-17 -95h273l-28 -160
h-273l-19 -109h303l-30 -168h-515z" />
    <glyph glyph-name="Igrave" unicode="&#xcc;" horiz-adv-x="310" 
d="M215 921l105 -168h-138l-198 168h231zM337 700l-124 -700h-212l124 700h212z" />
    <glyph glyph-name="Iacute" unicode="&#xcd;" horiz-adv-x="310" 
d="M507 921l-203 -168h-146l110 168h239zM337 700l-124 -700h-212l124 700h212z" />
    <glyph glyph-name="Icircumflex" unicode="&#xce;" horiz-adv-x="310" 
d="M-11 753l172 165h206l112 -165h-168l-56 67l-82 -67h-184zM337 700l-124 -700h-212l124 700h212z" />
    <glyph glyph-name="Idieresis" unicode="&#xcf;" horiz-adv-x="310" 
d="M123 964q41 0 71 -29.5t30 -70.5q0 -40 -30 -70t-71 -30t-71.5 30t-30.5 70q0 41 30.5 70.5t71.5 29.5zM387 964q41 0 71.5 -29.5t30.5 -70.5q0 -40 -30.5 -70t-71.5 -30t-71 30t-30 70q0 41 30 70.5t71 29.5zM337 700l-124 -700h-212l124 700h212z" />
    <glyph glyph-name="Eth" unicode="&#xd0;" horiz-adv-x="736" 
d="M385 700q70 0 130 -15t110.5 -47t79.5 -89t29 -135q0 -187 -109.5 -300.5t-304.5 -113.5h-299l52 295h-60l25 141h60l47 264h240zM335 164q45 0 80.5 20t56.5 54t31.5 74.5t10.5 84.5q0 73 -34 106t-112 33h-40l-18 -100h117l-25 -141h-117l-23 -131h73z" />
    <glyph glyph-name="Ntilde" unicode="&#xd1;" horiz-adv-x="731" 
d="M371 919q46 0 89.5 -22t51.5 -22q26 0 43 30h102q-8 -73 -50.5 -114t-99.5 -41q-46 0 -90 22t-52 22q-26 0 -43 -30h-101q12 75 51.5 115t98.5 40zM758 700l-124 -700h-256l-118 407l-71 -407h-188l124 700h261l112 -413l72 413h188z" />
    <glyph glyph-name="Ograve" unicode="&#xd2;" horiz-adv-x="788" 
d="M441 921l105 -168h-138l-198 168h231zM452 719q67 0 124 -16.5t105.5 -51.5t76 -97t27.5 -145q0 -184 -115 -306.5t-308 -122.5q-65 0 -123 19t-105 56t-74.5 98.5t-27.5 139.5q0 190 112 308t308 118zM437 549q-91 0 -138.5 -72t-47.5 -170q0 -157 127 -157q62 0 106 39
t63 92t19 110q0 83 -31 120.5t-98 37.5z" />
    <glyph glyph-name="Oacute" unicode="&#xd3;" horiz-adv-x="788" 
d="M733 921l-203 -168h-146l110 168h239zM452 719q67 0 124 -16.5t105.5 -51.5t76 -97t27.5 -145q0 -184 -115 -306.5t-308 -122.5q-65 0 -123 19t-105 56t-74.5 98.5t-27.5 139.5q0 190 112 308t308 118zM437 549q-91 0 -138.5 -72t-47.5 -170q0 -157 127 -157q62 0 106 39
t63 92t19 110q0 83 -31 120.5t-98 37.5z" />
    <glyph glyph-name="Ocircumflex" unicode="&#xd4;" horiz-adv-x="788" 
d="M215 753l172 165h206l112 -165h-168l-56 67l-82 -67h-184zM452 719q67 0 124 -16.5t105.5 -51.5t76 -97t27.5 -145q0 -184 -115 -306.5t-308 -122.5q-65 0 -123 19t-105 56t-74.5 98.5t-27.5 139.5q0 190 112 308t308 118zM437 549q-91 0 -138.5 -72t-47.5 -170
q0 -157 127 -157q62 0 106 39t63 92t19 110q0 83 -31 120.5t-98 37.5z" />
    <glyph glyph-name="Otilde" unicode="&#xd5;" horiz-adv-x="788" 
d="M397 919q46 0 89.5 -22t51.5 -22q26 0 43 30h102q-8 -73 -50.5 -114t-99.5 -41q-46 0 -90 22t-52 22q-26 0 -43 -30h-101q12 75 51.5 115t98.5 40zM452 719q67 0 124 -16.5t105.5 -51.5t76 -97t27.5 -145q0 -184 -115 -306.5t-308 -122.5q-65 0 -123 19t-105 56
t-74.5 98.5t-27.5 139.5q0 190 112 308t308 118zM437 549q-91 0 -138.5 -72t-47.5 -170q0 -157 127 -157q62 0 106 39t63 92t19 110q0 83 -31 120.5t-98 37.5z" />
    <glyph glyph-name="Odieresis" unicode="&#xd6;" horiz-adv-x="788" 
d="M349 964q41 0 71 -29.5t30 -70.5q0 -40 -30 -70t-71 -30t-71.5 30t-30.5 70q0 41 30.5 70.5t71.5 29.5zM613 964q41 0 71.5 -29.5t30.5 -70.5q0 -40 -30.5 -70t-71.5 -30t-71 30t-30 70q0 41 30 70.5t71 29.5zM452 719q67 0 124 -16.5t105.5 -51.5t76 -97t27.5 -145
q0 -184 -115 -306.5t-308 -122.5q-65 0 -123 19t-105 56t-74.5 98.5t-27.5 139.5q0 190 112 308t308 118zM437 549q-91 0 -138.5 -72t-47.5 -170q0 -157 127 -157q62 0 106 39t63 92t19 110q0 83 -31 120.5t-98 37.5z" />
    <glyph glyph-name="multiply" unicode="&#xd7;" horiz-adv-x="660" 
d="M474 536l115 -115l-145 -144l145 -143l-115 -115l-143 144l-144 -144l-115 115l145 143l-145 144l115 115l144 -145z" />
    <glyph glyph-name="Oslash" unicode="&#xd8;" horiz-adv-x="788" 
d="M840 759l-120 -145q65 -78 65 -205q0 -184 -115 -306.5t-308 -122.5q-74 0 -138 24l-75 -94h-176l138 167q-79 82 -79 216q0 190 112 308t308 118q89 0 157 -27l55 67h176zM437 549q-91 0 -138.5 -72t-47.5 -170q0 -51 5 -78l251 310q-26 10 -70 10zM378 150q62 0 106 39
t63 92t19 110q0 33 -3 58l-239 -294q25 -5 54 -5z" />
    <glyph glyph-name="Ugrave" unicode="&#xd9;" horiz-adv-x="722" 
d="M418 921l105 -168h-138l-198 168h231zM754 700l-75 -420q-26 -148 -108 -224t-235 -76q-137 0 -216.5 65t-79.5 179q0 29 7 65l73 411h212l-73 -411q-6 -31 -6 -51q0 -88 93 -88q56 0 83 31.5t39 99.5l74 419h212z" />
    <glyph glyph-name="Uacute" unicode="&#xda;" horiz-adv-x="722" 
d="M710 921l-203 -168h-146l110 168h239zM754 700l-75 -420q-26 -148 -108 -224t-235 -76q-137 0 -216.5 65t-79.5 179q0 29 7 65l73 411h212l-73 -411q-6 -31 -6 -51q0 -88 93 -88q56 0 83 31.5t39 99.5l74 419h212z" />
    <glyph glyph-name="Ucircumflex" unicode="&#xdb;" horiz-adv-x="722" 
d="M192 753l172 165h206l112 -165h-168l-56 67l-82 -67h-184zM754 700l-75 -420q-26 -148 -108 -224t-235 -76q-137 0 -216.5 65t-79.5 179q0 29 7 65l73 411h212l-73 -411q-6 -31 -6 -51q0 -88 93 -88q56 0 83 31.5t39 99.5l74 419h212z" />
    <glyph glyph-name="Udieresis" unicode="&#xdc;" horiz-adv-x="722" 
d="M326 964q41 0 71 -29.5t30 -70.5q0 -40 -30 -70t-71 -30t-71.5 30t-30.5 70q0 41 30.5 70.5t71.5 29.5zM590 964q41 0 71.5 -29.5t30.5 -70.5q0 -40 -30.5 -70t-71.5 -30t-71 30t-30 70q0 41 30 70.5t71 29.5zM754 700l-75 -420q-26 -148 -108 -224t-235 -76
q-137 0 -216.5 65t-79.5 179q0 29 7 65l73 411h212l-73 -411q-6 -31 -6 -51q0 -88 93 -88q56 0 83 31.5t39 99.5l74 419h212z" />
    <glyph glyph-name="Yacute" unicode="&#xdd;" horiz-adv-x="604" 
d="M658 921l-203 -168h-146l110 168h239zM721 700l-315 -439l-47 -261h-210l48 270l-162 430h233l57 -269l157 269h239z" />
    <glyph glyph-name="Thorn" unicode="&#xde;" horiz-adv-x="661" 
d="M372 589q149 0 223.5 -53t74.5 -165q0 -132 -96.5 -204.5t-258.5 -72.5h-85l-17 -94h-212l124 700h212l-20 -111h55zM330 257q56 0 87.5 26t31.5 70q0 69 -78 69h-83l-29 -165h71z" />
    <glyph glyph-name="germandbls" unicode="&#xdf;" horiz-adv-x="643" 
d="M385 -14q-90 0 -165 42l77 127q25 -17 64 -17q27 0 42.5 14t15.5 37q0 20 -12.5 37.5t-30.5 31l-36 28t-30.5 36t-12.5 48.5q0 29 17 54.5t37 39.5t37 32.5t17 36.5q0 40 -50 40q-34 0 -51.5 -22t-26.5 -69l-85 -482h-201l86 482q20 115 94.5 176t196.5 61
q116 0 174.5 -42.5t58.5 -112.5q0 -33 -16.5 -59.5t-35.5 -40t-35.5 -31.5t-16.5 -36q0 -17 14 -31.5t33.5 -27t39.5 -28.5t34 -46t14 -71q0 -91 -69.5 -149t-177.5 -58z" />
    <glyph glyph-name="agrave" unicode="&#xe0;" horiz-adv-x="571" 
d="M313 761l105 -168h-138l-198 168h231zM326 557q230 0 230 -159q0 -20 -5 -50l-40 -226q-9 -54 -9 -79q0 -18 5 -43h-192q-12 25 -9 52q-56 -66 -155 -66q-74 0 -116 39.5t-42 107.5q0 176 269 209l89 11l3 16q3 18 3 23q0 18 -10 26t-34 8q-53 0 -60 -50h-199
q31 181 272 181zM332 240l-45 -7q-47 -7 -67 -23.5t-20 -44.5q0 -34 41 -34q32 0 55 20t29 51z" />
    <glyph glyph-name="aacute" unicode="&#xe1;" horiz-adv-x="571" 
d="M608 761l-215 -168h-138l117 168h236zM326 557q230 0 230 -159q0 -20 -5 -50l-40 -226q-9 -54 -9 -79q0 -18 5 -43h-192q-12 25 -9 52q-56 -66 -155 -66q-74 0 -116 39.5t-42 107.5q0 176 269 209l89 11l3 16q3 18 3 23q0 18 -10 26t-34 8q-53 0 -60 -50h-199
q31 181 272 181zM332 240l-45 -7q-47 -7 -67 -23.5t-20 -44.5q0 -34 41 -34q32 0 55 20t29 51z" />
    <glyph glyph-name="acircumflex" unicode="&#xe2;" horiz-adv-x="571" 
d="M90 605l172 168h206l112 -168h-168l-56 70l-82 -70h-184zM326 557q230 0 230 -159q0 -20 -5 -50l-40 -226q-9 -54 -9 -79q0 -18 5 -43h-192q-12 25 -9 52q-56 -66 -155 -66q-74 0 -116 39.5t-42 107.5q0 176 269 209l89 11l3 16q3 18 3 23q0 18 -10 26t-34 8
q-53 0 -60 -50h-199q31 181 272 181zM332 240l-45 -7q-47 -7 -67 -23.5t-20 -44.5q0 -34 41 -34q32 0 55 20t29 51z" />
    <glyph glyph-name="atilde" unicode="&#xe3;" horiz-adv-x="571" 
d="M276 759q46 0 89.5 -22t51.5 -22q26 0 43 30h102q-8 -73 -50.5 -114t-99.5 -41q-46 0 -90 22t-52 22q-26 0 -43 -30h-101q12 75 51.5 115t98.5 40zM326 557q230 0 230 -159q0 -20 -5 -50l-40 -226q-9 -54 -9 -79q0 -18 5 -43h-192q-12 25 -9 52q-56 -66 -155 -66
q-74 0 -116 39.5t-42 107.5q0 176 269 209l89 11l3 16q3 18 3 23q0 18 -10 26t-34 8q-53 0 -60 -50h-199q31 181 272 181zM332 240l-45 -7q-47 -7 -67 -23.5t-20 -44.5q0 -34 41 -34q32 0 55 20t29 51z" />
    <glyph glyph-name="adieresis" unicode="&#xe4;" horiz-adv-x="571" 
d="M211 804q41 0 71 -29.5t30 -70.5q0 -40 -30 -70t-71 -30t-71.5 30t-30.5 70q0 41 30.5 70.5t71.5 29.5zM475 804q41 0 71.5 -29.5t30.5 -70.5q0 -40 -30.5 -70t-71.5 -30t-71 30t-30 70q0 41 30 70.5t71 29.5zM326 557q230 0 230 -159q0 -20 -5 -50l-40 -226
q-9 -54 -9 -79q0 -18 5 -43h-192q-12 25 -9 52q-56 -66 -155 -66q-74 0 -116 39.5t-42 107.5q0 176 269 209l89 11l3 16q3 18 3 23q0 18 -10 26t-34 8q-53 0 -60 -50h-199q31 181 272 181zM332 240l-45 -7q-47 -7 -67 -23.5t-20 -44.5q0 -34 41 -34q32 0 55 20t29 51z" />
    <glyph glyph-name="aring" unicode="&#xe5;" horiz-adv-x="571" 
d="M360 881q66 0 111.5 -40.5t45.5 -106.5t-45.5 -106.5t-111.5 -40.5t-111.5 40.5t-45.5 106.5t45.5 106.5t111.5 40.5zM360 777q-17 0 -28 -11.5t-11 -31.5t11 -31.5t28 -11.5t28 11.5t11 31.5t-11 31.5t-28 11.5zM326 557q230 0 230 -159q0 -20 -5 -50l-40 -226
q-9 -54 -9 -79q0 -18 5 -43h-192q-12 25 -9 52q-56 -66 -155 -66q-74 0 -116 39.5t-42 107.5q0 176 269 209l89 11l3 16q3 18 3 23q0 18 -10 26t-34 8q-53 0 -60 -50h-199q31 181 272 181zM332 240l-45 -7q-47 -7 -67 -23.5t-20 -44.5q0 -34 41 -34q32 0 55 20t29 51z" />
    <glyph glyph-name="ae" unicode="&#xe6;" horiz-adv-x="896" 
d="M642 557q112 0 180 -61.5t68 -172.5q0 -33 -6 -69l-6 -34h-362v-3q0 -85 82 -85q69 0 116 59l146 -73q-53 -66 -119.5 -99t-164.5 -33q-136 0 -197 89q-82 -89 -215 -89q-83 0 -127 39t-44 108q0 178 269 209l97 11q11 29 20 46q-12 27 -56 27q-36 0 -51 -11.5t-19 -38.5
h-199q31 181 266 181q114 0 152 -53q75 53 170 53zM696 332q2 16 2 25q0 66 -75 66q-71 0 -95 -91h168zM241 131q65 0 100 55q-3 22 -3 46v8l-51 -7q-87 -11 -87 -68q0 -34 41 -34z" />
    <glyph glyph-name="ccedilla" unicode="&#xe7;" horiz-adv-x="572" 
d="M295 138q33 0 54 19t37 54l170 -64q-77 -136 -225 -157l-6 -32q103 -10 103 -95q0 -57 -50 -89.5t-136 -32.5q-85 0 -152 36l56 87q43 -19 84 -19q44 0 44 26q0 16 -21.5 21.5t-76.5 5.5l28 94q-95 16 -145.5 77.5t-50.5 156.5q0 139 93 235t237 96q182 0 248 -157
l-174 -59q-16 64 -76 64q-59 0 -87.5 -50t-28.5 -115q0 -102 75 -102z" />
    <glyph glyph-name="egrave" unicode="&#xe8;" horiz-adv-x="595" 
d="M420 593h-138l-198 168h231zM336 557q116 0 184.5 -61.5t68.5 -172.5q0 -33 -6 -69l-6 -34h-368v-3q0 -85 88 -85q69 0 116 59l146 -73q-105 -132 -283 -132q-120 0 -193.5 66.5t-73.5 179.5q0 136 91 230.5t236 94.5zM395 332q2 16 2 25q0 66 -75 66q-72 0 -99 -91h172z
" />
    <glyph glyph-name="eacute" unicode="&#xe9;" horiz-adv-x="595" 
d="M610 761l-215 -168h-138l117 168h236zM336 557q116 0 184.5 -61.5t68.5 -172.5q0 -33 -6 -69l-6 -34h-368v-3q0 -85 88 -85q69 0 116 59l146 -73q-105 -132 -283 -132q-120 0 -193.5 66.5t-73.5 179.5q0 136 91 230.5t236 94.5zM395 332q2 16 2 25q0 66 -75 66
q-72 0 -99 -91h172z" />
    <glyph glyph-name="ecircumflex" unicode="&#xea;" horiz-adv-x="595" 
d="M358 675l-82 -70h-184l172 168h206l112 -168h-168zM336 557q116 0 184.5 -61.5t68.5 -172.5q0 -33 -6 -69l-6 -34h-368v-3q0 -85 88 -85q69 0 116 59l146 -73q-105 -132 -283 -132q-120 0 -193.5 66.5t-73.5 179.5q0 136 91 230.5t236 94.5zM395 332q2 16 2 25
q0 66 -75 66q-72 0 -99 -91h172z" />
    <glyph glyph-name="edieresis" unicode="&#xeb;" horiz-adv-x="595" 
d="M213 604q-41 0 -71.5 30t-30.5 70q0 41 30.5 70.5t71.5 29.5t71 -29.5t30 -70.5q0 -40 -30 -70t-71 -30zM477 604q-41 0 -71 30t-30 70q0 41 30 70.5t71 29.5t71.5 -29.5t30.5 -70.5q0 -40 -30.5 -70t-71.5 -30zM336 557q116 0 184.5 -61.5t68.5 -172.5q0 -33 -6 -69
l-6 -34h-368v-3q0 -85 88 -85q69 0 116 59l146 -73q-105 -132 -283 -132q-120 0 -193.5 66.5t-73.5 179.5q0 136 91 230.5t236 94.5zM395 332q2 16 2 25q0 66 -75 66q-72 0 -99 -91h172z" />
    <glyph glyph-name="igrave" unicode="&#xec;" horiz-adv-x="278" 
d="M166 760l105 -168h-138l-198 168h231zM287 542l-96 -542h-200l96 542h200z" />
    <glyph glyph-name="iacute" unicode="&#xed;" horiz-adv-x="278" 
d="M461 760l-215 -168h-138l117 168h236zM287 542l-96 -542h-200l96 542h200z" />
    <glyph glyph-name="icircumflex" unicode="&#xee;" horiz-adv-x="278" 
d="M-57 604l172 168h206l112 -168h-168l-56 70l-82 -70h-184zM287 542l-96 -542h-200l96 542h200z" />
    <glyph glyph-name="idieresis" unicode="&#xef;" horiz-adv-x="278" 
d="M64 803q41 0 71 -29.5t30 -70.5q0 -40 -30 -70t-71 -30t-71.5 30t-30.5 70q0 41 30.5 70.5t71.5 29.5zM328 803q41 0 71.5 -29.5t30.5 -70.5q0 -40 -30.5 -70t-71.5 -30t-71 30t-30 70q0 41 30 70.5t71 29.5zM287 542l-96 -542h-200l96 542h200z" />
    <glyph glyph-name="eth" unicode="&#xf0;" horiz-adv-x="622" 
d="M537 606q82 -104 82 -253q0 -160 -92.5 -265.5t-265.5 -105.5q-117 0 -188 58t-71 161q0 105 75.5 182t186.5 77q112 0 166 -68q0 12 -2 29q-7 59 -55 121l-128 -50l-22 74l94 36q-54 51 -130 98h236q29 -16 54 -36l113 44l22 -73zM290 134q41 0 67 28t26 74
q0 33 -20 53.5t-50 20.5q-48 0 -75 -28t-27 -74q0 -34 20.5 -54t58.5 -20z" />
    <glyph glyph-name="ntilde" unicode="&#xf1;" horiz-adv-x="614" 
d="M317 759q46 0 89.5 -22t51.5 -22q26 0 43 30h102q-8 -73 -50.5 -114t-99.5 -41q-46 0 -90 22t-52 22q-26 0 -43 -30h-101q12 75 51.5 115t98.5 40zM442 557q71 0 114.5 -39.5t43.5 -110.5q0 -24 -14 -103l-54 -304h-200l48 267q10 57 10 78q0 45 -49 45q-37 0 -64 -27.5
t-35 -74.5l-51 -288h-200l96 542h190l-13 -75q68 90 178 90z" />
    <glyph glyph-name="ograve" unicode="&#xf2;" horiz-adv-x="640" 
d="M335 761l105 -168h-138l-198 168h231zM350 557q130 0 205 -69.5t75 -188.5q0 -135 -94 -224t-246 -89q-133 0 -206.5 68t-73.5 188q0 135 95 225t245 90zM342 405q-61 0 -90 -51t-29 -120q0 -96 76 -96q59 0 89.5 53t30.5 120q0 94 -77 94z" />
    <glyph glyph-name="oacute" unicode="&#xf3;" horiz-adv-x="640" 
d="M630 761l-215 -168h-138l117 168h236zM350 557q130 0 205 -69.5t75 -188.5q0 -135 -94 -224t-246 -89q-133 0 -206.5 68t-73.5 188q0 135 95 225t245 90zM342 405q-61 0 -90 -51t-29 -120q0 -96 76 -96q59 0 89.5 53t30.5 120q0 94 -77 94z" />
    <glyph glyph-name="ocircumflex" unicode="&#xf4;" horiz-adv-x="640" 
d="M112 605l172 168h206l112 -168h-168l-56 70l-82 -70h-184zM350 557q130 0 205 -69.5t75 -188.5q0 -135 -94 -224t-246 -89q-133 0 -206.5 68t-73.5 188q0 135 95 225t245 90zM342 405q-61 0 -90 -51t-29 -120q0 -96 76 -96q59 0 89.5 53t30.5 120q0 94 -77 94z" />
    <glyph glyph-name="otilde" unicode="&#xf5;" horiz-adv-x="640" 
d="M298 759q46 0 89.5 -22t51.5 -22q26 0 43 30h102q-8 -73 -50.5 -114t-99.5 -41q-46 0 -90 22t-52 22q-26 0 -43 -30h-101q12 75 51.5 115t98.5 40zM350 557q130 0 205 -69.5t75 -188.5q0 -135 -94 -224t-246 -89q-133 0 -206.5 68t-73.5 188q0 135 95 225t245 90z
M342 405q-61 0 -90 -51t-29 -120q0 -96 76 -96q59 0 89.5 53t30.5 120q0 94 -77 94z" />
    <glyph glyph-name="odieresis" unicode="&#xf6;" horiz-adv-x="640" 
d="M233 804q41 0 71 -29.5t30 -70.5q0 -40 -30 -70t-71 -30t-71.5 30t-30.5 70q0 41 30.5 70.5t71.5 29.5zM497 804q41 0 71.5 -29.5t30.5 -70.5q0 -40 -30.5 -70t-71.5 -30t-71 30t-30 70q0 41 30 70.5t71 29.5zM350 557q130 0 205 -69.5t75 -188.5q0 -135 -94 -224
t-246 -89q-133 0 -206.5 68t-73.5 188q0 135 95 225t245 90zM342 405q-61 0 -90 -51t-29 -120q0 -96 76 -96q59 0 89.5 53t30.5 120q0 94 -77 94z" />
    <glyph glyph-name="divide" unicode="&#xf7;" 
d="M344 632q44 0 76.5 -32t32.5 -76t-32.5 -76.5t-76.5 -32.5t-77 32.5t-33 76.5t33 76t77 32zM554 389l-29 -161h-466l29 161h466zM267 201q44 0 76.5 -32t32.5 -76t-32.5 -76.5t-76.5 -32.5t-77 32.5t-33 76.5t33 76t77 32z" />
    <glyph glyph-name="oslash" unicode="&#xf8;" horiz-adv-x="640" 
d="M669 616l-103 -137q65 -67 65 -170q0 -141 -97.5 -232t-249.5 -91q-62 0 -110 16l-60 -82h-147l109 139q-67 65 -67 173q0 142 96 233.5t249 91.5q60 0 113 -17l58 76h144zM341 409q-61 0 -92.5 -53.5t-31.5 -121.5q0 -12 2 -32l157 202q-17 5 -35 5zM298 134
q60 0 94 55.5t34 121.5q0 13 -2 31l-159 -203q17 -5 33 -5z" />
    <glyph glyph-name="ugrave" unicode="&#xf9;" horiz-adv-x="608" 
d="M346 746l105 -168h-138l-198 168h231zM167 -15q-69 0 -110.5 40t-41.5 111q0 25 14 104l54 302h200l-48 -265q-10 -57 -10 -78q0 -47 49 -47q36 0 60 27t32 75l51 288h200l-96 -542h-190l13 69q-61 -84 -177 -84z" />
    <glyph glyph-name="uacute" unicode="&#xfa;" horiz-adv-x="608" 
d="M641 746l-215 -168h-138l117 168h236zM167 -15q-69 0 -110.5 40t-41.5 111q0 25 14 104l54 302h200l-48 -265q-10 -57 -10 -78q0 -47 49 -47q36 0 60 27t32 75l51 288h200l-96 -542h-190l13 69q-61 -84 -177 -84z" />
    <glyph glyph-name="ucircumflex" unicode="&#xfb;" horiz-adv-x="608" 
d="M123 590l172 168h206l112 -168h-168l-56 70l-82 -70h-184zM167 -15q-69 0 -110.5 40t-41.5 111q0 25 14 104l54 302h200l-48 -265q-10 -57 -10 -78q0 -47 49 -47q36 0 60 27t32 75l51 288h200l-96 -542h-190l13 69q-61 -84 -177 -84z" />
    <glyph glyph-name="udieresis" unicode="&#xfc;" horiz-adv-x="608" 
d="M244 789q41 0 71 -29.5t30 -70.5q0 -40 -30 -70t-71 -30t-71.5 30t-30.5 70q0 41 30.5 70.5t71.5 29.5zM508 789q41 0 71.5 -29.5t30.5 -70.5q0 -40 -30.5 -70t-71.5 -30t-71 30t-30 70q0 41 30 70.5t71 29.5zM167 -15q-69 0 -110.5 40t-41.5 111q0 25 14 104l54 302h200
l-48 -265q-10 -57 -10 -78q0 -47 49 -47q36 0 60 27t32 75l51 288h200l-96 -542h-190l13 69q-61 -84 -177 -84z" />
    <glyph glyph-name="yacute" unicode="&#xfd;" horiz-adv-x="540" 
d="M595 761l-215 -168h-138l117 168h236zM609 542l-248 -541q-30 -65 -61.5 -106t-82 -67t-118.5 -26q-58 0 -107 8l23 132q37 -4 74 -4q41 0 59 11t30 51h-82l-74 542h222l-2 -410l138 410h229z" />
    <glyph glyph-name="thorn" unicode="&#xfe;" horiz-adv-x="634" 
d="M424 557q100 0 150.5 -64t50.5 -182q0 -81 -33.5 -155t-98 -122t-145.5 -48q-97 0 -150 56l-37 -216h-200l154 874h200l-35 -197q58 54 144 54zM295 138q56 0 87.5 54t30.5 126q-3 87 -76 87q-55 0 -86 -53.5t-31 -124.5q0 -89 75 -89z" />
    <glyph glyph-name="ydieresis" unicode="&#xff;" horiz-adv-x="540" 
d="M198 804q41 0 71 -29.5t30 -70.5q0 -40 -30 -70t-71 -30t-71.5 30t-30.5 70q0 41 30.5 70.5t71.5 29.5zM462 804q41 0 71.5 -29.5t30.5 -70.5q0 -40 -30.5 -70t-71.5 -30t-71 30t-30 70q0 41 30 70.5t71 29.5zM609 542l-248 -541q-30 -65 -61.5 -106t-82 -67t-118.5 -26
q-58 0 -107 8l23 132q37 -4 74 -4q41 0 59 11t30 51h-82l-74 542h222l-2 -410l138 410h229z" />
    <glyph glyph-name="Amacron" unicode="&#x100;" horiz-adv-x="659" 
d="M633 910l-23 -132h-396l23 132h396zM274 700h262l96 -700h-212l-7 91h-219l-40 -91h-223zM384 548l-121 -297h137z" />
    <glyph glyph-name="amacron" unicode="&#x101;" horiz-adv-x="571" 
d="M558 750l-23 -132h-396l23 132h396zM326 557q230 0 230 -159q0 -20 -5 -50l-40 -226q-9 -54 -9 -79q0 -18 5 -43h-192q-12 25 -9 52q-56 -66 -155 -66q-74 0 -116 39.5t-42 107.5q0 176 269 209l89 11l3 16q3 18 3 23q0 18 -10 26t-34 8q-53 0 -60 -50h-199
q31 181 272 181zM332 240l-45 -7q-47 -7 -67 -23.5t-20 -44.5q0 -34 41 -34q32 0 55 20t29 51z" />
    <glyph glyph-name="Abreve" unicode="&#x102;" horiz-adv-x="659" 
d="M425 765q-173 0 -183 176h113q3 -51 74 -51q70 0 90 51h117q-24 -84 -77.5 -130t-133.5 -46zM274 700h262l96 -700h-212l-7 91h-219l-40 -91h-223zM384 548l-121 -297h137z" />
    <glyph glyph-name="abreve" unicode="&#x103;" horiz-adv-x="571" 
d="M556 773q-51 -176 -215 -176q-85 0 -132 46.5t-47 129.5h112q0 -51 76 -51q38 0 57 12.5t31 38.5h118zM326 557q230 0 230 -159q0 -20 -5 -50l-40 -226q-9 -54 -9 -79q0 -18 5 -43h-192q-12 25 -9 52q-56 -66 -155 -66q-74 0 -116 39.5t-42 107.5q0 176 269 209l89 11
l3 16q3 18 3 23q0 18 -10 26t-34 8q-53 0 -60 -50h-199q31 181 272 181zM332 240l-45 -7q-47 -7 -67 -23.5t-20 -44.5q0 -34 41 -34q32 0 55 20t29 51z" />
    <glyph glyph-name="Aogonek" unicode="&#x104;" horiz-adv-x="659" 
d="M558 -157q22 0 36 4l29 -93q-39 -13 -88 -13q-86 0 -135 37.5t-49 100.5q0 75 68 128l-6 84h-219l-40 -91h-223l343 700h262l96 -700q-72 -10 -106.5 -38.5t-34.5 -63.5q0 -55 67 -55zM384 548l-121 -297h137z" />
    <glyph glyph-name="aogonek" unicode="&#x105;" horiz-adv-x="571" 
d="M326 557q230 0 230 -159q0 -20 -5 -50l-40 -226q-9 -54 -9 -79q0 -18 5 -43q-72 -10 -106.5 -38.5t-34.5 -63.5q0 -55 67 -55q22 0 36 4l29 -93q-39 -13 -88 -13q-86 0 -135 37.5t-49 100.5q0 40 23 77t60 62q-5 15 -3 34q-56 -66 -155 -66q-74 0 -116 39.5t-42 107.5
q0 176 269 209l89 11l3 16q3 18 3 23q0 18 -10 26t-34 8q-53 0 -60 -50h-199q31 181 272 181zM241 131q32 0 55 20t29 51l7 38l-45 -7q-47 -7 -67 -23.5t-20 -44.5q0 -34 41 -34z" />
    <glyph glyph-name="Cacute" unicode="&#x106;" horiz-adv-x="739" 
d="M733 921l-203 -168h-146l110 168h239zM441 719q112 0 192 -52.5t113 -160.5l-199 -51q-25 94 -126 94q-82 0 -127.5 -77t-45.5 -180q0 -68 31 -104.5t86 -36.5q54 0 88.5 26.5t66.5 83.5l194 -59q-107 -221 -374 -221q-84 0 -152.5 30t-114 99t-45.5 168q0 187 116 314
t297 127z" />
    <glyph glyph-name="cacute" unicode="&#x107;" horiz-adv-x="572" 
d="M615 761l-215 -168h-138l117 168h236zM338 557q182 0 248 -157l-174 -59q-16 64 -76 64q-59 0 -87.5 -50t-28.5 -115q0 -102 75 -102q33 0 54 19t37 54l170 -64q-91 -161 -281 -161q-128 0 -197.5 64t-69.5 176q0 139 93 235t237 96z" />
    <glyph glyph-name="Ccircumflex" unicode="&#x108;" horiz-adv-x="739" 
d="M215 753l172 165h206l112 -165h-168l-56 67l-82 -67h-184zM441 719q112 0 192 -52.5t113 -160.5l-199 -51q-25 94 -126 94q-82 0 -127.5 -77t-45.5 -180q0 -68 31 -104.5t86 -36.5q54 0 88.5 26.5t66.5 83.5l194 -59q-107 -221 -374 -221q-84 0 -152.5 30t-114 99
t-45.5 168q0 187 116 314t297 127z" />
    <glyph glyph-name="ccircumflex" unicode="&#x109;" horiz-adv-x="572" 
d="M97 605l172 168h206l112 -168h-168l-56 70l-82 -70h-184zM338 557q182 0 248 -157l-174 -59q-16 64 -76 64q-59 0 -87.5 -50t-28.5 -115q0 -102 75 -102q33 0 54 19t37 54l170 -64q-91 -161 -281 -161q-128 0 -197.5 64t-69.5 176q0 139 93 235t237 96z" />
    <glyph glyph-name="Cdotaccent" unicode="&#x10a;" horiz-adv-x="739" 
d="M481 994q45 0 77.5 -29.5t32.5 -73.5q0 -43 -32.5 -73t-77.5 -30q-44 0 -77 30t-33 73t33 73t77 30zM441 719q112 0 192 -52.5t113 -160.5l-199 -51q-25 94 -126 94q-82 0 -127.5 -77t-45.5 -180q0 -68 31 -104.5t86 -36.5q54 0 88.5 26.5t66.5 83.5l194 -59
q-107 -221 -374 -221q-84 0 -152.5 30t-114 99t-45.5 168q0 187 116 314t297 127z" />
    <glyph glyph-name="cdotaccent" unicode="&#x10b;" horiz-adv-x="572" 
d="M361 807q45 0 77.5 -29.5t32.5 -73.5q0 -43 -32.5 -73t-77.5 -30q-44 0 -77 30t-33 73t33 73t77 30zM338 557q182 0 248 -157l-174 -59q-16 64 -76 64q-59 0 -87.5 -50t-28.5 -115q0 -102 75 -102q33 0 54 19t37 54l170 -64q-91 -161 -281 -161q-128 0 -197.5 64
t-69.5 176q0 139 93 235t237 96z" />
    <glyph glyph-name="Ccaron" unicode="&#x10c;" horiz-adv-x="739" 
d="M742 928l-172 -165h-206l-112 165h171l58 -60l80 60h181zM441 719q112 0 192 -52.5t113 -160.5l-199 -51q-25 94 -126 94q-82 0 -127.5 -77t-45.5 -180q0 -68 31 -104.5t86 -36.5q54 0 88.5 26.5t66.5 83.5l194 -59q-107 -221 -374 -221q-84 0 -152.5 30t-114 99
t-45.5 168q0 187 116 314t297 127z" />
    <glyph glyph-name="ccaron" unicode="&#x10d;" horiz-adv-x="572" 
d="M612 773l-172 -168h-206l-112 168h168l56 -70l82 70h184zM338 557q182 0 248 -157l-174 -59q-16 64 -76 64q-59 0 -87.5 -50t-28.5 -115q0 -102 75 -102q33 0 54 19t37 54l170 -64q-91 -161 -281 -161q-128 0 -197.5 64t-69.5 176q0 139 93 235t237 96z" />
    <glyph glyph-name="Dcaron" unicode="&#x10e;" horiz-adv-x="716" 
d="M660 928l-172 -165h-206l-112 165h171l58 -60l80 60h181zM365 700q70 0 130 -15t110.5 -47t79.5 -89t29 -135q0 -187 -109.5 -300.5t-304.5 -113.5h-299l124 700h240zM348 536h-40l-66 -372h73q45 0 80.5 20t56.5 54t31.5 74.5t10.5 84.5q0 73 -34 106t-112 33z" />
    <glyph glyph-name="dcaron" unicode="&#x10f;" horiz-adv-x="746" 
d="M703 761h180l-102 -169h-108zM436 495l35 205h200l-124 -700h-190l8 45q-64 -59 -156 -59q-99 0 -150 62.5t-51 173.5q0 133 78 234t199 101q98 0 151 -62zM296 138q54 0 85.5 53.5t31.5 124.5q0 89 -75 89q-56 0 -88 -54t-30 -126q1 -87 76 -87z" />
    <glyph glyph-name="Dcroat" unicode="&#x110;" horiz-adv-x="736" 
d="M385 700q70 0 130 -15t110.5 -47t79.5 -89t29 -135q0 -187 -109.5 -300.5t-304.5 -113.5h-299l52 295h-60l25 141h60l47 264h240zM335 164q45 0 80.5 20t56.5 54t31.5 74.5t10.5 84.5q0 73 -34 106t-112 33h-40l-18 -100h117l-25 -141h-117l-23 -131h73z" />
    <glyph glyph-name="dcroat" unicode="&#x111;" horiz-adv-x="649" 
d="M725 667l-19 -106h-60l-99 -561h-190l8 45q-64 -59 -158 -59q-99 0 -150 62.5t-51 173.5q0 77 33.5 149.5t99 121.5t146.5 49q103 0 169 -69l14 88h-163l19 106h161l5 33h181l-6 -33h60zM296 138q54 0 85.5 53.5t31.5 124.5q0 34 -20 54t-55 20q-58 0 -90 -47.5
t-30 -117.5q1 -87 78 -87z" />
    <glyph glyph-name="Emacron" unicode="&#x112;" horiz-adv-x="588" 
d="M605 910l-23 -132h-396l23 132h396zM601 532h-294l-17 -95h273l-28 -160h-273l-19 -109h303l-30 -168h-515l124 700h506z" />
    <glyph glyph-name="emacron" unicode="&#x113;" horiz-adv-x="595" 
d="M560 750l-23 -132h-396l23 132h396zM336 557q116 0 184.5 -61.5t68.5 -172.5q0 -33 -6 -69l-6 -34h-368v-3q0 -85 88 -85q69 0 116 59l146 -73q-105 -132 -283 -132q-120 0 -193.5 66.5t-73.5 179.5q0 136 91 230.5t236 94.5zM395 332q2 16 2 25q0 66 -75 66
q-72 0 -99 -91h172z" />
    <glyph glyph-name="Ebreve" unicode="&#x114;" horiz-adv-x="588" 
d="M397 765q-173 0 -183 176h113q3 -51 74 -51q70 0 90 51h117q-24 -84 -77.5 -130t-133.5 -46zM601 532h-294l-17 -95h273l-28 -160h-273l-19 -109h303l-30 -168h-515l124 700h506z" />
    <glyph glyph-name="ebreve" unicode="&#x115;" horiz-adv-x="595" 
d="M343 597q-85 0 -132 46.5t-47 129.5h112q0 -51 76 -51q38 0 57 12.5t31 38.5h118q-51 -176 -215 -176zM336 557q116 0 184.5 -61.5t68.5 -172.5q0 -33 -6 -69l-6 -34h-368v-3q0 -85 88 -85q69 0 116 59l146 -73q-105 -132 -283 -132q-120 0 -193.5 66.5t-73.5 179.5
q0 136 91 230.5t236 94.5zM395 332q2 16 2 25q0 66 -75 66q-72 0 -99 -91h172z" />
    <glyph glyph-name="Edotaccent" unicode="&#x116;" horiz-adv-x="588" 
d="M401 788q-44 0 -77 30t-33 73t33 73t77 30q45 0 77.5 -29.5t32.5 -73.5q0 -43 -32.5 -73t-77.5 -30zM601 532h-294l-17 -95h273l-28 -160h-273l-19 -109h303l-30 -168h-515l124 700h506z" />
    <glyph glyph-name="edotaccent" unicode="&#x117;" horiz-adv-x="595" 
d="M356 601q-44 0 -77 30t-33 73t33 73t77 30q45 0 77.5 -29.5t32.5 -73.5q0 -43 -32.5 -73t-77.5 -30zM336 557q116 0 184.5 -61.5t68.5 -172.5q0 -33 -6 -69l-6 -34h-368v-3q0 -85 88 -85q69 0 116 59l146 -73q-105 -132 -283 -132q-120 0 -193.5 66.5t-73.5 179.5
q0 136 91 230.5t236 94.5zM395 332q2 16 2 25q0 66 -75 66q-72 0 -99 -91h172z" />
    <glyph glyph-name="Eogonek" unicode="&#x118;" horiz-adv-x="588" 
d="M601 532h-294l-17 -95h273l-28 -160h-273l-19 -109h303l-30 -168h-110q-79 -57 -79 -105q0 -45 51 -45q28 0 63 12l30 -96q-55 -25 -124 -25q-76 0 -121.5 32t-45.5 86q0 96 113 141h-292l124 700h506z" />
    <glyph glyph-name="eogonek" unicode="&#x119;" horiz-adv-x="595" 
d="M336 557q116 0 184.5 -61.5t68.5 -172.5q0 -33 -6 -69l-6 -34h-368v-3q0 -85 88 -85q69 0 116 59l146 -73q-52 -66 -117 -97q-103 -69 -103 -126q0 -45 51 -45q28 0 63 12l30 -96q-55 -25 -124 -25q-76 0 -121.5 32t-45.5 86q0 81 83 127q-119 0 -192.5 66.5t-73.5 179.5
q0 136 91 230.5t236 94.5zM395 332q2 16 2 25q0 66 -75 66q-72 0 -99 -91h172z" />
    <glyph glyph-name="Ecaron" unicode="&#x11a;" horiz-adv-x="588" 
d="M490 763h-206l-112 165h171l58 -60l80 60h181zM1 0l124 700h506l-30 -168h-294l-17 -95h273l-28 -160h-273l-19 -109h303l-30 -168h-515z" />
    <glyph glyph-name="ecaron" unicode="&#x11b;" horiz-adv-x="595" 
d="M435 605h-206l-112 168h168l56 -70l82 70h184zM336 557q116 0 184.5 -61.5t68.5 -172.5q0 -33 -6 -69l-6 -34h-368v-3q0 -85 88 -85q69 0 116 59l146 -73q-105 -132 -283 -132q-120 0 -193.5 66.5t-73.5 179.5q0 136 91 230.5t236 94.5zM395 332q2 16 2 25q0 66 -75 66
q-72 0 -99 -91h172z" />
    <glyph glyph-name="Gcircumflex" unicode="&#x11c;" horiz-adv-x="748" 
d="M203 753l172 165h206l112 -165h-168l-56 67l-82 -67h-184zM445 719q239 0 306 -191l-196 -63q-28 88 -125 88q-60 0 -102.5 -40.5t-61 -100t-18.5 -129.5q0 -137 117 -137q54 0 90 28t43 74l2 13h-121l25 141h333l-71 -402h-182l10 60q-72 -80 -191 -80q-117 0 -196 73
t-79 216q0 199 114.5 324.5t302.5 125.5z" />
    <glyph glyph-name="gcircumflex" unicode="&#x11d;" horiz-adv-x="610" 
d="M83 605l172 168h206l112 -168h-168l-56 70l-82 -70h-184zM220 -198q-103 0 -163.5 15.5t-82 40.5t-21.5 65q0 72 88 122q-33 23 -33 71q0 67 90 129q-60 42 -60 114q0 91 79.5 144.5t202.5 53.5q93 0 146 -29q64 76 192 78l-24 -154q-50 0 -83 -9q20 -27 20 -72
q0 -85 -76 -132.5t-191 -47.5q-73 0 -118 13q-15 -15 -15 -29q0 -25 63 -25h61q118 0 180.5 -42t62.5 -115q0 -191 -318 -191zM303 322q34 0 54 17.5t20 48.5q0 22 -16.5 35t-44.5 13q-34 0 -55 -18.5t-21 -46.5q0 -24 17 -36.5t46 -12.5zM219 -71q110 0 110 39q0 19 -16 26
t-50 7h-121q-22 -15 -22 -35t20 -28.5t79 -8.5z" />
    <glyph glyph-name="Gbreve" unicode="&#x11e;" horiz-adv-x="748" 
d="M676 941q-24 -84 -77.5 -130t-133.5 -46q-173 0 -183 176h113q3 -51 74 -51q70 0 90 51h117zM445 719q239 0 306 -191l-196 -63q-28 88 -125 88q-60 0 -102.5 -40.5t-61 -100t-18.5 -129.5q0 -137 117 -137q54 0 90 28t43 74l2 13h-121l25 141h333l-71 -402h-182l10 60
q-72 -80 -191 -80q-117 0 -196 73t-79 216q0 199 114.5 324.5t302.5 125.5z" />
    <glyph glyph-name="gbreve" unicode="&#x11f;" horiz-adv-x="610" 
d="M549 773q-51 -176 -215 -176q-85 0 -132 46.5t-47 129.5h112q0 -51 76 -51q38 0 57 12.5t31 38.5h118zM220 -198q-103 0 -163.5 15.5t-82 40.5t-21.5 65q0 72 88 122q-33 23 -33 71q0 67 90 129q-60 42 -60 114q0 91 79.5 144.5t202.5 53.5q93 0 146 -29q64 76 192 78
l-24 -154q-50 0 -83 -9q20 -27 20 -72q0 -85 -76 -132.5t-191 -47.5q-73 0 -118 13q-15 -15 -15 -29q0 -25 63 -25h61q118 0 180.5 -42t62.5 -115q0 -191 -318 -191zM303 322q34 0 54 17.5t20 48.5q0 22 -16.5 35t-44.5 13q-34 0 -55 -18.5t-21 -46.5q0 -24 17 -36.5
t46 -12.5zM219 -71q110 0 110 39q0 19 -16 26t-50 7h-121q-22 -15 -22 -35t20 -28.5t79 -8.5z" />
    <glyph glyph-name="Gdotaccent" unicode="&#x120;" horiz-adv-x="748" 
d="M469 994q45 0 77.5 -29.5t32.5 -73.5q0 -43 -32.5 -73t-77.5 -30q-44 0 -77 30t-33 73t33 73t77 30zM445 719q239 0 306 -191l-196 -63q-28 88 -125 88q-60 0 -102.5 -40.5t-61 -100t-18.5 -129.5q0 -137 117 -137q54 0 90 28t43 74l2 13h-121l25 141h333l-71 -402h-182
l10 60q-72 -80 -191 -80q-117 0 -196 73t-79 216q0 199 114.5 324.5t302.5 125.5z" />
    <glyph glyph-name="gdotaccent" unicode="&#x121;" horiz-adv-x="610" 
d="M347 807q45 0 77.5 -29.5t32.5 -73.5q0 -43 -32.5 -73t-77.5 -30q-44 0 -77 30t-33 73t33 73t77 30zM220 -198q-103 0 -163.5 15.5t-82 40.5t-21.5 65q0 72 88 122q-33 23 -33 71q0 67 90 129q-60 42 -60 114q0 91 79.5 144.5t202.5 53.5q93 0 146 -29q64 76 192 78
l-24 -154q-50 0 -83 -9q20 -27 20 -72q0 -85 -76 -132.5t-191 -47.5q-73 0 -118 13q-15 -15 -15 -29q0 -25 63 -25h61q118 0 180.5 -42t62.5 -115q0 -191 -318 -191zM303 322q34 0 54 17.5t20 48.5q0 22 -16.5 35t-44.5 13q-34 0 -55 -18.5t-21 -46.5q0 -24 17 -36.5
t46 -12.5zM219 -71q110 0 110 39q0 19 -16 26t-50 7h-121q-22 -15 -22 -35t20 -28.5t79 -8.5z" />
    <glyph glyph-name="uni0122" unicode="&#x122;" horiz-adv-x="748" 
d="M445 719q239 0 306 -191l-196 -63q-28 88 -125 88q-60 0 -102.5 -40.5t-61 -100t-18.5 -129.5q0 -137 117 -137q54 0 90 28t43 74l2 13h-121l25 141h333l-71 -402h-182l10 60q-72 -80 -191 -80q-117 0 -196 73t-79 216q0 199 114.5 324.5t302.5 125.5zM298 -51
q45 0 69 -26.5t24 -64.5q0 -50 -35.5 -106t-92.5 -105l-67 38q28 31 40.5 52.5t19.5 56.5q-47 28 -47 75q0 33 26 56.5t63 23.5z" />
    <glyph glyph-name="uni0123" unicode="&#x123;" horiz-adv-x="610" 
d="M348 591q-45 0 -69 26.5t-24 64.5q0 50 35.5 106t92.5 105l67 -38q-28 -31 -40.5 -52.5t-19.5 -56.5q47 -28 47 -75q0 -33 -26 -56.5t-63 -23.5zM220 -198q-103 0 -163.5 15.5t-82 40.5t-21.5 65q0 72 88 122q-33 23 -33 71q0 67 90 129q-60 42 -60 114q0 91 79.5 144.5
t202.5 53.5q93 0 146 -29q64 76 192 78l-24 -154q-50 0 -83 -9q20 -27 20 -72q0 -85 -76 -132.5t-191 -47.5q-73 0 -118 13q-15 -15 -15 -29q0 -25 63 -25h61q118 0 180.5 -42t62.5 -115q0 -191 -318 -191zM303 322q34 0 54 17.5t20 48.5q0 22 -16.5 35t-44.5 13
q-34 0 -55 -18.5t-21 -46.5q0 -24 17 -36.5t46 -12.5zM219 -71q110 0 110 39q0 19 -16 26t-50 7h-121q-22 -15 -22 -35t20 -28.5t79 -8.5z" />
    <glyph glyph-name="Hcircumflex" unicode="&#x124;" horiz-adv-x="732" 
d="M466 820l-82 -67h-184l172 165h206l112 -165h-168zM547 700h212l-124 -700h-212l49 279h-210l-49 -279h-212l124 700h212l-45 -253h210z" />
    <glyph glyph-name="hcircumflex" unicode="&#x125;" horiz-adv-x="614" 
d="M151 753l172 165h206l112 -165h-168l-56 67l-82 -67h-184zM-9 0l124 700h200l-40 -225q64 82 167 82q71 0 114.5 -39.5t43.5 -110.5q0 -24 -14 -103l-54 -304h-200l48 267q10 57 10 78q0 45 -49 45q-36 0 -63 -27t-35 -72l-52 -291h-200z" />
    <glyph glyph-name="Hbar" unicode="&#x126;" horiz-adv-x="774" 
d="M828 630l-19 -111h-67l-92 -519h-212l49 279h-210l-49 -279h-212l92 519h-55l19 111h56l12 70h212l-12 -70h210l12 70h212l-12 -70h66zM517 447l13 72h-210l-13 -72h210z" />
    <glyph glyph-name="hbar" unicode="&#x127;" horiz-adv-x="619" 
d="M444 542q71 0 114.5 -39.5t43.5 -110.5q0 -24 -14 -103l-51 -289h-200l45 252q10 57 10 78q0 45 -49 45q-36 0 -63 -27t-35 -72l-49 -276h-200l99 561h-60l19 106h60l6 33h200l-6 -33h144l-19 -106h-144l-18 -101q64 82 167 82z" />
    <glyph glyph-name="Itilde" unicode="&#x128;" horiz-adv-x="310" 
d="M171 919q46 0 89.5 -22t51.5 -22q26 0 43 30h102q-8 -73 -50.5 -114t-99.5 -41q-46 0 -90 22t-52 22q-26 0 -43 -30h-101q12 75 51.5 115t98.5 40zM337 700l-124 -700h-212l124 700h212z" />
    <glyph glyph-name="itilde" unicode="&#x129;" horiz-adv-x="278" 
d="M129 758q46 0 89.5 -22t51.5 -22q26 0 43 30h102q-8 -73 -50.5 -114t-99.5 -41q-46 0 -90 22t-52 22q-26 0 -43 -30h-101q12 75 51.5 115t98.5 40zM287 542l-96 -542h-200l96 542h200z" />
    <glyph glyph-name="Imacron" unicode="&#x12a;" horiz-adv-x="310" 
d="M459 910l-23 -132h-396l23 132h396zM337 700l-124 -700h-212l124 700h212z" />
    <glyph glyph-name="imacron" unicode="&#x12b;" horiz-adv-x="278" 
d="M411 749l-23 -132h-396l23 132h396zM287 542l-96 -542h-200l96 542h200z" />
    <glyph glyph-name="Ibreve" unicode="&#x12c;" horiz-adv-x="310" 
d="M462 941q-24 -84 -77.5 -130t-133.5 -46q-173 0 -183 176h113q3 -51 74 -51q70 0 90 51h117zM337 700l-124 -700h-212l124 700h212z" />
    <glyph glyph-name="ibreve" unicode="&#x12d;" horiz-adv-x="278" 
d="M409 772q-51 -176 -215 -176q-85 0 -132 46.5t-47 129.5h112q0 -51 76 -51q38 0 57 12.5t31 38.5h118zM287 542l-96 -542h-200l96 542h200z" />
    <glyph glyph-name="Iogonek" unicode="&#x12e;" horiz-adv-x="310" 
d="M213 0q-72 -10 -106.5 -38.5t-34.5 -63.5q0 -55 67 -55q22 0 36 4l29 -93q-39 -13 -88 -13q-86 0 -135 37.5t-49 100.5q0 76 71 130l122 691h212z" />
    <glyph glyph-name="iogonek" unicode="&#x12f;" horiz-adv-x="278" 
d="M207 806q45 0 77.5 -29.5t32.5 -73.5q0 -43 -32.5 -73t-77.5 -30q-44 0 -77 30t-33 73t33 73t77 30zM-6 19l93 523h200l-96 -542q-72 -10 -106.5 -38.5t-34.5 -63.5q0 -55 67 -55q22 0 36 4l29 -93q-39 -13 -88 -13q-86 0 -135 37.5t-49 100.5q0 41 23 78t61 62z" />
    <glyph glyph-name="Idotaccent" unicode="&#x130;" horiz-adv-x="310" 
d="M255 994q45 0 77.5 -29.5t32.5 -73.5q0 -43 -32.5 -73t-77.5 -30q-44 0 -77 30t-33 73t33 73t77 30zM337 700l-124 -700h-212l124 700h212z" />
    <glyph glyph-name="dotlessi" unicode="&#x131;" horiz-adv-x="280" 
d="M288 542l-96 -542h-200l96 542h200z" />
    <glyph glyph-name="IJ" unicode="&#x132;" horiz-adv-x="726" 
d="M337 700l-124 -700h-212l124 700h212zM758 700l-81 -457q-24 -135 -88.5 -196t-199.5 -61q-67 0 -122 15l38 169q35 -8 70 -8q46 0 64.5 20.5t27.5 72.5l79 445h212z" />
    <glyph glyph-name="ij" unicode="&#x133;" horiz-adv-x="559" 
d="M488 807q45 0 77.5 -29.5t32.5 -73.5q0 -43 -32.5 -73t-77.5 -30q-44 0 -77 30t-33 73t33 73t77 30zM207 806q45 0 77.5 -29.5t32.5 -73.5q0 -43 -32.5 -73t-77.5 -30q-44 0 -77 30t-33 73t33 73t77 30zM287 542l-96 -542h-200l96 542h200zM245 -198q-52 0 -97 9l24 138
q13 -1 26 -1q34 0 53 20.5t30 79.5l87 494h200l-95 -538q-19 -107 -74 -154.5t-154 -47.5z" />
    <glyph glyph-name="Jcircumflex" unicode="&#x134;" horiz-adv-x="414" 
d="M98 753l172 165h206l112 -165h-168l-56 67l-82 -67h-184zM446 700l-81 -457q-24 -135 -88.5 -196t-199.5 -61q-67 0 -122 15l38 169q35 -8 70 -8q46 0 64.5 20.5t27.5 72.5l79 445h212z" />
    <glyph glyph-name="jcircumflex" unicode="&#x135;" horiz-adv-x="279" 
d="M-56 605l172 168h206l112 -168h-168l-56 70l-82 -70h-184zM-35 -198q-52 0 -97 9l24 138q13 -1 26 -1q34 0 53 20.5t30 79.5l87 494h200l-95 -538q-19 -107 -74 -154.5t-154 -47.5z" />
    <glyph glyph-name="uni0136" unicode="&#x136;" horiz-adv-x="700" 
d="M797 700l-309 -290l195 -410h-236l-122 278l-75 -68l-37 -210h-212l124 700h212l-43 -241l251 241h252zM302 -51q45 0 69 -26.5t24 -64.5q0 -50 -35.5 -106t-92.5 -105l-67 38q28 31 40.5 52.5t19.5 56.5q-47 28 -47 75q0 33 26 56.5t63 23.5z" />
    <glyph glyph-name="uni0137" unicode="&#x137;" horiz-adv-x="612" 
d="M672 542l-235 -204l148 -338h-222l-83 214l-60 -51l-29 -163h-200l124 700h200l-57 -322l183 164h231zM252 -51q45 0 69 -26.5t24 -64.5q0 -50 -35.5 -106t-92.5 -105l-67 38q28 31 40.5 52.5t19.5 56.5q-47 28 -47 75q0 33 26 56.5t63 23.5z" />
    <glyph glyph-name="kgreenlandic" unicode="&#x138;" horiz-adv-x="612" 
d="M672 542l-235 -204l148 -338h-222l-83 214l-60 -51l-29 -163h-200l96 542h200l-29 -164l183 164h231z" />
    <glyph glyph-name="Lacute" unicode="&#x139;" horiz-adv-x="548" 
d="M504 921l-203 -168h-146l110 168h239zM337 700l-93 -523h288l-31 -177h-500l124 700h212z" />
    <glyph glyph-name="lacute" unicode="&#x13a;" horiz-adv-x="301" 
d="M486 921l-203 -168h-146l110 168h239zM310 700l-89 -503q-4 -20 -4 -35t8 -20t30 -5q9 0 19 1l-24 -135q-40 -11 -93 -11q-143 0 -143 137q0 26 9 80l87 491h200z" />
    <glyph glyph-name="uni013B" unicode="&#x13b;" horiz-adv-x="548" 
d="M337 700l-93 -523h288l-31 -177h-500l124 700h212zM230 -51q45 0 69 -26.5t24 -64.5q0 -50 -35.5 -106t-92.5 -105l-67 38q28 31 40.5 52.5t19.5 56.5q-47 28 -47 75q0 33 26 56.5t63 23.5z" />
    <glyph glyph-name="uni013C" unicode="&#x13c;" horiz-adv-x="301" 
d="M310 700l-89 -503q-4 -20 -4 -35t8 -20t30 -5q9 0 19 1l-24 -135q-40 -11 -93 -11q-143 0 -143 137q0 26 9 80l87 491h200zM107 -51q45 0 69 -26.5t24 -64.5q0 -50 -35.5 -106t-92.5 -105l-67 38q28 31 40.5 52.5t19.5 56.5q-47 28 -47 75q0 33 26 56.5t63 23.5z" />
    <glyph glyph-name="Lcaron" unicode="&#x13d;" horiz-adv-x="548" 
d="M587 761l-107 -187h-108l35 187h180zM337 700l-93 -523h288l-31 -177h-500l124 700h212z" />
    <glyph glyph-name="lcaron" unicode="&#x13e;" horiz-adv-x="398" 
d="M535 761l-102 -169h-108l30 169h180zM310 700l-89 -503q-4 -20 -4 -35t8 -20t30 -5q9 0 19 1l-24 -135q-40 -11 -93 -11q-143 0 -143 137q0 26 9 80l87 491h200z" />
    <glyph glyph-name="Ldot" unicode="&#x13f;" horiz-adv-x="548" 
d="M337 700l-93 -523h288l-31 -177h-500l124 700h212zM432 512q44 0 76 -31.5t32 -75.5q0 -43 -32.5 -75t-75.5 -32q-44 0 -76.5 32t-32.5 75q0 44 32.5 75.5t76.5 31.5z" />
    <glyph glyph-name="ldot" unicode="&#x140;" horiz-adv-x="431" 
d="M310 700l-89 -503q-4 -20 -4 -35t8 -20t30 -5q9 0 19 1l-24 -135q-40 -11 -93 -11q-143 0 -143 137q0 26 9 80l87 491h200zM365 449q39 0 67.5 -28t28.5 -67q0 -38 -28.5 -66.5t-67.5 -28.5q-38 0 -67 28.5t-29 66.5q0 39 28.5 67t67.5 28z" />
    <glyph glyph-name="Lslash" unicode="&#x141;" horiz-adv-x="573" 
d="M264 177h288l-31 -177h-500l41 230l-66 -32l25 140l66 32l58 330h212l-39 -218l131 64l-24 -140l-132 -64z" />
    <glyph glyph-name="lslash" unicode="&#x142;" horiz-adv-x="316" 
d="M255 331l-24 -134q-4 -20 -4 -35t8 -20t30 -5q9 0 19 1l-24 -135q-40 -11 -93 -11q-143 0 -143 137q0 26 9 80l4 20l-49 -23l23 140l50 24l59 330h200l-40 -228l79 37l-24 -140z" />
    <glyph glyph-name="Nacute" unicode="&#x143;" horiz-adv-x="731" 
d="M707 921l-203 -168h-146l110 168h239zM758 700l-124 -700h-256l-118 407l-71 -407h-188l124 700h261l112 -413l72 413h188z" />
    <glyph glyph-name="nacute" unicode="&#x144;" horiz-adv-x="614" 
d="M649 761l-215 -168h-138l117 168h236zM442 557q71 0 114.5 -39.5t43.5 -110.5q0 -24 -14 -103l-54 -304h-200l48 267q10 57 10 78q0 45 -49 45q-37 0 -64 -27.5t-35 -74.5l-51 -288h-200l96 542h190l-13 -75q68 90 178 90z" />
    <glyph glyph-name="uni0145" unicode="&#x145;" horiz-adv-x="731" 
d="M758 700l-124 -700h-256l-118 407l-71 -407h-188l124 700h261l112 -413l72 413h188zM297 -51q45 0 69 -26.5t24 -64.5q0 -50 -35.5 -106t-92.5 -105l-67 38q28 31 40.5 52.5t19.5 56.5q-47 28 -47 75q0 33 26 56.5t63 23.5z" />
    <glyph glyph-name="uni0146" unicode="&#x146;" horiz-adv-x="614" 
d="M442 557q71 0 114.5 -39.5t43.5 -110.5q0 -24 -14 -103l-54 -304h-200l48 267q10 57 10 78q0 45 -49 45q-37 0 -64 -27.5t-35 -74.5l-51 -288h-200l96 542h190l-13 -75q68 90 178 90zM238 -51q45 0 69 -26.5t24 -64.5q0 -50 -35.5 -106t-92.5 -105l-67 38
q28 31 40.5 52.5t19.5 56.5q-47 28 -47 75q0 33 26 56.5t63 23.5z" />
    <glyph glyph-name="Ncaron" unicode="&#x147;" horiz-adv-x="731" 
d="M716 928l-172 -165h-206l-112 165h171l58 -60l80 60h181zM758 700l-124 -700h-256l-118 407l-71 -407h-188l124 700h261l112 -413l72 413h188z" />
    <glyph glyph-name="ncaron" unicode="&#x148;" horiz-adv-x="614" 
d="M646 773l-172 -168h-206l-112 168h168l56 -70l82 70h184zM442 557q71 0 114.5 -39.5t43.5 -110.5q0 -24 -14 -103l-54 -304h-200l48 267q10 57 10 78q0 45 -49 45q-37 0 -64 -27.5t-35 -74.5l-51 -288h-200l96 542h190l-13 -75q68 90 178 90z" />
    <glyph glyph-name="napostrophe" unicode="&#x149;" horiz-adv-x="664" 
d="M145 849q45 0 69 -26.5t24 -64.5q0 -50 -35.5 -106t-92.5 -105l-67 38q28 31 40.5 52.5t19.5 56.5q-47 28 -47 75q0 33 26 56.5t63 23.5zM492 557q71 0 114.5 -39.5t43.5 -110.5q0 -24 -14 -103l-54 -304h-200l48 267q10 57 10 78q0 45 -49 45q-37 0 -64 -27.5t-35 -74.5
l-51 -288h-200l96 542h190l-13 -75q68 90 178 90z" />
    <glyph glyph-name="Eng" unicode="&#x14a;" horiz-adv-x="731" 
d="M570 700h188l-124 -700q-19 -107 -83 -152.5t-179 -45.5q-64 0 -126 11l25 123q47 -7 84 -7q41 0 61.5 14.5t26.5 56.5h-65l-118 407l-71 -407h-188l124 700h261l112 -413z" />
    <glyph glyph-name="eng" unicode="&#x14b;" horiz-adv-x="614" 
d="M303 -198q-55 0 -95 8l24 139q12 -1 24 -1q34 0 54 17.5t28 66.5l42 235q10 57 10 78q0 45 -49 45q-37 0 -64 -27.5t-35 -74.5l-51 -288h-200l96 542h190l-13 -75q68 90 178 90q71 0 114.5 -39.5t43.5 -110.5q0 -24 -14 -103l-56 -315q-16 -92 -80 -139.5t-147 -47.5z
" />
    <glyph glyph-name="Omacron" unicode="&#x14c;" horiz-adv-x="788" 
d="M685 910l-23 -132h-396l23 132h396zM452 719q67 0 124 -16.5t105.5 -51.5t76 -97t27.5 -145q0 -184 -115 -306.5t-308 -122.5q-65 0 -123 19t-105 56t-74.5 98.5t-27.5 139.5q0 190 112 308t308 118zM437 549q-91 0 -138.5 -72t-47.5 -170q0 -157 127 -157q62 0 106 39
t63 92t19 110q0 83 -31 120.5t-98 37.5z" />
    <glyph glyph-name="omacron" unicode="&#x14d;" horiz-adv-x="640" 
d="M580 750l-23 -132h-396l23 132h396zM350 557q130 0 205 -69.5t75 -188.5q0 -135 -94 -224t-246 -89q-133 0 -206.5 68t-73.5 188q0 135 95 225t245 90zM342 405q-61 0 -90 -51t-29 -120q0 -96 76 -96q59 0 89.5 53t30.5 120q0 94 -77 94z" />
    <glyph glyph-name="Obreve" unicode="&#x14e;" horiz-adv-x="788" 
d="M688 941q-24 -84 -77.5 -130t-133.5 -46q-173 0 -183 176h113q3 -51 74 -51q70 0 90 51h117zM452 719q67 0 124 -16.5t105.5 -51.5t76 -97t27.5 -145q0 -184 -115 -306.5t-308 -122.5q-65 0 -123 19t-105 56t-74.5 98.5t-27.5 139.5q0 190 112 308t308 118zM437 549
q-91 0 -138.5 -72t-47.5 -170q0 -157 127 -157q62 0 106 39t63 92t19 110q0 83 -31 120.5t-98 37.5z" />
    <glyph glyph-name="obreve" unicode="&#x14f;" horiz-adv-x="640" 
d="M578 773q-51 -176 -215 -176q-85 0 -132 46.5t-47 129.5h112q0 -51 76 -51q38 0 57 12.5t31 38.5h118zM350 557q130 0 205 -69.5t75 -188.5q0 -135 -94 -224t-246 -89q-133 0 -206.5 68t-73.5 188q0 135 95 225t245 90zM342 405q-61 0 -90 -51t-29 -120q0 -96 76 -96
q59 0 89.5 53t30.5 120q0 94 -77 94z" />
    <glyph glyph-name="Ohungarumlaut" unicode="&#x150;" horiz-adv-x="788" 
d="M556 943l-163 -192h-134l100 192h197zM788 943l-173 -192h-134l110 192h197zM452 719q67 0 124 -16.5t105.5 -51.5t76 -97t27.5 -145q0 -184 -115 -306.5t-308 -122.5q-65 0 -123 19t-105 56t-74.5 98.5t-27.5 139.5q0 190 112 308t308 118zM437 549q-91 0 -138.5 -72
t-47.5 -170q0 -157 127 -157q62 0 106 39t63 92t19 110q0 83 -31 120.5t-98 37.5z" />
    <glyph glyph-name="ohungarumlaut" unicode="&#x151;" horiz-adv-x="640" 
d="M455 775l-163 -182h-134l100 182h197zM687 775l-173 -182h-134l110 182h197zM350 557q130 0 205 -69.5t75 -188.5q0 -135 -94 -224t-246 -89q-133 0 -206.5 68t-73.5 188q0 135 95 225t245 90zM342 405q-61 0 -90 -51t-29 -120q0 -96 76 -96q59 0 89.5 53t30.5 120
q0 94 -77 94z" />
    <glyph glyph-name="OE" unicode="&#x152;" horiz-adv-x="975" 
d="M988 532h-283l-17 -95h262l-28 -160h-262l-19 -109h292l-30 -168h-403q-72 -20 -158 -20q-57 0 -111 19t-99 55.5t-72.5 98.5t-27.5 140q0 189 110.5 307.5t299.5 118.5q72 0 125 -19h451zM249 307q0 -157 125 -157q33 0 52 3l69 391q-30 5 -58 5q-92 0 -140 -71.5
t-48 -170.5z" />
    <glyph glyph-name="oe" unicode="&#x153;" horiz-adv-x="1000" 
d="M741 557q116 0 184.5 -61.5t68.5 -172.5q0 -33 -6 -69l-6 -34h-368v-3q0 -85 88 -85q69 0 116 59l146 -73q-105 -132 -283 -132q-123 0 -185 73q-84 -73 -206 -73q-133 0 -206.5 68t-73.5 188q0 135 95 225t245 90q133 0 197 -77q82 77 194 77zM800 332q2 16 2 25
q0 66 -75 66q-72 0 -99 -91h172zM299 138q59 0 89.5 53t30.5 120q0 94 -77 94q-61 0 -90 -51t-29 -120q0 -96 76 -96z" />
    <glyph glyph-name="Racute" unicode="&#x154;" horiz-adv-x="672" 
d="M668 921l-203 -168h-146l110 168h239zM687 492q0 -153 -162 -219l125 -273h-240l-90 240h-65l-42 -240h-212l124 700h266q296 0 296 -208zM308 538l-25 -142h76q52 0 79.5 23t27.5 55q0 64 -75 64h-83z" />
    <glyph glyph-name="racute" unicode="&#x155;" horiz-adv-x="415" 
d="M546 761l-215 -168h-138l117 168h236zM420 557q22 0 46 -3l-33 -187q-18 1 -31 1q-70 0 -114.5 -37.5t-62.5 -138.5l-34 -192h-200l96 542h190l-16 -87q52 102 159 102z" />
    <glyph glyph-name="uni0156" unicode="&#x156;" horiz-adv-x="672" 
d="M687 492q0 -153 -162 -219l125 -273h-240l-90 240h-65l-42 -240h-212l124 700h266q296 0 296 -208zM308 538l-25 -142h76q52 0 79.5 23t27.5 55q0 64 -75 64h-83zM284 -51q45 0 69 -26.5t24 -64.5q0 -50 -35.5 -106t-92.5 -105l-67 38q28 31 40.5 52.5t19.5 56.5
q-47 28 -47 75q0 33 26 56.5t63 23.5z" />
    <glyph glyph-name="uni0157" unicode="&#x157;" horiz-adv-x="415" 
d="M420 557q22 0 46 -3l-33 -187q-18 1 -31 1q-70 0 -114.5 -37.5t-62.5 -138.5l-34 -192h-200l96 542h190l-16 -87q52 102 159 102zM70 -51q45 0 69 -26.5t24 -64.5q0 -50 -35.5 -106t-92.5 -105l-67 38q28 31 40.5 52.5t19.5 56.5q-47 28 -47 75q0 33 26 56.5t63 23.5z
" />
    <glyph glyph-name="Rcaron" unicode="&#x158;" horiz-adv-x="672" 
d="M505 763h-206l-112 165h171l58 -60l80 60h181zM687 492q0 -153 -162 -219l125 -273h-240l-90 240h-65l-42 -240h-212l124 700h266q296 0 296 -208zM308 538l-25 -142h76q52 0 79.5 23t27.5 55q0 64 -75 64h-83z" />
    <glyph glyph-name="rcaron" unicode="&#x159;" horiz-adv-x="415" 
d="M543 773l-172 -168h-206l-112 168h168l56 -70l82 70h184zM420 557q22 0 46 -3l-33 -187q-18 1 -31 1q-70 0 -114.5 -37.5t-62.5 -138.5l-34 -192h-200l96 542h190l-16 -87q52 102 159 102z" />
    <glyph glyph-name="Sacute" unicode="&#x15a;" horiz-adv-x="661" 
d="M668 921l-203 -168h-146l110 168h239zM305 -20q-203 0 -334 131l141 125q97 -86 211 -86q46 0 74 14.5t28 37.5t-24.5 35.5t-103.5 30.5q-121 27 -176.5 75t-55.5 135q0 110 90.5 175.5t226.5 65.5q200 0 317 -124l-151 -115q-41 37 -79.5 54t-94.5 17q-41 0 -64.5 -12
t-23.5 -34q0 -23 26.5 -36.5t103.5 -28.5q121 -24 176.5 -68.5t55.5 -134.5q0 -119 -99.5 -188t-243.5 -69z" />
    <glyph glyph-name="sacute" unicode="&#x15b;" horiz-adv-x="547" 
d="M590 761l-215 -168h-138l117 168h236zM313 557q142 0 244 -81l-105 -104q-69 49 -144 49q-53 0 -53 -31q0 -15 18 -23t90 -25q83 -19 122 -58t39 -109q0 -85 -83 -137t-197 -52q-94 0 -155 22.5t-120 67.5l96 115q92 -65 176 -65q68 0 68 32q0 16 -16.5 25.5t-75.5 22.5
q-88 20 -132 58.5t-44 103.5q0 87 76 138t196 51z" />
    <glyph glyph-name="Scircumflex" unicode="&#x15c;" horiz-adv-x="661" 
d="M150 753l172 165h206l112 -165h-168l-56 67l-82 -67h-184zM305 -20q-203 0 -334 131l141 125q97 -86 211 -86q46 0 74 14.5t28 37.5t-24.5 35.5t-103.5 30.5q-121 27 -176.5 75t-55.5 135q0 110 90.5 175.5t226.5 65.5q200 0 317 -124l-151 -115q-41 37 -79.5 54
t-94.5 17q-41 0 -64.5 -12t-23.5 -34q0 -23 26.5 -36.5t103.5 -28.5q121 -24 176.5 -68.5t55.5 -134.5q0 -119 -99.5 -188t-243.5 -69z" />
    <glyph glyph-name="scircumflex" unicode="&#x15d;" horiz-adv-x="547" 
d="M72 605l172 168h206l112 -168h-168l-56 70l-82 -70h-184zM313 557q142 0 244 -81l-105 -104q-69 49 -144 49q-53 0 -53 -31q0 -15 18 -23t90 -25q83 -19 122 -58t39 -109q0 -85 -83 -137t-197 -52q-94 0 -155 22.5t-120 67.5l96 115q92 -65 176 -65q68 0 68 32
q0 16 -16.5 25.5t-75.5 22.5q-88 20 -132 58.5t-44 103.5q0 87 76 138t196 51z" />
    <glyph glyph-name="Scedilla" unicode="&#x15e;" horiz-adv-x="661" 
d="M416 440q121 -24 176.5 -68.5t55.5 -134.5q0 -105 -79.5 -172t-201.5 -81l-5 -26q103 -10 103 -95q0 -57 -50 -89.5t-136 -32.5q-85 0 -152 36l56 87q43 -19 84 -19q44 0 44 26q0 16 -21.5 21.5t-76.5 5.5l25 86q-157 17 -267 127l141 125q97 -86 211 -86q46 0 74 14.5
t28 37.5t-24.5 35.5t-103.5 30.5q-121 27 -176.5 75t-55.5 135q0 110 90.5 175.5t226.5 65.5q200 0 317 -124l-151 -115q-41 37 -79.5 54t-94.5 17q-41 0 -64.5 -12t-23.5 -34q0 -23 26.5 -36.5t103.5 -28.5z" />
    <glyph glyph-name="scedilla" unicode="&#x15f;" horiz-adv-x="547" 
d="M363 342q83 -19 122 -58t39 -109q0 -73 -62.5 -122.5t-156.5 -62.5l-6 -32q103 -10 103 -95q0 -57 -50 -89.5t-136 -32.5q-85 0 -152 36l56 87q43 -19 84 -19q44 0 44 26q0 16 -21.5 21.5t-76.5 5.5l27 91q-113 13 -208 87l96 115q92 -65 176 -65q68 0 68 32
q0 16 -16.5 25.5t-75.5 22.5q-88 20 -132 58.5t-44 103.5q0 87 76 138t196 51q142 0 244 -81l-105 -104q-69 49 -144 49q-53 0 -53 -31q0 -15 18 -23t90 -25z" />
    <glyph glyph-name="Scaron" unicode="&#x160;" horiz-adv-x="661" 
d="M677 928l-172 -165h-206l-112 165h171l58 -60l80 60h181zM305 -20q-203 0 -334 131l141 125q97 -86 211 -86q46 0 74 14.5t28 37.5t-24.5 35.5t-103.5 30.5q-121 27 -176.5 75t-55.5 135q0 110 90.5 175.5t226.5 65.5q200 0 317 -124l-151 -115q-41 37 -79.5 54t-94.5 17
q-41 0 -64.5 -12t-23.5 -34q0 -23 26.5 -36.5t103.5 -28.5q121 -24 176.5 -68.5t55.5 -134.5q0 -119 -99.5 -188t-243.5 -69z" />
    <glyph glyph-name="scaron" unicode="&#x161;" horiz-adv-x="547" 
d="M587 773l-172 -168h-206l-112 168h168l56 -70l82 70h184zM313 557q142 0 244 -81l-105 -104q-69 49 -144 49q-53 0 -53 -31q0 -15 18 -23t90 -25q83 -19 122 -58t39 -109q0 -85 -83 -137t-197 -52q-94 0 -155 22.5t-120 67.5l96 115q92 -65 176 -65q68 0 68 32
q0 16 -16.5 25.5t-75.5 22.5q-88 20 -132 58.5t-44 103.5q0 87 76 138t196 51z" />
    <glyph glyph-name="uni0162" unicode="&#x162;" horiz-adv-x="570" 
d="M65 700h592l-30 -170h-190l-94 -530h-44l-7 -42q103 -10 103 -95q0 -57 -50 -89.5t-136 -32.5q-85 0 -152 36l56 87q43 -19 84 -19q44 0 44 26q0 16 -21.5 21.5t-76.5 5.5l30 102h-42l94 530h-190z" />
    <glyph glyph-name="uni0163" unicode="&#x163;" horiz-adv-x="412" 
d="M296 385l-33 -187q-2 -12 -2 -20q0 -35 50 -35q29 0 71 9l-26 -153q-31 -7 -70 -11l-5 -30q103 -10 103 -95q0 -57 -50 -89.5t-136 -32.5q-85 0 -152 36l56 87q43 -19 84 -19q44 0 44 26q0 16 -21.5 21.5t-76.5 5.5l29 98q-103 30 -103 143q0 29 6 61l33 185h-73l24 137
h73l24 138h200l-24 -138h120l-24 -137h-121z" />
    <glyph glyph-name="Tcaron" unicode="&#x164;" horiz-adv-x="570" 
d="M474 763h-206l-112 165h171l58 -60l80 60h181zM657 700l-30 -170h-190l-94 -530h-212l94 530h-190l30 170h592z" />
    <glyph glyph-name="tcaron" unicode="&#x165;" horiz-adv-x="435" 
d="M387 761h180l-102 -169h-108zM345 660l-24 -138h120l-24 -137h-121l-33 -187q-2 -12 -2 -20q0 -35 50 -35q29 0 71 9l-26 -153q-53 -13 -113 -13q-185 0 -185 153q0 29 6 61l33 185h-73l24 137h73l24 138h200z" />
    <glyph glyph-name="Tbar" unicode="&#x166;" horiz-adv-x="570" 
d="M626 529h-190l-13 -75h91l-23 -132h-92l-57 -323h-212l57 323h-92l23 132h93l13 75h-190l30 170h592z" />
    <glyph glyph-name="tbar" unicode="&#x167;" horiz-adv-x="424" 
d="M424 385h-121l-4 -25h100l-23 -128h-100l-6 -34q-2 -12 -2 -20q0 -35 50 -35q29 0 71 9l-26 -153q-53 -13 -113 -13q-185 0 -185 153q0 29 6 61l6 32h-80l23 128h79l5 25h-73l24 137h73l24 138h200l-24 -138h120z" />
    <glyph glyph-name="Utilde" unicode="&#x168;" horiz-adv-x="722" 
d="M374 919q46 0 89.5 -22t51.5 -22q26 0 43 30h102q-8 -73 -50.5 -114t-99.5 -41q-46 0 -90 22t-52 22q-26 0 -43 -30h-101q12 75 51.5 115t98.5 40zM754 700l-75 -420q-26 -148 -108 -224t-235 -76q-137 0 -216.5 65t-79.5 179q0 29 7 65l73 411h212l-73 -411
q-6 -31 -6 -51q0 -88 93 -88q56 0 83 31.5t39 99.5l74 419h212z" />
    <glyph glyph-name="utilde" unicode="&#x169;" horiz-adv-x="608" 
d="M309 744q46 0 89.5 -22t51.5 -22q26 0 43 30h102q-8 -73 -50.5 -114t-99.5 -41q-46 0 -90 22t-52 22q-26 0 -43 -30h-101q12 75 51.5 115t98.5 40zM167 -15q-69 0 -110.5 40t-41.5 111q0 25 14 104l54 302h200l-48 -265q-10 -57 -10 -78q0 -47 49 -47q36 0 60 27t32 75
l51 288h200l-96 -542h-190l13 69q-61 -84 -177 -84z" />
    <glyph glyph-name="Umacron" unicode="&#x16a;" horiz-adv-x="722" 
d="M662 910l-23 -132h-396l23 132h396zM754 700l-75 -420q-26 -148 -108 -224t-235 -76q-137 0 -216.5 65t-79.5 179q0 29 7 65l73 411h212l-73 -411q-6 -31 -6 -51q0 -88 93 -88q56 0 83 31.5t39 99.5l74 419h212z" />
    <glyph glyph-name="umacron" unicode="&#x16b;" horiz-adv-x="608" 
d="M591 735l-23 -132h-396l23 132h396zM167 -15q-69 0 -110.5 40t-41.5 111q0 25 14 104l54 302h200l-48 -265q-10 -57 -10 -78q0 -47 49 -47q36 0 60 27t32 75l51 288h200l-96 -542h-190l13 69q-61 -84 -177 -84z" />
    <glyph glyph-name="Ubreve" unicode="&#x16c;" horiz-adv-x="722" 
d="M665 941q-24 -84 -77.5 -130t-133.5 -46q-173 0 -183 176h113q3 -51 74 -51q70 0 90 51h117zM754 700l-75 -420q-26 -148 -108 -224t-235 -76q-137 0 -216.5 65t-79.5 179q0 29 7 65l73 411h212l-73 -411q-6 -31 -6 -51q0 -88 93 -88q56 0 83 31.5t39 99.5l74 419h212z
" />
    <glyph glyph-name="ubreve" unicode="&#x16d;" horiz-adv-x="608" 
d="M589 758q-51 -176 -215 -176q-85 0 -132 46.5t-47 129.5h112q0 -51 76 -51q38 0 57 12.5t31 38.5h118zM167 -15q-69 0 -110.5 40t-41.5 111q0 25 14 104l54 302h200l-48 -265q-10 -57 -10 -78q0 -47 49 -47q36 0 60 27t32 75l51 288h200l-96 -542h-190l13 69
q-61 -84 -177 -84z" />
    <glyph glyph-name="Uring" unicode="&#x16e;" horiz-adv-x="722" 
d="M433 1036q66 0 111.5 -40.5t45.5 -106.5t-45.5 -106.5t-111.5 -40.5t-111.5 40.5t-45.5 106.5t45.5 106.5t111.5 40.5zM433 932q-17 0 -28 -11.5t-11 -31.5t11 -31.5t28 -11.5t28 11.5t11 31.5t-11 31.5t-28 11.5zM754 700l-75 -420q-26 -148 -108 -224t-235 -76
q-137 0 -216.5 65t-79.5 179q0 29 7 65l73 411h212l-73 -411q-6 -31 -6 -51q0 -88 93 -88q56 0 83 31.5t39 99.5l74 419h212z" />
    <glyph glyph-name="uring" unicode="&#x16f;" horiz-adv-x="608" 
d="M393 866q66 0 111.5 -40.5t45.5 -106.5t-45.5 -106.5t-111.5 -40.5t-111.5 40.5t-45.5 106.5t45.5 106.5t111.5 40.5zM393 762q-17 0 -28 -11.5t-11 -31.5t11 -31.5t28 -11.5t28 11.5t11 31.5t-11 31.5t-28 11.5zM167 -15q-69 0 -110.5 40t-41.5 111q0 25 14 104l54 302
h200l-48 -265q-10 -57 -10 -78q0 -47 49 -47q36 0 60 27t32 75l51 288h200l-96 -542h-190l13 69q-61 -84 -177 -84z" />
    <glyph glyph-name="Uhungarumlaut" unicode="&#x170;" horiz-adv-x="722" 
d="M533 943l-163 -192h-134l100 192h197zM765 943l-173 -192h-134l110 192h197zM754 700l-75 -420q-26 -148 -108 -224t-235 -76q-137 0 -216.5 65t-79.5 179q0 29 7 65l73 411h212l-73 -411q-6 -31 -6 -51q0 -88 93 -88q56 0 83 31.5t39 99.5l74 419h212z" />
    <glyph glyph-name="uhungarumlaut" unicode="&#x171;" horiz-adv-x="608" 
d="M466 760l-163 -182h-134l100 182h197zM698 760l-173 -182h-134l110 182h197zM167 -15q-69 0 -110.5 40t-41.5 111q0 25 14 104l54 302h200l-48 -265q-10 -57 -10 -78q0 -47 49 -47q36 0 60 27t32 75l51 288h200l-96 -542h-190l13 69q-61 -84 -177 -84z" />
    <glyph glyph-name="Uogonek" unicode="&#x172;" horiz-adv-x="722" 
d="M542 700h212l-75 -420q-38 -209 -183 -271q-86 -61 -86 -114q0 -45 51 -45q29 0 63 12l30 -96q-55 -25 -124 -25q-76 0 -121.5 32t-45.5 86q0 75 73 121q-137 0 -216.5 65t-79.5 179q0 29 7 65l73 411h212l-73 -411q-6 -31 -6 -51q0 -88 93 -88q56 0 83 31.5t39 99.5z
" />
    <glyph glyph-name="uogonek" unicode="&#x173;" horiz-adv-x="608" 
d="M521 0q-72 -10 -106.5 -38.5t-34.5 -63.5q0 -55 67 -55q22 0 36 4l29 -93q-39 -13 -88 -13q-86 0 -135 37.5t-49 100.5q0 44 27 83.5t69 62.5l8 44q-61 -84 -177 -84q-69 0 -110.5 40t-41.5 111q0 25 14 104l54 302h200l-48 -265q-10 -57 -10 -78q0 -47 49 -47
q36 0 60 27t32 75l51 288h200z" />
    <glyph glyph-name="Wcircumflex" unicode="&#x174;" horiz-adv-x="875" 
d="M279 753l172 165h206l112 -165h-168l-56 67l-82 -67h-184zM967 700l-268 -700h-237l20 484l-158 -484h-243l-21 700h224l-40 -500l167 500h216l-18 -493l138 493h220z" />
    <glyph glyph-name="wcircumflex" unicode="&#x175;" horiz-adv-x="805" 
d="M207 605l172 168h206l112 -168h-168l-56 70l-82 -70h-184zM869 542l-224 -542h-230l9 385l-133 -385h-229l-30 542h210l-30 -369l128 369h217l-2 -369l107 369h207z" />
    <glyph glyph-name="Ycircumflex" unicode="&#x176;" horiz-adv-x="604" 
d="M140 753l172 165h206l112 -165h-168l-56 67l-82 -67h-184zM721 700l-315 -439l-47 -261h-210l48 270l-162 430h233l57 -269l157 269h239z" />
    <glyph glyph-name="ycircumflex" unicode="&#x177;" horiz-adv-x="540" 
d="M77 605l172 168h206l112 -168h-168l-56 70l-82 -70h-184zM609 542l-248 -541q-30 -65 -61.5 -106t-82 -67t-118.5 -26q-58 0 -107 8l23 132q37 -4 74 -4q41 0 59 11t30 51h-82l-74 542h222l-2 -410l138 410h229z" />
    <glyph glyph-name="Ydieresis" unicode="&#x178;" horiz-adv-x="604" 
d="M274 964q41 0 71 -29.5t30 -70.5q0 -40 -30 -70t-71 -30t-71.5 30t-30.5 70q0 41 30.5 70.5t71.5 29.5zM538 964q41 0 71.5 -29.5t30.5 -70.5q0 -40 -30.5 -70t-71.5 -30t-71 30t-30 70q0 41 30 70.5t71 29.5zM721 700l-315 -439l-47 -261h-210l48 270l-162 430h233
l57 -269l157 269h239z" />
    <glyph glyph-name="Zacute" unicode="&#x179;" horiz-adv-x="616" 
d="M658 921l-203 -168h-146l110 168h239zM657 700l-28 -159l-367 -376h316l-29 -165h-583l28 158l370 381h-286l29 161h550z" />
    <glyph glyph-name="zacute" unicode="&#x17a;" horiz-adv-x="500" 
d="M570 761l-215 -168h-138l117 168h236zM521 542l-27 -151l-255 -233h227l-28 -158h-477l26 148l258 238h-196l28 156h444z" />
    <glyph glyph-name="Zdotaccent" unicode="&#x17b;" horiz-adv-x="616" 
d="M406 994q45 0 77.5 -29.5t32.5 -73.5q0 -43 -32.5 -73t-77.5 -30q-44 0 -77 30t-33 73t33 73t77 30zM657 700l-28 -159l-367 -376h316l-29 -165h-583l28 158l370 381h-286l29 161h550z" />
    <glyph glyph-name="zdotaccent" unicode="&#x17c;" horiz-adv-x="500" 
d="M316 807q45 0 77.5 -29.5t32.5 -73.5q0 -43 -32.5 -73t-77.5 -30q-44 0 -77 30t-33 73t33 73t77 30zM521 542l-27 -151l-255 -233h227l-28 -158h-477l26 148l258 238h-196l28 156h444z" />
    <glyph glyph-name="Zcaron" unicode="&#x17d;" horiz-adv-x="616" 
d="M667 928l-172 -165h-206l-112 165h171l58 -60l80 60h181zM657 700l-28 -159l-367 -376h316l-29 -165h-583l28 158l370 381h-286l29 161h550z" />
    <glyph glyph-name="zcaron" unicode="&#x17e;" horiz-adv-x="500" 
d="M567 773l-172 -168h-206l-112 168h168l56 -70l82 70h184zM521 542l-27 -151l-255 -233h227l-28 -158h-477l26 148l258 238h-196l28 156h444z" />
    <glyph glyph-name="longs" unicode="&#x17f;" horiz-adv-x="373" 
d="M340 719q72 0 139 -23l-24 -132q-47 13 -78 13q-26 0 -38 -7.5t-15 -26.5l-96 -543h-200l68 385h-72l24 137h72l7 38q28 159 213 159z" />
    <glyph glyph-name="uni018F" unicode="&#x18f;" horiz-adv-x="744" 
d="M437 719q135 0 220.5 -78t85.5 -225q0 -183 -113 -309t-292 -126q-139 0 -224 76.5t-85 222.5q0 49 8 94l6 34h488v5q0 144 -115 144q-90 0 -153 -93l-188 66q125 189 362 189zM346 141q109 0 158 120h-278q-1 -5 -1 -15q0 -47 33 -76t88 -29z" />
    <glyph glyph-name="florin" unicode="&#x192;" horiz-adv-x="408" 
d="M398 577q-26 0 -37.5 -7.5t-15.5 -26.5l-4 -21h111l-24 -137h-111l-68 -381q-19 -107 -74 -154.5t-154 -47.5q-52 0 -97 9l24 138q13 -1 26 -1q34 0 53 20.5t30 79.5l60 337h-72l24 137h72l7 38q28 159 213 159q75 0 142 -23l-24 -132q-47 13 -81 13z" />
    <glyph glyph-name="uni01CD" unicode="&#x1cd;" horiz-adv-x="659" 
d="M518 763h-206l-112 165h171l58 -60l80 60h181zM274 700h262l96 -700h-212l-7 91h-219l-40 -91h-223zM384 548l-121 -297h137z" />
    <glyph glyph-name="uni01CE" unicode="&#x1ce;" horiz-adv-x="571" 
d="M605 773l-172 -168h-206l-112 168h168l56 -70l82 70h184zM326 557q230 0 230 -159q0 -20 -5 -50l-40 -226q-9 -54 -9 -79q0 -18 5 -43h-192q-12 25 -9 52q-56 -66 -155 -66q-74 0 -116 39.5t-42 107.5q0 176 269 209l89 11l3 16q3 18 3 23q0 18 -10 26t-34 8
q-53 0 -60 -50h-199q31 181 272 181zM332 240l-45 -7q-47 -7 -67 -23.5t-20 -44.5q0 -34 41 -34q32 0 55 20t29 51z" />
    <glyph glyph-name="uni01CF" unicode="&#x1cf;" horiz-adv-x="310" 
d="M516 928l-172 -165h-206l-112 165h171l58 -60l80 60h181zM337 700l-124 -700h-212l124 700h212z" />
    <glyph glyph-name="uni01D0" unicode="&#x1d0;" horiz-adv-x="278" 
d="M458 772l-172 -168h-206l-112 168h168l56 -70l82 70h184zM287 542l-96 -542h-200l96 542h200z" />
    <glyph glyph-name="uni01D1" unicode="&#x1d1;" horiz-adv-x="788" 
d="M742 928l-172 -165h-206l-112 165h171l58 -60l80 60h181zM452 719q67 0 124 -16.5t105.5 -51.5t76 -97t27.5 -145q0 -184 -115 -306.5t-308 -122.5q-65 0 -123 19t-105 56t-74.5 98.5t-27.5 139.5q0 190 112 308t308 118zM437 549q-91 0 -138.5 -72t-47.5 -170
q0 -157 127 -157q62 0 106 39t63 92t19 110q0 83 -31 120.5t-98 37.5z" />
    <glyph glyph-name="uni01D2" unicode="&#x1d2;" horiz-adv-x="640" 
d="M627 773l-172 -168h-206l-112 168h168l56 -70l82 70h184zM350 557q130 0 205 -69.5t75 -188.5q0 -135 -94 -224t-246 -89q-133 0 -206.5 68t-73.5 188q0 135 95 225t245 90zM342 405q-61 0 -90 -51t-29 -120q0 -96 76 -96q59 0 89.5 53t30.5 120q0 94 -77 94z" />
    <glyph glyph-name="uni01D3" unicode="&#x1d3;" horiz-adv-x="722" 
d="M719 928l-172 -165h-206l-112 165h171l58 -60l80 60h181zM754 700l-75 -420q-26 -148 -108 -224t-235 -76q-137 0 -216.5 65t-79.5 179q0 29 7 65l73 411h212l-73 -411q-6 -31 -6 -51q0 -88 93 -88q56 0 83 31.5t39 99.5l74 419h212z" />
    <glyph glyph-name="uni01D4" unicode="&#x1d4;" horiz-adv-x="608" 
d="M638 758l-172 -168h-206l-112 168h168l56 -70l82 70h184zM167 -15q-69 0 -110.5 40t-41.5 111q0 25 14 104l54 302h200l-48 -265q-10 -57 -10 -78q0 -47 49 -47q36 0 60 27t32 75l51 288h200l-96 -542h-190l13 69q-61 -84 -177 -84z" />
    <glyph glyph-name="uni01F4" unicode="&#x1f4;" horiz-adv-x="750" 
d="M722 921l-203 -168h-146l110 168h239zM446 719q239 0 306 -191l-196 -63q-28 88 -125 88q-60 0 -102.5 -40.5t-61 -100t-18.5 -129.5q0 -137 117 -137q54 0 90 28t43 74l2 13h-121l25 141h333l-71 -402h-182l10 60q-72 -80 -191 -80q-117 0 -196 73t-79 216
q0 199 114.5 324.5t302.5 125.5z" />
    <glyph glyph-name="uni01F5" unicode="&#x1f5;" horiz-adv-x="612" 
d="M602 761l-215 -168h-138l117 168h236zM221 -198q-103 0 -163.5 15.5t-82 40.5t-21.5 65q0 72 88 122q-33 23 -33 71q0 67 90 129q-60 42 -60 114q0 91 79.5 144.5t202.5 53.5q93 0 146 -29q64 76 192 78l-24 -154q-50 0 -83 -9q20 -27 20 -72q0 -85 -76 -132.5
t-191 -47.5q-73 0 -118 13q-15 -15 -15 -29q0 -25 63 -25h61q118 0 180.5 -42t62.5 -115q0 -191 -318 -191zM304 322q34 0 54 17.5t20 48.5q0 22 -16.5 35t-44.5 13q-34 0 -55 -18.5t-21 -46.5q0 -24 17 -36.5t46 -12.5zM220 -71q110 0 110 39q0 19 -16 26t-50 7h-121
q-22 -15 -22 -35t20 -28.5t79 -8.5z" />
    <glyph glyph-name="Aringacute" unicode="&#x1fa;" horiz-adv-x="659" 
d="M685 1105l-203 -168h-146l110 168h239zM564 766q0 -49 -26 -84l94 -682h-212l-7 91h-219l-40 -91h-223l339 691q-20 32 -20 75q0 66 45.5 106.5t111.5 40.5t111.5 -40.5t45.5 -106.5zM407 809q-17 0 -28 -11.5t-11 -31.5t11 -31.5t28 -11.5t28 11.5t11 31.5t-11 31.5
t-28 11.5zM400 251l-16 297l-121 -297h137z" />
    <glyph glyph-name="aringacute" unicode="&#x1fb;" horiz-adv-x="571" 
d="M643 1055l-207 -144h-132l112 144h227zM359 868q63 0 107 -39t44 -102q0 -64 -43.5 -102.5t-107.5 -38.5q-63 0 -106.5 38.5t-43.5 102.5q0 63 43.5 102t106.5 39zM359 768q-16 0 -26.5 -11t-10.5 -30t10.5 -30.5t26.5 -11.5t27 11.5t11 30.5t-11 30t-27 11zM326 557
q230 0 230 -159q0 -20 -5 -50l-40 -226q-9 -54 -9 -79q0 -18 5 -43h-192q-12 25 -9 52q-56 -66 -155 -66q-74 0 -116 39.5t-42 107.5q0 176 269 209l89 11l3 16q3 18 3 23q0 18 -10 26t-34 8q-53 0 -60 -50h-199q31 181 272 181zM332 240l-45 -7q-47 -7 -67 -23.5t-20 -44.5
q0 -34 41 -34q32 0 55 20t29 51z" />
    <glyph glyph-name="AEacute" unicode="&#x1fc;" horiz-adv-x="923" 
d="M884 921l-203 -168h-146l110 168h239zM946 700l-30 -168h-292l-3 -95h257l-28 -160h-233l-3 -109h287l-30 -168h-475l5 91h-210l-46 -91h-224l399 700h626zM424 547l-151 -296h135z" />
    <glyph glyph-name="aeacute" unicode="&#x1fd;" horiz-adv-x="896" 
d="M754 761l-215 -168h-138l117 168h236zM642 557q112 0 180 -61.5t68 -172.5q0 -33 -6 -69l-6 -34h-362v-3q0 -85 82 -85q69 0 116 59l146 -73q-53 -66 -119.5 -99t-164.5 -33q-136 0 -197 89q-82 -89 -215 -89q-83 0 -127 39t-44 108q0 178 269 209l97 11q11 29 20 46
q-12 27 -56 27q-36 0 -51 -11.5t-19 -38.5h-199q31 181 266 181q114 0 152 -53q75 53 170 53zM696 332q2 16 2 25q0 66 -75 66q-71 0 -95 -91h168zM241 131q65 0 100 55q-3 22 -3 46v8l-51 -7q-87 -11 -87 -68q0 -34 41 -34z" />
    <glyph glyph-name="Oslashacute" unicode="&#x1fe;" horiz-adv-x="788" 
d="M746 921l-203 -168h-146l110 168h239zM840 759l-120 -145q65 -78 65 -205q0 -184 -115 -306.5t-308 -122.5q-74 0 -138 24l-75 -94h-176l138 167q-79 82 -79 216q0 190 112 308t308 118q89 0 157 -27l55 67h176zM437 549q-91 0 -138.5 -72t-47.5 -170q0 -51 5 -78
l251 310q-26 10 -70 10zM378 150q62 0 106 39t63 92t19 110q0 33 -3 58l-239 -294q25 -5 54 -5z" />
    <glyph glyph-name="oslashacute" unicode="&#x1ff;" horiz-adv-x="640" 
d="M616 761l-215 -168h-138l117 168h236zM669 616l-103 -137q65 -67 65 -170q0 -141 -97.5 -232t-249.5 -91q-62 0 -110 16l-60 -82h-147l109 139q-67 65 -67 173q0 142 96 233.5t249 91.5q60 0 113 -17l58 76h144zM341 409q-61 0 -92.5 -53.5t-31.5 -121.5q0 -12 2 -32
l157 202q-17 5 -35 5zM298 134q60 0 94 55.5t34 121.5q0 13 -2 31l-159 -203q17 -5 33 -5z" />
    <glyph glyph-name="uni0218" unicode="&#x218;" horiz-adv-x="661" 
d="M305 -20q-203 0 -334 131l141 125q97 -86 211 -86q46 0 74 14.5t28 37.5t-24.5 35.5t-103.5 30.5q-121 27 -176.5 75t-55.5 135q0 110 90.5 175.5t226.5 65.5q200 0 317 -124l-151 -115q-41 37 -79.5 54t-94.5 17q-41 0 -64.5 -12t-23.5 -34q0 -23 26.5 -36.5
t103.5 -28.5q121 -24 176.5 -68.5t55.5 -134.5q0 -119 -99.5 -188t-243.5 -69zM282 -51q45 0 69 -26.5t24 -64.5q0 -50 -35.5 -106t-92.5 -105l-67 38q28 31 40.5 52.5t19.5 56.5q-47 28 -47 75q0 33 26 56.5t63 23.5z" />
    <glyph glyph-name="uni0219" unicode="&#x219;" horiz-adv-x="547" 
d="M313 557q142 0 244 -81l-105 -104q-69 49 -144 49q-53 0 -53 -31q0 -15 18 -23t90 -25q83 -19 122 -58t39 -109q0 -85 -83 -137t-197 -52q-94 0 -155 22.5t-120 67.5l96 115q92 -65 176 -65q68 0 68 32q0 16 -16.5 25.5t-75.5 22.5q-88 20 -132 58.5t-44 103.5
q0 87 76 138t196 51zM219 -51q45 0 69 -26.5t24 -64.5q0 -50 -35.5 -106t-92.5 -105l-67 38q28 31 40.5 52.5t19.5 56.5q-47 28 -47 75q0 33 26 56.5t63 23.5z" />
    <glyph glyph-name="uni021A" unicode="&#x21a;" horiz-adv-x="570" 
d="M657 700l-30 -170h-190l-94 -530h-212l94 530h-190l30 170h592zM216 -51q45 0 69 -26.5t24 -64.5q0 -50 -35.5 -106t-92.5 -105l-67 38q28 31 40.5 52.5t19.5 56.5q-47 28 -47 75q0 33 26 56.5t63 23.5z" />
    <glyph glyph-name="uni021B" unicode="&#x21b;" horiz-adv-x="412" 
d="M296 385l-33 -187q-2 -12 -2 -20q0 -35 50 -35q29 0 71 9l-26 -153q-53 -13 -113 -13q-185 0 -185 153q0 29 6 61l33 185h-73l24 137h73l24 138h200l-24 -138h120l-24 -137h-121zM201 -51q45 0 69 -26.5t24 -64.5q0 -50 -35.5 -106t-92.5 -105l-67 38q28 31 40.5 52.5
t19.5 56.5q-47 28 -47 75q0 33 26 56.5t63 23.5z" />
    <glyph glyph-name="uni0237" unicode="&#x237;" horiz-adv-x="281" 
d="M-34 -198q-52 0 -97 9l24 138q13 -1 26 -1q34 0 53 20.5t30 79.5l87 494h200l-95 -538q-19 -107 -74 -154.5t-154 -47.5z" />
    <glyph glyph-name="uni0259" unicode="&#x259;" horiz-adv-x="596" 
d="M320 557q120 0 193.5 -66.5t73.5 -179.5q0 -140 -86 -232.5t-236 -92.5q-115 0 -184.5 61.5t-69.5 172.5q0 33 6 69l6 34h364v3q0 85 -86 85q-67 0 -114 -59l-146 73q57 66 123 99t156 33zM276 120q73 0 98 91h-172q-2 -16 -2 -25q0 -66 76 -66z" />
    <glyph glyph-name="uni02BB" unicode="&#x2bb;" horiz-adv-x="253" 
d="M193 551q-45 0 -69 26.5t-24 64.5q0 50 35.5 106t92.5 105l67 -38q-28 -31 -40.5 -52.5t-19.5 -56.5q47 -28 47 -75q0 -33 -26 -56.5t-63 -23.5z" />
    <glyph glyph-name="uni02BC" unicode="&#x2bc;" horiz-adv-x="223" 
d="M196 849q45 0 69 -26.5t24 -64.5q0 -50 -35.5 -106t-92.5 -105l-67 38q28 31 40.5 52.5t19.5 56.5q-47 28 -47 75q0 33 26 56.5t63 23.5z" />
    <glyph glyph-name="circumflex" unicode="&#x2c6;" horiz-adv-x="550" 
d="M89 605l172 168h206l112 -168h-168l-56 70l-82 -70h-184z" />
    <glyph glyph-name="caron" unicode="&#x2c7;" horiz-adv-x="550" 
d="M609 773l-172 -168h-206l-112 168h168l56 -70l82 70h184z" />
    <glyph glyph-name="uni02C9" unicode="&#x2c9;" horiz-adv-x="456" 
d="M510 790l-23 -132h-396l23 132h396z" />
    <glyph glyph-name="breve" unicode="&#x2d8;" horiz-adv-x="454" 
d="M513 773q-51 -176 -215 -176q-85 0 -132 46.5t-47 129.5h112q0 -51 76 -51q38 0 57 12.5t31 38.5h118z" />
    <glyph glyph-name="dotaccent" unicode="&#x2d9;" horiz-adv-x="300" 
d="M226 807q45 0 77.5 -29.5t32.5 -73.5q0 -43 -32.5 -73t-77.5 -30q-44 0 -77 30t-33 73t33 73t77 30z" />
    <glyph glyph-name="ring" unicode="&#x2da;" horiz-adv-x="374" 
d="M268 881q66 0 111.5 -40.5t45.5 -106.5t-45.5 -106.5t-111.5 -40.5t-111.5 40.5t-45.5 106.5t45.5 106.5t111.5 40.5zM268 777q-17 0 -28 -11.5t-11 -31.5t11 -31.5t28 -11.5t28 11.5t11 31.5t-11 31.5t-28 11.5z" />
    <glyph glyph-name="ogonek" unicode="&#x2db;" horiz-adv-x="351" 
d="M147 23l29 -23q-79 -57 -79 -105q0 -45 51 -45q28 0 63 12l30 -96q-55 -25 -124 -25q-76 0 -121.5 32t-45.5 86q0 60 49.5 103.5t147.5 60.5z" />
    <glyph glyph-name="tilde" unicode="&#x2dc;" horiz-adv-x="496" 
d="M251 759q46 0 89.5 -22t51.5 -22q26 0 43 30h102q-8 -73 -50.5 -114t-99.5 -41q-46 0 -90 22t-52 22q-26 0 -43 -30h-101q12 75 51.5 115t98.5 40z" />
    <glyph glyph-name="hungarumlaut" unicode="&#x2dd;" horiz-adv-x="589" 
d="M473 775l-163 -182h-134l100 182h197zM705 775l-173 -182h-134l110 182h197z" />
    <glyph glyph-name="gravecomb" unicode="&#x300;" horiz-adv-x="0" 
d="M-68 761l105 -168h-138l-198 168h231z" />
    <glyph glyph-name="acutecomb" unicode="&#x301;" horiz-adv-x="0" 
d="M54 761l-215 -168h-138l117 168h236z" />
    <glyph glyph-name="uni0302" unicode="&#x302;" horiz-adv-x="0" 
d="M-461 605l172 168h206l112 -168h-168l-56 70l-82 -70h-184z" />
    <glyph glyph-name="tildecomb" unicode="&#x303;" horiz-adv-x="0" 
d="M-245 759q46 0 89.5 -22t51.5 -22q26 0 43 30h102q-8 -73 -50.5 -114t-99.5 -41q-46 0 -90 22t-52 22q-26 0 -43 -30h-101q12 75 51.5 115t98.5 40z" />
    <glyph glyph-name="uni0304" unicode="&#x304;" horiz-adv-x="0" 
d="M54 750l-23 -132h-396l23 132h396z" />
    <glyph glyph-name="uni0306" unicode="&#x306;" horiz-adv-x="0" 
d="M75 773q-51 -176 -215 -176q-85 0 -132 46.5t-47 129.5h112q0 -51 76 -51q38 0 57 12.5t31 38.5h118z" />
    <glyph glyph-name="uni0307" unicode="&#x307;" horiz-adv-x="0" 
d="M-74 807q45 0 77.5 -29.5t32.5 -73.5q0 -43 -32.5 -73t-77.5 -30q-44 0 -77 30t-33 73t33 73t77 30z" />
    <glyph glyph-name="uni0308" unicode="&#x308;" horiz-adv-x="0" 
d="M-326 804q41 0 71 -29.5t30 -70.5q0 -40 -30 -70t-71 -30t-71.5 30t-30.5 70q0 41 30.5 70.5t71.5 29.5zM-62 804q41 0 71.5 -29.5t30.5 -70.5q0 -40 -30.5 -70t-71.5 -30t-71 30t-30 70q0 41 30 70.5t71 29.5z" />
    <glyph glyph-name="uni030A" unicode="&#x30a;" horiz-adv-x="0" 
d="M-106 881q66 0 111.5 -40.5t45.5 -106.5t-45.5 -106.5t-111.5 -40.5t-111.5 40.5t-45.5 106.5t45.5 106.5t111.5 40.5zM-106 777q-17 0 -28 -11.5t-11 -31.5t11 -31.5t28 -11.5t28 11.5t11 31.5t-11 31.5t-28 11.5z" />
    <glyph glyph-name="uni030B" unicode="&#x30b;" horiz-adv-x="0" 
d="M-189 775l-163 -182h-134l100 182h197zM43 775l-173 -182h-134l110 182h197z" />
    <glyph glyph-name="uni030C" unicode="&#x30c;" horiz-adv-x="0" 
d="M74 773l-172 -168h-206l-112 168h168l56 -70l82 70h184z" />
    <glyph glyph-name="uni0312" unicode="&#x312;" horiz-adv-x="0" 
d="M-44 591q-45 0 -69 26.5t-24 64.5q0 50 35.5 106t92.5 105l67 -38q-28 -31 -40.5 -52.5t-19.5 -56.5q47 -28 47 -75q0 -33 -26 -56.5t-63 -23.5z" />
    <glyph glyph-name="uni0313" unicode="&#x313;" horiz-adv-x="0" 
d="M-35 889q45 0 69 -26.5t24 -64.5q0 -50 -35.5 -106t-92.5 -105l-67 38q28 31 40.5 52.5t19.5 56.5q-47 28 -47 75q0 33 26 56.5t63 23.5z" />
    <glyph glyph-name="uni0326" unicode="&#x326;" horiz-adv-x="0" 
d="M-196 -51q45 0 69 -26.5t24 -64.5q0 -50 -35.5 -106t-92.5 -105l-67 38q28 31 40.5 52.5t19.5 56.5q-47 28 -47 75q0 33 26 56.5t63 23.5z" />
    <glyph glyph-name="uni0327" unicode="&#x327;" horiz-adv-x="0" 
d="M-143 9l-9 -51q103 -10 103 -95q0 -57 -50 -89.5t-136 -32.5q-85 0 -152 36l56 87q43 -19 84 -19q44 0 44 26q0 16 -21.5 21.5t-76.5 5.5l33 111h125z" />
    <glyph glyph-name="uni0328" unicode="&#x328;" horiz-adv-x="0" 
d="M-124 23l29 -23q-79 -57 -79 -105q0 -45 51 -45q28 0 63 12l30 -96q-55 -25 -124 -25q-76 0 -121.5 32t-45.5 86q0 60 49.5 103.5t147.5 60.5z" />
    <glyph glyph-name="uni0394" unicode="&#x394;" horiz-adv-x="661" 
d="M537 700l96 -700h-701l343 700h262zM218 160h190l-26 391z" />
    <glyph glyph-name="uni03A9" unicode="&#x3a9;" horiz-adv-x="790" 
d="M-9 0l27 153h104q-85 65 -85 179q0 165 117.5 276t296.5 111q146 0 243 -76t97 -219q0 -86 -38 -160t-110 -111h89l-27 -153h-304l27 153q70 20 106 89t36 164q0 70 -37 106.5t-97 36.5q-90 0 -137 -73.5t-47 -180.5q0 -116 70 -142l-27 -153h-304z" />
    <glyph glyph-name="uni03BC" unicode="&#x3bc;" horiz-adv-x="615" 
d="M-38 -174l126 716h193l-48 -273q-9 -48 -9 -70q0 -47 49 -47q81 0 99 102l51 288h200l-96 -542h-186l10 50q-54 -65 -115 -65q-39 0 -60 28l-34 -187h-180z" />
    <glyph glyph-name="pi" unicode="&#x3c0;" horiz-adv-x="640" 
d="M678 542l-28 -155h-70l-68 -387h-190l68 387h-100l-68 -387h-190l68 387h-70l28 155h620z" />
    <glyph glyph-name="Wgrave" unicode="&#x1e80;" horiz-adv-x="875" 
d="M505 921l105 -168h-138l-198 168h231zM967 700l-268 -700h-237l20 484l-158 -484h-243l-21 700h224l-40 -500l167 500h216l-18 -493l138 493h220z" />
    <glyph glyph-name="wgrave" unicode="&#x1e81;" horiz-adv-x="805" 
d="M430 761l105 -168h-138l-198 168h231zM869 542l-224 -542h-230l9 385l-133 -385h-229l-30 542h210l-30 -369l128 369h217l-2 -369l107 369h207z" />
    <glyph glyph-name="Wacute" unicode="&#x1e82;" horiz-adv-x="875" 
d="M797 921l-203 -168h-146l110 168h239zM967 700l-268 -700h-237l20 484l-158 -484h-243l-21 700h224l-40 -500l167 500h216l-18 -493l138 493h220z" />
    <glyph glyph-name="wacute" unicode="&#x1e83;" horiz-adv-x="805" 
d="M725 761l-215 -168h-138l117 168h236zM869 542l-224 -542h-230l9 385l-133 -385h-229l-30 542h210l-30 -369l128 369h217l-2 -369l107 369h207z" />
    <glyph glyph-name="Wdieresis" unicode="&#x1e84;" horiz-adv-x="875" 
d="M413 964q41 0 71 -29.5t30 -70.5q0 -40 -30 -70t-71 -30t-71.5 30t-30.5 70q0 41 30.5 70.5t71.5 29.5zM677 964q41 0 71.5 -29.5t30.5 -70.5q0 -40 -30.5 -70t-71.5 -30t-71 30t-30 70q0 41 30 70.5t71 29.5zM967 700l-268 -700h-237l20 484l-158 -484h-243l-21 700h224
l-40 -500l167 500h216l-18 -493l138 493h220z" />
    <glyph glyph-name="wdieresis" unicode="&#x1e85;" horiz-adv-x="805" 
d="M328 804q41 0 71 -29.5t30 -70.5q0 -40 -30 -70t-71 -30t-71.5 30t-30.5 70q0 41 30.5 70.5t71.5 29.5zM592 804q41 0 71.5 -29.5t30.5 -70.5q0 -40 -30.5 -70t-71.5 -30t-71 30t-30 70q0 41 30 70.5t71 29.5zM869 542l-224 -542h-230l9 385l-133 -385h-229l-30 542h210
l-30 -369l128 369h217l-2 -369l107 369h207z" />
    <glyph glyph-name="uni1E9E" unicode="&#x1e9e;" horiz-adv-x="712" 
d="M403 -20q-75 0 -146 20l55 141q30 -10 66 -10q45 0 72.5 22t27.5 59q0 42 -33.5 64t-108.5 36l18 102l135 121q-35 22 -85 22q-94 0 -114 -112l-79 -445h-214l80 451q22 125 108.5 196.5t227.5 71.5q215 0 306 -145l-169 -157q67 -20 107 -68t40 -119q0 -112 -84.5 -181
t-209.5 -69z" />
    <glyph glyph-name="Ygrave" unicode="&#x1ef2;" horiz-adv-x="604" 
d="M366 921l105 -168h-138l-198 168h231zM721 700l-315 -439l-47 -261h-210l48 270l-162 430h233l57 -269l157 269h239z" />
    <glyph glyph-name="ygrave" unicode="&#x1ef3;" horiz-adv-x="540" 
d="M300 761l105 -168h-138l-198 168h231zM609 542l-248 -541q-30 -65 -61.5 -106t-82 -67t-118.5 -26q-58 0 -107 8l23 132q37 -4 74 -4q41 0 59 11t30 51h-82l-74 542h222l-2 -410l138 410h229z" />
    <glyph glyph-name="uni2007" unicode="&#x2007;" 
 />
    <glyph glyph-name="thinspace" unicode="&#x2009;" horiz-adv-x="38" 
 />
    <glyph glyph-name="uni2010" unicode="&#x2010;" horiz-adv-x="395" 
d="M387 394l-29 -161h-335l29 161h335z" />
    <glyph glyph-name="uni2011" unicode="&#x2011;" horiz-adv-x="395" 
d="M387 394l-29 -161h-335l29 161h335z" />
    <glyph glyph-name="figuredash" unicode="&#x2012;" 
d="M580 354l-29 -161h-530l29 161h530z" />
    <glyph glyph-name="endash" unicode="&#x2013;" horiz-adv-x="590" 
d="M582 394l-29 -161h-530l29 161h530z" />
    <glyph glyph-name="emdash" unicode="&#x2014;" horiz-adv-x="730" 
d="M722 394l-29 -161h-670l29 161h670z" />
    <glyph glyph-name="uni2015" unicode="&#x2015;" horiz-adv-x="690" 
d="M702 394l-29 -161h-670l29 161h670z" />
    <glyph glyph-name="quoteleft" unicode="&#x2018;" horiz-adv-x="320" 
d="M206 420q-52 0 -85.5 33.5t-33.5 85.5q0 135 149 262l97 -54q-24 -27 -35 -42t-22.5 -39.5t-13.5 -49.5q29 -19 43 -40t14 -57q0 -41 -31.5 -70t-81.5 -29z" />
    <glyph glyph-name="quoteright" unicode="&#x2019;" horiz-adv-x="320" 
d="M221 770q52 0 85.5 -33.5t33.5 -85.5q0 -135 -149 -262l-97 54q24 27 35 42t22.5 39.5t13.5 49.5q-29 19 -43 40t-14 57q0 41 31.5 70t81.5 29z" />
    <glyph glyph-name="quotesinglbase" unicode="&#x201a;" horiz-adv-x="319" 
d="M122 210q52 0 85.5 -33.5t33.5 -85.5q0 -135 -149 -262l-97 54q24 27 35 42t22.5 39.5t13.5 49.5q-29 19 -43 40t-14 57q0 41 31.5 70t81.5 29z" />
    <glyph glyph-name="quotedblleft" unicode="&#x201c;" horiz-adv-x="575" 
d="M206 420q-52 0 -85.5 33.5t-33.5 85.5q0 135 149 262l97 -54q-24 -27 -35 -42t-22.5 -39.5t-13.5 -49.5q29 -19 43 -40t14 -57q0 -41 -31.5 -70t-81.5 -29zM460 420q-52 0 -85.5 33.5t-33.5 85.5q0 135 149 262l97 -54q-24 -27 -35 -42t-22.5 -39.5t-13.5 -49.5
q29 -19 43 -40t14 -57q0 -41 -31.5 -70t-81.5 -29z" />
    <glyph glyph-name="quotedblright" unicode="&#x201d;" horiz-adv-x="576" 
d="M221 770q52 0 85.5 -33.5t33.5 -85.5q0 -135 -149 -262l-97 54q24 27 35 42t22.5 39.5t13.5 49.5q-29 19 -43 40t-14 57q0 41 31.5 70t81.5 29zM476 770q52 0 85.5 -33.5t33.5 -85.5q0 -135 -149 -262l-97 54q24 27 35 42t22.5 39.5t13.5 49.5q-29 19 -43 40t-14 57
q0 41 31.5 70t81.5 29z" />
    <glyph glyph-name="quotedblbase" unicode="&#x201e;" horiz-adv-x="574" 
d="M122 210q52 0 85.5 -33.5t33.5 -85.5q0 -135 -149 -262l-97 54q24 27 35 42t22.5 39.5t13.5 49.5q-29 19 -43 40t-14 57q0 41 31.5 70t81.5 29zM376 210q52 0 85.5 -33.5t33.5 -85.5q0 -135 -149 -262l-97 54q24 27 35 42t22.5 39.5t13.5 49.5q-29 19 -43 40t-14 57
q0 41 31.5 70t81.5 29z" />
    <glyph glyph-name="dagger" unicode="&#x2020;" horiz-adv-x="660" 
d="M506 700l-28 -158h156l-28 -157h-156l-97 -553h-200l97 553h-156l28 157h156l28 158h200z" />
    <glyph glyph-name="daggerdbl" unicode="&#x2021;" horiz-adv-x="660" 
d="M506 700l-32 -178h156l-27 -157h-156l-33 -184h156l-28 -157h-156l-33 -192h-200l33 192h-156l28 157h156l33 184h-156l27 157h156l32 178h200z" />
    <glyph glyph-name="bullet" unicode="&#x2022;" horiz-adv-x="381" 
d="M194 434q59 0 101.5 -42t42.5 -100t-43 -100.5t-101 -42.5q-57 0 -101 43t-44 100q0 58 43.5 100t101.5 42z" />
    <glyph glyph-name="uni2023" unicode="&#x2023;" horiz-adv-x="400" 
d="M357 312l-285 -142v284z" />
    <glyph glyph-name="ellipsis" unicode="&#x2026;" horiz-adv-x="901" 
d="M124 201q44 0 76.5 -32t32.5 -76t-32.5 -76.5t-76.5 -32.5t-77 32.5t-33 76.5t33 76t77 32zM419 201q44 0 76.5 -32t32.5 -76t-32.5 -76.5t-76.5 -32.5t-77 32.5t-33 76.5t33 76t77 32zM715 201q44 0 76.5 -32t32.5 -76t-32.5 -76.5t-76.5 -32.5t-77 32.5t-33 76.5t33 76
t77 32z" />
    <glyph glyph-name="perthousand" unicode="&#x2030;" horiz-adv-x="1479" 
d="M229 250q-83 0 -132 45.5t-49 129.5q0 125 63 209.5t177 84.5q82 0 131.5 -48.5t49.5 -132.5q0 -124 -62 -206t-178 -82zM188 -12l554 724h144l-554 -724h-144zM236 354q50 0 75 55.5t25 130.5t-54 75q-35 0 -58.5 -29.5t-33 -70.5t-9.5 -89q0 -72 55 -72zM786 -18
q-83 0 -132 45.5t-49 129.5q0 125 63 209.5t177 84.5q82 0 131.5 -48.5t49.5 -132.5q0 -124 -62 -206t-178 -82zM1218 -18q-83 0 -132 45.5t-49 129.5q0 125 63 209.5t177 84.5q82 0 131.5 -48.5t49.5 -132.5q0 -124 -62 -206t-178 -82zM793 86q50 0 75 55.5t25 130.5
t-54 75q-35 0 -58.5 -29.5t-33 -70.5t-9.5 -89q0 -72 55 -72zM1225 86q50 0 75 55.5t25 130.5t-54 75q-35 0 -58.5 -29.5t-33 -70.5t-9.5 -89q0 -72 55 -72z" />
    <glyph glyph-name="minute" unicode="&#x2032;" horiz-adv-x="280" 
d="M308 716l-59 -336h-180l59 336h180z" />
    <glyph glyph-name="second" unicode="&#x2033;" horiz-adv-x="526" 
d="M308 716l-59 -336h-180l59 336h180zM554 716l-59 -336h-180l59 336h180z" />
    <glyph glyph-name="guilsinglleft" unicode="&#x2039;" horiz-adv-x="335" 
d="M241 550l108 -87l-143 -187l78 -183l-123 -77l-154 180l29 164z" />
    <glyph glyph-name="guilsinglright" unicode="&#x203a;" horiz-adv-x="335" 
d="M96 3l-108 87l144 190l-79 180l123 77l155 -177l-29 -164z" />
    <glyph glyph-name="uni203D" unicode="&#x203d;" horiz-adv-x="553" 
d="M352 714q105 0 169 -47t64 -132q0 -49 -21 -86t-52.5 -58.5t-63.5 -39t-57.5 -38.5t-31.5 -46l-4 -17h-155l41 262l6 32q-29 -19 -50 -60l-140 46q83 184 295 184zM341 422q8 10 22.5 26t21.5 24.5t13 21.5t6 27q0 27 -31 38l-8 -47zM254 196q44 0 76.5 -32t32.5 -75
t-32.5 -75t-76.5 -32q-43 0 -75.5 32t-32.5 75t32.5 75t75.5 32z" />
    <glyph glyph-name="fraction" unicode="&#x2044;" horiz-adv-x="290" 
d="M508 712l-555 -724h-143l555 724h143z" />
    <glyph glyph-name="zero.sups" unicode="&#x2070;" horiz-adv-x="400" 
d="M277 766q74 0 116 -44.5t42 -129.5q0 -114 -57 -195t-160 -81q-74 0 -116 44t-42 130q0 116 56.5 196t160.5 80zM266 663q-37 0 -57 -59t-20 -116q0 -40 8.5 -54.5t29.5 -14.5q25 0 44 34t26.5 73t7.5 70q0 39 -8.5 53t-30.5 14z" />
    <glyph glyph-name="four.sups" unicode="&#x2074;" horiz-adv-x="400" 
d="M422 750l-45 -256h50l-18 -104h-50l-11 -60h-125l11 60h-202l19 108l200 252h171zM273 621l-97 -127h74z" />
    <glyph glyph-name="five.sups" unicode="&#x2075;" horiz-adv-x="400" 
d="M443 750l-32 -99h-177l-19 -55q38 21 83 21q53 0 89 -33t36 -87q0 -82 -59 -131.5t-149 -49.5q-71 0 -115.5 30.5t-56.5 76.5l117 35q11 -42 63 -42q32 0 49 17.5t17 41.5q0 19 -13 30t-36 11q-36 0 -56 -25l-113 16l79 243h293z" />
    <glyph glyph-name="six.sups" unicode="&#x2076;" horiz-adv-x="400" 
d="M228 316q-70 0 -119 43t-49 134q0 30 4 53q14 96 73.5 158t150.5 62q55 0 95.5 -26t56.5 -71l-112 -35q-9 32 -46 32q-63 0 -96 -99q40 45 112 45q51 0 87 -33.5t36 -87.5q0 -80 -54.5 -127.5t-138.5 -47.5zM233 418q20 0 35 15t15 39q0 38 -34 38q-31 0 -46 -29
q-6 -13 -6 -27q0 -18 10.5 -27t25.5 -9z" />
    <glyph glyph-name="seven.sups" unicode="&#x2077;" horiz-adv-x="400" 
d="M457 750l-18 -106q-79 -72 -121 -138.5t-73 -175.5h-138q25 87 62.5 152t67 94.5t76.5 66.5h-110l-8 -48h-111l27 155h346z" />
    <glyph glyph-name="eight.sups" unicode="&#x2078;" horiz-adv-x="400" 
d="M216 316q-93 0 -136.5 34t-43.5 80q0 83 93 119q-38 31 -38 77q0 65 52.5 102.5t131.5 37.5q75 0 116.5 -32.5t41.5 -74.5q0 -68 -72 -97q65 -24 65 -94q0 -27 -10.5 -52t-32.5 -48.5t-65.5 -37.5t-101.5 -14zM275 596q30 31 30 52q0 26 -39 26q-48 0 -48 -38
q0 -21 39 -34zM225 420q34 0 50 12t16 30q0 23 -53 38l-36 10q-32 -32 -32 -55q0 -17 16 -26t39 -9z" />
    <glyph glyph-name="nine.sups" unicode="&#x2079;" horiz-adv-x="400" 
d="M206 315q-56 0 -97.5 24t-57.5 68l112 40q12 -35 50 -35q36 0 57 24t36 78q-40 -45 -110 -45q-51 0 -87 33.5t-36 87.5q0 80 55.5 127.5t140.5 47.5q69 0 117 -42.5t48 -134.5q0 -30 -4 -53q-17 -97 -74.5 -158.5t-149.5 -61.5zM245 571q33 0 46 29q6 14 6 27
q0 18 -10.5 27t-25.5 9q-20 0 -35 -15t-15 -39q0 -38 34 -38z" />
    <glyph glyph-name="uni207A" unicode="&#x207a;" horiz-adv-x="407" 
d="M338 679l-18 -100h101l-18 -105h-101l-18 -100h-125l18 100h-101l18 105h101l18 100h125z" />
    <glyph glyph-name="uni207B" unicode="&#x207b;" horiz-adv-x="407" 
d="M421 579l-18 -105h-327l18 105h327z" />
    <glyph glyph-name="uni207C" unicode="&#x207c;" horiz-adv-x="407" 
d="M435 657l-19 -106h-327l19 106h327zM407 500l-18 -106h-327l18 106h327z" />
    <glyph glyph-name="uni207F" unicode="&#x207f;" horiz-adv-x="502" 
d="M53 316l69 392h149l-7 -39q57 49 126 49q58 0 92 -31t34 -89q0 -21 -4 -40l-42 -242h-148l39 223q4 21 4 37q0 39 -42 39q-68 0 -85 -93l-36 -206h-149z" />
    <glyph glyph-name="zero.subs" unicode="&#x2080;" horiz-adv-x="400" 
d="M188 262q74 0 116 -44.5t42 -129.5q0 -114 -57 -195t-160 -81q-74 0 -116 44t-42 130q0 116 56.5 196t160.5 80zM177 159q-37 0 -57 -59t-20 -116q0 -40 8.5 -54.5t29.5 -14.5q25 0 44 34t26.5 73t7.5 70q0 39 -8.5 53t-30.5 14z" />
    <glyph glyph-name="one.subs" unicode="&#x2081;" horiz-adv-x="400" 
d="M-20 -174l19 104h103l25 146h-109l16 88h3q121 0 147 82h101l-55 -316h80l-19 -104h-311z" />
    <glyph glyph-name="two.subs" unicode="&#x2082;" horiz-adv-x="400" 
d="M196 262q67 0 107 -33t40 -86q0 -66 -53 -117t-147 -96h167l-19 -104h-342l18 101l40.5 25l40 24.5l36 23t34.5 23.5l28 21.5t24.5 22.5l17.5 21.5t12.5 23t3.5 22.5q0 25 -28 25q-37 0 -49 -66h-131q14 78 64 123.5t136 45.5z" />
    <glyph glyph-name="three.subs" unicode="&#x2083;" horiz-adv-x="400" 
d="M193 262q71 0 112 -31t41 -80q0 -40 -25 -66t-66 -36q74 -20 74 -89q0 -66 -53 -107t-136 -41q-75 0 -121.5 33t-58.5 96l122 27q1 -24 17.5 -38t41.5 -14q23 0 38.5 11.5t15.5 33.5q0 36 -47 36h-43l17 94h32q57 0 57 40q0 29 -34 29q-37 0 -58 -45l-122 20q21 57 73 92
t123 35z" />
    <glyph glyph-name="four.subs" unicode="&#x2084;" horiz-adv-x="400" 
d="M333 246l-45 -256h50l-18 -104h-50l-11 -60h-125l11 60h-202l19 108l200 252h171zM184 117l-97 -127h74z" />
    <glyph glyph-name="five.subs" unicode="&#x2085;" horiz-adv-x="400" 
d="M354 246l-32 -99h-177l-19 -55q38 21 83 21q53 0 89 -33t36 -87q0 -82 -59 -131.5t-149 -49.5q-71 0 -115.5 30.5t-56.5 76.5l117 35q11 -42 63 -42q32 0 49 17.5t17 41.5q0 19 -13 30t-36 11q-36 0 -56 -25l-113 16l79 243h293z" />
    <glyph glyph-name="six.subs" unicode="&#x2086;" horiz-adv-x="400" 
d="M139 -188q-70 0 -119 43t-49 134q0 30 4 53q14 96 73.5 158t150.5 62q55 0 95.5 -26t56.5 -71l-112 -35q-9 32 -46 32q-63 0 -96 -99q40 45 112 45q51 0 87 -33.5t36 -87.5q0 -80 -54.5 -127.5t-138.5 -47.5zM144 -86q20 0 35 15t15 39q0 38 -34 38q-32 0 -46 -29
q-6 -13 -6 -27q0 -18 10.5 -27t25.5 -9z" />
    <glyph glyph-name="seven.subs" unicode="&#x2087;" horiz-adv-x="400" 
d="M368 246l-18 -106q-79 -72 -121 -138.5t-73 -175.5h-138q25 87 62.5 152t67 94.5t76.5 66.5h-110l-8 -48h-111l27 155h346z" />
    <glyph glyph-name="eight.subs" unicode="&#x2088;" horiz-adv-x="400" 
d="M127 -188q-93 0 -136.5 34t-43.5 80q0 83 93 119q-38 31 -38 77q0 65 52.5 102.5t131.5 37.5q75 0 116.5 -32.5t41.5 -74.5q0 -68 -72 -97q65 -24 65 -94q0 -27 -10.5 -52t-32.5 -48.5t-65.5 -37.5t-101.5 -14zM186 92q30 31 30 52q0 26 -39 26q-48 0 -48 -38
q0 -21 39 -34zM136 -84q34 0 50 12t16 30q0 23 -53 38l-36 10q-32 -32 -32 -55q0 -17 16 -26t39 -9z" />
    <glyph glyph-name="nine.subs" unicode="&#x2089;" horiz-adv-x="400" 
d="M117 -189q-56 0 -97.5 24t-57.5 68l112 40q12 -35 50 -35q36 0 57 24t36 78q-40 -45 -110 -45q-51 0 -87 33.5t-36 87.5q0 80 55.5 127.5t140.5 47.5q69 0 117 -42.5t48 -134.5q0 -30 -4 -53q-17 -97 -74.5 -158.5t-149.5 -61.5zM156 67q33 0 46 29q6 14 6 27
q0 18 -10.5 27t-25.5 9q-20 0 -35 -15t-15 -39q0 -38 34 -38z" />
    <glyph glyph-name="uni208A" unicode="&#x208a;" horiz-adv-x="407" 
d="M252 189l-18 -100h101l-18 -105h-101l-18 -100h-125l18 100h-101l18 105h101l18 100h125z" />
    <glyph glyph-name="uni208B" unicode="&#x208b;" horiz-adv-x="407" 
d="M335 89l-18 -105h-327l18 105h327z" />
    <glyph glyph-name="uni208C" unicode="&#x208c;" horiz-adv-x="407" 
d="M349 167l-19 -106h-327l19 106h327zM321 10l-18 -106h-327l18 106h327z" />
    <glyph glyph-name="uni208D" unicode="&#x208d;" horiz-adv-x="300" 
d="M75 -208q-66 107 -66 205q0 154 146 307h98q-61 -95 -90 -173.5t-29 -166.5q0 -70 29 -172h-88z" />
    <glyph glyph-name="uni208E" unicode="&#x208e;" horiz-adv-x="300" 
d="M-31 -208q61 95 90 173.5t29 166.5q0 70 -29 172h88q66 -107 66 -205q0 -154 -146 -307h-98z" />
    <glyph glyph-name="uni2099" unicode="&#x2099;" horiz-adv-x="502" 
d="M-33 -174l69 392h149l-7 -39q57 49 126 49q58 0 92 -31t34 -89q0 -21 -4 -40l-42 -242h-148l39 223q4 21 4 37q0 39 -42 39q-68 0 -85 -93l-36 -206h-149z" />
    <glyph glyph-name="Euro" unicode="&#x20ac;" horiz-adv-x="660" 
d="M496 719q134 0 230 -83l-81 -151q-56 74 -139 74q-47 0 -85.5 -24.5t-57.5 -71.5h263l-49 -97h-242q-2 -9 -4 -27h237l-48 -97h-193q6 -98 113 -98q80 0 163 50l-27 -166q-84 -47 -192 -47q-118 0 -191 65.5t-77 195.5h-109l48 97h63q2 18 4 27h-88l49 97h62
q41 125 139.5 190.5t211.5 65.5z" />
    <glyph glyph-name="uni20B9" unicode="&#x20b9;" 
d="M632 700l-18 -99h-154q32 -29 43 -78h97l-17 -97h-80q-16 -69 -75.5 -115t-138.5 -46h-3l180 -265h-260l-166 255l21 119h108q66 0 101 52h-200l17 97h205q-10 78 -103 78h-88l18 99h513z" />
    <glyph glyph-name="uni20BA" unicode="&#x20ba;" 
d="M386 247h177q-26 -126 -117 -194t-234 -68q-93 0 -169 30l45 254l-62 -30l17 97l62 30l9 49l-62 -29l17 97l62 29l33 188h200l-15 -84l176 84l-17 -97l-176 -84l-8 -47l176 86l-17 -97l-177 -86l-42 -239q34 0 61 19q38 27 61 92z" />
    <glyph glyph-name="uni20BC" unicode="&#x20bc;" 
d="M428 598q107 -21 149.5 -95.5t21.5 -191.5l-55 -311h-177l60 340q13 73 -27 100l-78 -440h-140l78 442q-48 -23 -63 -102l-60 -340h-178l56 311q24 131 85.5 204.5t188.5 86.5l17 98h140z" />
    <glyph glyph-name="uni20BD" unicode="&#x20bd;" 
d="M323 247h-72l-6 -31h169l-17 -97h-169l-21 -119h-212l21 119h-48l17 97h48l6 31h-48l27 156h48l53 297h253q274 0 274 -193q0 -125 -88.5 -192.5t-234.5 -67.5zM301 533l-23 -130h49q98 0 98 75q0 31 -17 43t-52 12h-55z" />
    <glyph glyph-name="uni2105" unicode="&#x2105;" horiz-adv-x="900" 
d="M104 -12l554 724h144l-554 -724h-144zM240 350q-78 0 -121 39t-43 104q0 88 56.5 144.5t146.5 56.5q114 0 155 -92l-107 -42q-12 40 -49 40q-35 0 -53 -30.5t-18 -71.5q0 -53 45 -53q37 0 57 43l103 -43q-63 -95 -172 -95zM636 -10q-79 0 -123.5 38.5t-44.5 106.5
q0 89 58 144t153 55q77 0 122.5 -40.5t45.5 -108.5q0 -85 -59 -140t-152 -55zM647 85q33 0 51.5 30t18.5 67q0 58 -49 58q-35 0 -52.5 -30t-17.5 -69q0 -56 49 -56z" />
    <glyph glyph-name="uni2113" unicode="&#x2113;" 
d="M310 -18q-96 0 -139 41t-43 101q0 15 3 30l2 9l-44 -37l-39 86l103 72l39 232q17 95 73 148.5t150 53.5q169 0 169 -136t-235 -315l-9 -53q-4 -26 -4 -34q0 -51 56 -51q46 0 84 16l-25 -144q-78 -19 -141 -19zM374 411q26 20 53 69t27 90q0 24 -19 24q-28 0 -40 -60z" />
    <glyph glyph-name="uni2116" unicode="&#x2116;" horiz-adv-x="1200" 
d="M976 363q-79 0 -123.5 38.5t-44.5 106.5q0 89 58 144t153 55q77 0 122.5 -40.5t45.5 -108.5q0 -85 -59 -140t-152 -55zM15 0l124 700h261l112 -437l76 437h184l-124 -700h-256l-118 430l-75 -430h-184zM987 458q33 0 51.5 30t18.5 67q0 58 -49 58q-35 0 -52.5 -30
t-17.5 -69q0 -56 49 -56zM769 215l19 105h347l-19 -105h-347z" />
    <glyph glyph-name="uni2117" unicode="&#x2117;" horiz-adv-x="900" 
d="M464 -22q-168 0 -274.5 105t-106.5 263t107 264t274 106t273 -106t106 -264t-106 -263t-273 -105zM464 62q129 0 204.5 83t75.5 201t-75.5 202t-204.5 84q-89 0 -155 -42.5t-96.5 -106t-30.5 -137.5q0 -115 74.5 -199.5t207.5 -84.5zM311 164v392h172q182 0 182 -130
q0 -70 -49.5 -101.5t-155.5 -31.5h-25v-129h-124zM435 382h49q53 0 53 42q0 36 -50 36h-52v-78z" />
    <glyph glyph-name="uni2120" unicode="&#x2120;" horiz-adv-x="1200" 
d="M328 259q-129 0 -211 81l92 77q55 -52 126 -52q57 0 57 28q0 14 -13 19.5t-63 17.5q-71 16 -108 51.5t-37 82.5q0 69 57 107.5t146 38.5q114 0 197 -72l-94 -73q-47 40 -106 40q-22 0 -36.5 -7.5t-14.5 -20.5t15 -21t60 -17q146 -30 146 -124q0 -79 -60.5 -117.5
t-152.5 -38.5zM552 266l103 434h189l8 -296l111 296h194l-50 -434h-130l41 294l-121 -294h-137l-17 294l-63 -294h-128z" />
    <glyph glyph-name="trademark" unicode="&#x2122;" horiz-adv-x="1000" 
d="M152 266l57 325h-123l20 109h383l-20 -109h-123l-57 -325h-137zM414 266l103 434h189l8 -296l111 296h194l-50 -434h-130l41 294l-121 -294h-137l-17 294l-63 -294h-128z" />
    <glyph glyph-name="uni2126" unicode="&#x2126;" horiz-adv-x="790" 
d="M-9 0l27 153h104q-85 65 -85 179q0 165 117.5 276t296.5 111q146 0 243 -76t97 -219q0 -86 -38 -160t-110 -111h89l-27 -153h-304l27 153q70 20 106 89t36 164q0 70 -37 106.5t-97 36.5q-90 0 -137 -73.5t-47 -180.5q0 -116 70 -142l-27 -153h-304z" />
    <glyph glyph-name="estimated" unicode="&#x212e;" horiz-adv-x="945" 
d="M487 716q165 0 284 -107t119 -270h-657v-218q30 -45 104 -71t151 -26q75 0 147.5 25.5t112.5 72.5h58q-117 -138 -319 -138q-172 0 -287 103t-115 260q0 156 117.5 262.5t284.5 106.5zM488 676q-173 0 -255 -101v-196h509v196q-93 101 -254 101z" />
    <glyph glyph-name="uni2150" unicode="&#x2150;" horiz-adv-x="1060" 
d="M898 712l-555 -724h-143l555 724h143zM60 280l19 104h103l25 146h-109l16 88h3q121 0 147 82h101l-55 -316h80l-19 -104h-311zM1059 420l-18 -106q-79 -72 -121 -138.5t-73 -175.5h-138q25 87 62.5 152t67 94.5t76.5 66.5h-110l-8 -48h-111l27 155h346z" />
    <glyph glyph-name="uni2151" unicode="&#x2151;" horiz-adv-x="1080" 
d="M898 712l-555 -724h-143l555 724h143zM60 280l19 104h103l25 146h-109l16 88h3q121 0 147 82h101l-55 -316h80l-19 -104h-311zM828 -14q-56 0 -97.5 24t-57.5 68l112 40q12 -35 50 -35q36 0 57 24t36 78q-40 -45 -110 -45q-51 0 -87 33.5t-36 87.5q0 80 55.5 127.5
t140.5 47.5q69 0 117 -42.5t48 -134.5q0 -30 -4 -53q-17 -97 -74.5 -158.5t-149.5 -61.5zM867 242q33 0 46 29q6 13 6 27q0 18 -10.5 27t-25.5 9q-20 0 -35 -15t-15 -39q0 -38 34 -38z" />
    <glyph glyph-name="uni2152" unicode="&#x2152;" horiz-adv-x="1436" 
d="M898 712l-555 -724h-143l555 724h143zM59 280l19 104h103l28 162q-39 -26 -113 -26l17 98q65 0 94.5 19t56.5 63h100l-55 -316h80l-19 -104h-311zM1239 436q74 0 116 -44.5t42 -129.5q0 -114 -57 -195t-160 -81q-74 0 -116 44t-42 130q0 116 56.5 196t160.5 80zM630 0
l19 104h103l28 162q-39 -26 -113 -26l17 98q65 0 94.5 19t56.5 63h100l-55 -316h80l-19 -104h-311zM1228 333q-37 0 -57 -59t-20 -116q0 -40 8.5 -54.5t29.5 -14.5q25 0 44 34t26.5 73t7.5 70q0 39 -8.5 53t-30.5 14z" />
    <glyph glyph-name="uni2153" unicode="&#x2153;" horiz-adv-x="1030" 
d="M898 712l-555 -724h-143l555 724h143zM60 280l19 104h103l25 146h-109l16 88h3q121 0 147 82h101l-55 -316h80l-19 -104h-311zM854 436q71 0 112 -31t41 -80q0 -40 -25 -66t-66 -36q74 -20 74 -89q0 -66 -53 -107t-136 -41q-75 0 -121.5 33t-58.5 96l122 27
q1 -24 17.5 -38t41.5 -14q23 0 38.5 11.5t15.5 33.5q0 36 -47 36h-43l17 94h32q57 0 57 40q0 29 -34 29q-37 0 -58 -45l-122 20q21 57 73 92t123 35z" />
    <glyph glyph-name="uni2154" unicode="&#x2154;" horiz-adv-x="1030" 
d="M276 716q67 0 107 -33t40 -86q0 -66 -53 -117t-147 -96h167l-19 -104h-342l18 101l40.5 25l40 24.5l36 23t34.5 23.5l28 21.5t24.5 22.5l17.5 21.5t12.5 23t3.5 22.5q0 25 -28 25q-37 0 -49 -66h-131q14 78 64 123.5t136 45.5zM898 712l-555 -724h-143l555 724h143z
M854 436q71 0 112 -31t41 -80q0 -40 -25 -66t-66 -36q74 -20 74 -89q0 -66 -53 -107t-136 -41q-75 0 -121.5 33t-58.5 96l122 27q1 -24 17.5 -38t41.5 -14q23 0 38.5 11.5t15.5 33.5q0 36 -47 36h-43l17 94h32q57 0 57 40q0 29 -34 29q-37 0 -58 -45l-122 20q21 57 73 92
t123 35z" />
    <glyph glyph-name="uni2155" unicode="&#x2155;" horiz-adv-x="1040" 
d="M898 712l-555 -724h-143l555 724h143zM60 280l19 104h103l25 146h-109l16 88h3q121 0 147 82h101l-55 -316h80l-19 -104h-311zM1025 420l-32 -99h-177l-19 -55q38 21 83 21q53 0 89 -33t36 -87q0 -82 -59 -131.5t-149 -49.5q-71 0 -115.5 30.5t-56.5 76.5l117 35
q11 -42 63 -42q32 0 49 17.5t17 41.5q0 19 -13 30t-36 11q-36 0 -56 -25l-113 16l79 243h293z" />
    <glyph glyph-name="uni2156" unicode="&#x2156;" horiz-adv-x="1040" 
d="M276 716q67 0 107 -33t40 -86q0 -66 -53 -117t-147 -96h167l-19 -104h-342l18 101l40.5 25l40 24.5l36 23t34.5 23.5l28 21.5t24.5 22.5l17.5 21.5t12.5 23t3.5 22.5q0 25 -28 25q-37 0 -49 -66h-131q14 78 64 123.5t136 45.5zM898 712l-555 -724h-143l555 724h143z
M1025 420l-32 -99h-177l-19 -55q38 21 83 21q53 0 89 -33t36 -87q0 -82 -59 -131.5t-149 -49.5q-71 0 -115.5 30.5t-56.5 76.5l117 35q11 -42 63 -42q32 0 49 17.5t17 41.5q0 19 -13 30t-36 11q-36 0 -56 -25l-113 16l79 243h293z" />
    <glyph glyph-name="uni2157" unicode="&#x2157;" horiz-adv-x="1000" 
d="M273 716q71 0 112 -31t41 -80q0 -40 -25 -66t-66 -36q74 -20 74 -89q0 -66 -53 -107t-136 -41q-75 0 -121.5 33t-58.5 96l122 27q1 -24 17.5 -38t41.5 -14q23 0 38.5 11.5t15.5 33.5q0 36 -47 36h-43l17 94h32q57 0 57 40q0 29 -34 29q-37 0 -58 -45l-122 20q21 57 73 92
t123 35zM858 712l-555 -724h-143l555 724h143zM985 420l-32 -99h-177l-19 -55q38 21 83 21q53 0 89 -33t36 -87q0 -82 -59 -131.5t-149 -49.5q-71 0 -115.5 30.5t-56.5 76.5l117 35q11 -42 63 -42q32 0 49 17.5t17 41.5q0 19 -13 30t-36 11q-36 0 -56 -25l-113 16l79 243
h293z" />
    <glyph glyph-name="uni2158" unicode="&#x2158;" horiz-adv-x="1030" 
d="M888 712l-555 -724h-143l555 724h143zM413 700l-45 -256h50l-18 -104h-50l-11 -60h-125l11 60h-202l19 108l200 252h171zM264 571l-97 -127h74zM1015 420l-32 -99h-177l-19 -55q38 21 83 21q53 0 89 -33t36 -87q0 -82 -59 -131.5t-149 -49.5q-71 0 -115.5 30.5
t-56.5 76.5l117 35q11 -42 63 -42q32 0 49 17.5t17 41.5q0 19 -13 30t-36 11q-36 0 -56 -25l-113 16l79 243h293z" />
    <glyph glyph-name="uni2159" unicode="&#x2159;" horiz-adv-x="1020" 
d="M898 712l-555 -724h-143l555 724h143zM60 280l19 104h103l25 146h-109l16 88h3q121 0 147 82h101l-55 -316h80l-19 -104h-311zM790 -14q-70 0 -119 43t-49 134q0 30 4 53q14 96 73.5 158t150.5 62q55 0 95.5 -26t56.5 -71l-112 -35q-9 32 -46 32q-63 0 -96 -99
q40 45 112 45q51 0 87 -33.5t36 -87.5q0 -80 -54.5 -127.5t-138.5 -47.5zM795 88q20 0 35 15t15 39q0 38 -34 38q-31 0 -46 -29q-6 -13 -6 -27q0 -18 10.5 -27t25.5 -9z" />
    <glyph glyph-name="uni215A" unicode="&#x215a;" horiz-adv-x="980" 
d="M858 712l-555 -724h-143l555 724h143zM434 700l-32 -99h-177l-19 -55q38 21 83 21q53 0 89 -33t36 -87q0 -82 -59 -131.5t-149 -49.5q-71 0 -115.5 30.5t-56.5 76.5l117 35q11 -42 63 -42q32 0 49 17.5t17 41.5q0 19 -13 30t-36 11q-36 0 -56 -25l-113 16l79 243h293z
M750 -14q-70 0 -119 43t-49 134q0 30 4 53q14 96 73.5 158t150.5 62q55 0 95.5 -26t56.5 -71l-112 -35q-9 32 -46 32q-63 0 -96 -99q40 45 112 45q51 0 87 -33.5t36 -87.5q0 -80 -54.5 -127.5t-138.5 -47.5zM755 88q20 0 35 15t15 39q0 38 -34 38q-31 0 -46 -29
q-6 -13 -6 -27q0 -18 10.5 -27t25.5 -9z" />
    <glyph glyph-name="oneeighth" unicode="&#x215b;" horiz-adv-x="1030" 
d="M898 712l-555 -724h-143l555 724h143zM60 280l19 104h103l25 146h-109l16 88h3q121 0 147 82h101l-55 -316h80l-19 -104h-311zM788 -14q-93 0 -136.5 34t-43.5 80q0 83 93 119q-38 31 -38 77q0 65 52.5 102.5t131.5 37.5q75 0 116.5 -32.5t41.5 -74.5q0 -68 -72 -97
q65 -24 65 -94q0 -27 -10.5 -52t-32.5 -48.5t-65.5 -37.5t-101.5 -14zM847 266q30 31 30 52q0 26 -39 26q-48 0 -48 -38q0 -21 39 -34zM797 90q34 0 50 12t16 30q0 23 -53 38l-36 10q-32 -32 -32 -55q0 -17 16 -26t39 -9z" />
    <glyph glyph-name="threeeighths" unicode="&#x215c;" horiz-adv-x="990" 
d="M273 716q71 0 112 -31t41 -80q0 -40 -25 -66t-66 -36q74 -20 74 -89q0 -66 -53 -107t-136 -41q-75 0 -121.5 33t-58.5 96l122 27q1 -24 17.5 -38t41.5 -14q23 0 38.5 11.5t15.5 33.5q0 36 -47 36h-43l17 94h32q57 0 57 40q0 29 -34 29q-37 0 -58 -45l-122 20q21 57 73 92
t123 35zM858 712l-555 -724h-143l555 724h143zM748 -14q-93 0 -136.5 34t-43.5 80q0 83 93 119q-38 31 -38 77q0 65 52.5 102.5t131.5 37.5q75 0 116.5 -32.5t41.5 -74.5q0 -68 -72 -97q65 -24 65 -94q0 -27 -10.5 -52t-32.5 -48.5t-65.5 -37.5t-101.5 -14zM807 266
q30 31 30 52q0 26 -39 26q-48 0 -48 -38q0 -21 39 -34zM757 90q34 0 50 12t16 30q0 23 -53 38l-36 10q-32 -32 -32 -55q0 -17 16 -26t39 -9z" />
    <glyph glyph-name="fiveeighths" unicode="&#x215d;" horiz-adv-x="990" 
d="M858 712l-555 -724h-143l555 724h143zM434 700l-32 -99h-177l-19 -55q38 21 83 21q53 0 89 -33t36 -87q0 -82 -59 -131.5t-149 -49.5q-71 0 -115.5 30.5t-56.5 76.5l117 35q11 -42 63 -42q32 0 49 17.5t17 41.5q0 19 -13 30t-36 11q-36 0 -56 -25l-113 16l79 243h293z
M748 -14q-93 0 -136.5 34t-43.5 80q0 83 93 119q-38 31 -38 77q0 65 52.5 102.5t131.5 37.5q75 0 116.5 -32.5t41.5 -74.5q0 -68 -72 -97q65 -24 65 -94q0 -27 -10.5 -52t-32.5 -48.5t-65.5 -37.5t-101.5 -14zM807 266q30 31 30 52q0 26 -39 26q-48 0 -48 -38q0 -21 39 -34z
M757 90q34 0 50 12t16 30q0 23 -53 38l-36 10q-32 -32 -32 -55q0 -17 16 -26t39 -9z" />
    <glyph glyph-name="seveneighths" unicode="&#x215e;" horiz-adv-x="940" 
d="M808 712l-555 -724h-143l555 724h143zM448 700l-18 -106q-79 -72 -121 -138.5t-73 -175.5h-138q25 87 62.5 152t67 94.5t76.5 66.5h-110l-8 -48h-111l27 155h346zM698 -14q-93 0 -136.5 34t-43.5 80q0 83 93 119q-38 31 -38 77q0 65 52.5 102.5t131.5 37.5
q75 0 116.5 -32.5t41.5 -74.5q0 -68 -72 -97q65 -24 65 -94q0 -27 -10.5 -52t-32.5 -48.5t-65.5 -37.5t-101.5 -14zM757 266q30 31 30 52q0 26 -39 26q-48 0 -48 -38q0 -21 39 -34zM707 90q34 0 50 12t16 30q0 23 -53 38l-36 10q-32 -32 -32 -55q0 -17 16 -26t39 -9z" />
    <glyph glyph-name="uni215F" unicode="&#x215f;" horiz-adv-x="680" 
d="M898 712l-555 -724h-143l555 724h143zM60 280l19 104h103l25 146h-109l16 88h3q121 0 147 82h101l-55 -316h80l-19 -104h-311z" />
    <glyph glyph-name="uni2189" unicode="&#x2189;" horiz-adv-x="980" 
d="M268 716q74 0 116 -44.5t42 -129.5q0 -114 -57 -195t-160 -81q-74 0 -116 44t-42 130q0 116 56.5 196t160.5 80zM848 712l-555 -724h-143l555 724h143zM257 613q-37 0 -57 -59t-20 -116q0 -40 8.5 -54.5t29.5 -14.5q25 0 44 34t26.5 73t7.5 70q0 39 -8.5 53t-30.5 14z
M804 436q71 0 112 -31t41 -80q0 -40 -25 -66t-66 -36q74 -20 74 -89q0 -66 -53 -107t-136 -41q-75 0 -121.5 33t-58.5 96l122 27q1 -24 17.5 -38t41.5 -14q23 0 38.5 11.5t15.5 33.5q0 36 -47 36h-43l17 94h32q57 0 57 40q0 29 -34 29q-37 0 -58 -45l-122 20q21 57 73 92
t123 35z" />
    <glyph glyph-name="arrowleft" unicode="&#x2190;" horiz-adv-x="900" 
d="M417 693l124 -106l-182 -183h459v-150h-459l182 -183l-124 -106l-328 364z" />
    <glyph glyph-name="arrowup" unicode="&#x2191;" horiz-adv-x="900" 
d="M470 713l366 -329l-104 -117l-177 168v-435h-170v435l-177 -168l-104 117z" />
    <glyph glyph-name="arrowright" unicode="&#x2192;" horiz-adv-x="900" 
d="M503 693l328 -364l-328 -364l-124 106l182 183h-459v150h459l-182 183z" />
    <glyph glyph-name="arrowdown" unicode="&#x2193;" horiz-adv-x="900" 
d="M536 660v-434l177 167l104 -117l-366 -329l-366 329l104 117l177 -167v434h170z" />
    <glyph glyph-name="arrowboth" unicode="&#x2194;" horiz-adv-x="1280" 
d="M875 693l328 -364l-328 -364l-124 106l182 183h-566l182 -183l-124 -106l-328 364l328 364l124 -106l-182 -183h566l-182 183z" />
    <glyph glyph-name="arrowupdn" unicode="&#x2195;" horiz-adv-x="900" 
d="M462 883l366 -329l-104 -112l-178 168v-537l178 168l104 -112l-366 -329l-366 329l104 112l178 -168v537l-178 -168l-104 112z" />
    <glyph glyph-name="uni2196" unicode="&#x2196;" horiz-adv-x="920" 
d="M689 631l8 -154l-264 6l334 -336l-115 -112l-327 329l3 -255l-165 6l26 489z" />
    <glyph glyph-name="uni2197" unicode="&#x2197;" horiz-adv-x="920" 
d="M214 631l500 -27l26 -489l-165 -6l3 255l-327 -329l-115 112l334 336l-264 -6z" />
    <glyph glyph-name="uni2198" unicode="&#x2198;" horiz-adv-x="920" 
d="M284 601l327 -329l-3 255l165 -6l-26 -489l-500 -27l-8 154l264 -6l-334 336z" />
    <glyph glyph-name="uni2199" unicode="&#x2199;" horiz-adv-x="920" 
d="M684 601l115 -112l-334 -336l264 6l-8 -154l-500 27l-26 489l165 6l-3 -255z" />
    <glyph glyph-name="partialdiff" unicode="&#x2202;" horiz-adv-x="660" 
d="M279 -18q-117 0 -190 59t-73 162q0 104 78 180.5t191 76.5t167 -68q0 12 -2 29q-9 80 -68 113t-204 33l27 152q104 -1 181.5 -19.5t125.5 -49.5t77.5 -77.5t40.5 -97t11 -115.5q0 -107 -39.5 -191t-122.5 -135.5t-200 -51.5zM305 134q44 0 72 28t28 74q0 34 -20.5 54
t-54.5 20q-48 0 -76.5 -28.5t-28.5 -73.5q0 -34 20.5 -54t59.5 -20z" />
    <glyph glyph-name="emptyset" unicode="&#x2205;" horiz-adv-x="900" 
d="M713 620q117 -109 117 -271q0 -153 -106 -259t-259 -106q-103 0 -190 52l-42 -56h-105l80 107q-110 107 -110 262q0 153 107 260t260 107q97 0 180 -47l37 50h105zM243 349q0 -82 53 -145l262 349q-42 21 -93 21q-93 0 -157.5 -66t-64.5 -159zM465 126q92 0 156 65
t64 158q0 89 -60 154l-264 -352q48 -25 104 -25z" />
    <glyph glyph-name="uni2206" unicode="&#x2206;" horiz-adv-x="661" 
d="M537 700l96 -700h-701l343 700h262zM218 160h190l-26 391z" />
    <glyph glyph-name="product" unicode="&#x220f;" horiz-adv-x="660" 
d="M709 700l-27 -152h-62l-97 -548h-200l97 548h-82l-97 -548h-200l97 548h-62l27 152h606z" />
    <glyph glyph-name="summation" unicode="&#x2211;" 
d="M636 700l-27 -153h-284l121 -128l-21 -119l-171 -144h286l-28 -156h-520l26 145l255 214l-183 195l26 146h520z" />
    <glyph glyph-name="minus" unicode="&#x2212;" 
d="M551 371l-29 -161h-466l29 161h466z" />
    <glyph glyph-name="uni2215" unicode="&#x2215;" horiz-adv-x="290" 
d="M508 712l-555 -724h-143l555 724h143z" />
    <glyph glyph-name="uni2219" unicode="&#x2219;" horiz-adv-x="332" 
d="M173 428q49 0 84.5 -35t35.5 -84q0 -48 -35.5 -83.5t-84.5 -35.5q-48 0 -84.5 35.5t-36.5 83.5t36.5 83.5t84.5 35.5z" />
    <glyph glyph-name="radical" unicode="&#x221a;" 
d="M863 867l-27 -152h-196l-313 -715h-219l-92 522h193l26 -335l289 680h339z" />
    <glyph glyph-name="infinity" unicode="&#x221e;" horiz-adv-x="928" 
d="M667 493q106 0 168 -63.5t62 -164.5q0 -99 -66 -163t-171 -64q-67 0 -113 28t-82 85q-43 -57 -90 -85t-116 -28q-106 0 -168 63.5t-62 164.5q0 99 66 163t171 64q67 0 113 -28.5t81 -85.5q43 58 90.5 86t116.5 28zM290 342q-25 0 -43.5 -19t-18.5 -57t16.5 -57t41.5 -19
q53 0 83 87q-30 65 -79 65zM640 341q-53 0 -83 -87q30 -65 79 -65q25 0 43.5 19t18.5 57t-16.5 57t-41.5 19z" />
    <glyph glyph-name="integral" unicode="&#x222b;" horiz-adv-x="300" 
d="M-21 -213q-78 0 -145 23l25 141q47 -13 84 -13q26 0 38 7.5t15 26.5l128 721q28 159 213 159q78 0 145 -23l-25 -141q-47 13 -84 13q-26 0 -38 -7.5t-15 -26.5l-128 -721q-28 -159 -213 -159z" />
    <glyph glyph-name="congruent" unicode="&#x2245;" 
d="M435 510q-46 0 -96.5 28t-77.5 28q-58 0 -96 -49l-85 73q91 123 201 123q50 0 99 -27.5t75 -27.5q52 0 94 52l86 -77q-89 -123 -200 -123zM574 460l-29 -161h-466l29 161h466zM532 224l-28 -161h-466l28 161h466z" />
    <glyph glyph-name="approxequal" unicode="&#x2248;" horiz-adv-x="660" 
d="M436 314q-46 0 -96.5 28t-77.5 28q-58 0 -96 -49l-85 73q91 123 201 123q50 0 99 -27.5t75 -27.5q52 0 94 52l86 -77q-89 -123 -200 -123zM392 100q-46 0 -96.5 28t-77.5 28q-58 0 -96 -49l-85 73q91 123 201 123q50 0 99 -27.5t75 -27.5q52 0 94 52l86 -77
q-89 -123 -200 -123z" />
    <glyph glyph-name="uni2259" unicode="&#x2259;" 
d="M454 700l94 -158h-151l-38 61l-60 -61h-161l156 158h160zM574 501l-29 -161h-466l29 161h466zM532 265l-28 -161h-466l28 161h466z" />
    <glyph glyph-name="notequal" unicode="&#x2260;" 
d="M589 588l-69 -87h54l-29 -161h-154l-60 -75h201l-28 -161h-301l-75 -94h-107l75 94h-58l28 161h158l60 75h-205l29 161h305l69 87h107z" />
    <glyph glyph-name="lessequal" unicode="&#x2264;" 
d="M604 676l-36 -202l-288 -50l271 -50l-34 -194l-441 144l37 208zM514 161l-29 -161h-466l29 161h466z" />
    <glyph glyph-name="greaterequal" unicode="&#x2265;" 
d="M138 676l441 -144l-37 -208l-491 -144l36 202l289 50l-272 50zM514 161l-29 -161h-466l29 161h466z" />
    <glyph glyph-name="dotmath" unicode="&#x22c5;" 
d="M271 410q49 0 84.5 -35t35.5 -84q0 -48 -35.5 -83.5t-84.5 -35.5q-48 0 -84.5 35.5t-36.5 83.5t36.5 83.5t84.5 35.5z" />
    <glyph glyph-name="uni2460" unicode="&#x2460;" horiz-adv-x="900" 
d="M464 719q167 0 273 -106t106 -264t-106 -263t-273 -105q-168 0 -274.5 105t-106.5 263t107 264t274 106zM464 635q-129 0 -205.5 -84t-76.5 -202t76 -201t206 -83q129 0 204.5 83t75.5 201t-75.5 202t-204.5 84zM329 159v95h94v147q-32 -24 -99 -24v89q59 0 83.5 17.5
t41.5 57.5h90v-287h73v-95h-283z" />
    <glyph glyph-name="uni2461" unicode="&#x2461;" horiz-adv-x="900" 
d="M464 719q167 0 273 -106t106 -264t-106 -263t-273 -105q-168 0 -274.5 105t-106.5 263t107 264t274 106zM464 635q-129 0 -205.5 -84t-76.5 -202t76 -201t206 -83q129 0 204.5 83t75.5 201t-75.5 202t-204.5 84zM464 556q68 0 109 -35t41 -85q0 -60 -34 -100.5
t-118 -81.5h156v-95h-311v92q120 85 151.5 114.5t31.5 66.5q0 30 -29 30q-35 0 -35 -60h-119q0 70 40 112t117 42z" />
    <glyph glyph-name="uni2462" unicode="&#x2462;" horiz-adv-x="900" 
d="M464 719q167 0 273 -106t106 -264t-106 -263t-273 -105q-168 0 -274.5 105t-106.5 263t107 264t274 106zM464 635q-129 0 -205.5 -84t-76.5 -202t76 -201t206 -83q129 0 204.5 83t75.5 201t-75.5 202t-204.5 84zM468 556q70 0 109.5 -31t39.5 -79q0 -60 -67 -84
q35 -7 57.5 -29t22.5 -59q0 -59 -45 -93t-121 -34q-66 0 -110 30t-57 87l111 25q11 -48 57 -48q43 0 43 37t-48 37h-38v85h30q46 0 46 32q0 31 -34 31q-35 0 -48 -41l-112 18q10 51 54.5 83.5t109.5 32.5z" />
    <glyph glyph-name="uni2463" unicode="&#x2463;" horiz-adv-x="900" 
d="M464 719q167 0 273 -106t106 -264t-106 -263t-273 -105q-168 0 -274.5 105t-106.5 263t107 264t274 106zM464 635q-129 0 -205.5 -84t-76.5 -202t76 -201t206 -83q129 0 204.5 83t75.5 201t-75.5 202t-204.5 84zM580 541v-233h45v-94h-45v-55h-114v55h-183v98l147 229
h150zM465 424l-71 -116h71v116z" />
    <glyph glyph-name="uni2464" unicode="&#x2464;" horiz-adv-x="900" 
d="M464 719q167 0 273 -106t106 -264t-106 -263t-273 -105q-168 0 -274.5 105t-106.5 263t107 264t274 106zM464 635q-129 0 -205.5 -84t-76.5 -202t76 -201t206 -83q129 0 204.5 83t75.5 201t-75.5 202t-204.5 84zM606 541l-14 -90h-160l-10 -55q30 24 76 24q55 0 93 -33
t38 -91q0 -68 -45 -108.5t-128 -40.5q-63 0 -105.5 27.5t-57.5 69.5l106 33q12 -40 58 -40q26 0 39.5 14t13.5 34q0 43 -50 43q-34 0 -51 -22l-102 14l33 221h266z" />
    <glyph glyph-name="uni2465" unicode="&#x2465;" horiz-adv-x="900" 
d="M464 719q167 0 273 -106t106 -264t-106 -263t-273 -105q-168 0 -274.5 105t-106.5 263t107 264t274 106zM464 635q-129 0 -205.5 -84t-76.5 -202t76 -201t206 -83q129 0 204.5 83t75.5 201t-75.5 202t-204.5 84zM469 556q52 0 90 -24t56 -65l-100 -31q-11 29 -46 29
q-29 0 -46 -22.5t-24 -73.5q30 47 98 47q53 0 90.5 -34.5t37.5 -94.5q0 -65 -46 -102.5t-115 -37.5q-172 0 -172 205q0 91 49.5 147.5t127.5 56.5zM465 323q-18 0 -29 -11.5t-11 -31.5t11.5 -30.5t24.5 -10.5q17 0 29.5 11t12.5 33q0 17 -9.5 28.5t-28.5 11.5z" />
    <glyph glyph-name="uni2466" unicode="&#x2466;" horiz-adv-x="900" 
d="M464 719q167 0 273 -106t106 -264t-106 -263t-273 -105q-168 0 -274.5 105t-106.5 263t107 264t274 106zM464 635q-129 0 -205.5 -84t-76.5 -202t76 -201t206 -83q129 0 204.5 83t75.5 201t-75.5 202t-204.5 84zM623 541v-96q-60 -66 -87.5 -126t-38.5 -160h-125
q9 80 32.5 138.5t45.5 85.5t59 61h-100v-44h-101v141h315z" />
    <glyph glyph-name="uni2467" unicode="&#x2467;" horiz-adv-x="900" 
d="M464 719q167 0 273 -106t106 -264t-106 -263t-273 -105q-168 0 -274.5 105t-106.5 263t107 264t274 106zM464 635q-129 0 -205.5 -84t-76.5 -202t76 -201t206 -83q129 0 204.5 83t75.5 201t-75.5 202t-204.5 84zM462 147q-88 0 -131 34t-43 79q0 70 70 97q-48 33 -48 89
q0 47 40 78.5t112 31.5q74 0 114.5 -32t40.5 -74q0 -52 -51 -79q41 -18 56.5 -39.5t15.5 -58.5q0 -52 -41.5 -89t-134.5 -37zM483 401q20 25 20 42q0 14 -11.5 21.5t-28.5 7.5q-39 0 -39 -30q0 -22 41 -36zM463 241q53 0 53 35q0 15 -11.5 22.5t-41.5 15.5l-34 9
q-21 -22 -21 -46q0 -18 15.5 -27t39.5 -9z" />
    <glyph glyph-name="uni2468" unicode="&#x2468;" horiz-adv-x="900" 
d="M464 719q167 0 273 -106t106 -264t-106 -263t-273 -105q-168 0 -274.5 105t-106.5 263t107 264t274 106zM464 635q-129 0 -205.5 -84t-76.5 -202t76 -201t206 -83q129 0 204.5 83t75.5 201t-75.5 202t-204.5 84zM450 147q-54 0 -92.5 21.5t-55.5 58.5l99 40
q11 -32 51 -32q63 0 70 99q-30 -47 -95 -47q-53 0 -92 34.5t-39 94.5q0 65 46 102.5t115 37.5q172 0 172 -205q0 -95 -45.5 -149.5t-133.5 -54.5zM456 380q18 0 29 11.5t11 31.5t-11.5 30t-24.5 10q-16 0 -29 -11t-13 -32q0 -17 9.5 -28.5t28.5 -11.5z" />
    <glyph glyph-name="uni24EA" unicode="&#x24ea;" horiz-adv-x="900" 
d="M464 719q167 0 273 -106t106 -264t-106 -263t-273 -105q-168 0 -274.5 105t-106.5 263t107 264t274 106zM464 635q-129 0 -205.5 -84t-76.5 -202t76 -201t206 -83q129 0 204.5 83t75.5 201t-75.5 202t-204.5 84zM463 556q78 0 122 -53t44 -150q0 -100 -44 -153t-122 -53
t-122 53t-44 153q0 98 43.5 150.5t122.5 52.5zM463 462q-28 0 -37.5 -25.5t-9.5 -80.5q0 -59 10 -87.5t37 -28.5q47 0 47 116q0 54 -10.5 80t-36.5 26z" />
    <glyph glyph-name="uni24FF" unicode="&#x24ff;" horiz-adv-x="900" 
d="M464 -19q-168 0 -274.5 105t-106.5 263t107 264t274 106t273 -106t106 -264t-106 -263t-273 -105zM463 147q78 0 122 53t44 153q0 97 -44 150t-122 53q-79 0 -122.5 -52.5t-43.5 -150.5q0 -100 44 -153t122 -53zM463 240q-27 0 -37 29t-10 87q0 54 10 80t37 26
q26 0 36.5 -26t10.5 -80q0 -116 -47 -116z" />
    <glyph glyph-name="filledbox" unicode="&#x25a0;" 
d="M109 454h379v-379h-379v379z" />
    <glyph glyph-name="uni25A1" unicode="&#x25a1;" 
d="M109 454h379v-379h-379v379zM232 331v-133h133v133h-133z" />
    <glyph glyph-name="uni25B3" unicode="&#x25b3;" horiz-adv-x="900" 
d="M52 0l352 709l348 -709h-700zM296 139h212l-104 237z" />
    <glyph glyph-name="uni25B4" unicode="&#x25b4;" 
d="M264 454l190 -379h-379z" />
    <glyph glyph-name="uni25B8" unicode="&#x25b8;" 
d="M505 264l-379 -189v379z" />
    <glyph glyph-name="uni25BD" unicode="&#x25bd;" horiz-adv-x="900" 
d="M176 700h700l-348 -709zM420 561l108 -237l104 237h-212z" />
    <glyph glyph-name="uni25BE" unicode="&#x25be;" 
d="M331 75l-189 379h379z" />
    <glyph glyph-name="uni25C2" unicode="&#x25c2;" 
d="M92 264l379 190v-379z" />
    <glyph glyph-name="uni25C6" unicode="&#x25c6;" 
d="M299 539l260 -273l-260 -278l-260 278z" />
    <glyph glyph-name="uni25C7" unicode="&#x25c7;" 
d="M299 539l260 -273l-260 -278l-260 278zM299 361l-89 -93l89 -102l89 102z" />
    <glyph glyph-name="lozenge" unicode="&#x25ca;" 
d="M425 700l180 -339l-179 -361h-220l-179 359l180 341h218zM315 572l-94 -212l96 -228l94 227z" />
    <glyph glyph-name="circle" unicode="&#x25cb;" 
d="M300 27q-100 0 -171 70.5t-71 171.5q0 100 71 170.5t171 70.5t170.5 -70.5t70.5 -170.5t-70.5 -171t-170.5 -71zM300 171q35 0 60 28t25 70t-25 69.5t-60 27.5t-60.5 -27.5t-25.5 -69.5q0 -43 25.5 -70.5t60.5 -27.5z" />
    <glyph glyph-name="uni25CF" unicode="&#x25cf;" 
d="M300 27q-100 0 -171 70.5t-71 171.5q0 100 71 170.5t171 70.5t170.5 -70.5t70.5 -170.5t-70.5 -171t-170.5 -71z" />
    <glyph glyph-name="uni2605" unicode="&#x2605;" horiz-adv-x="739" 
d="M565 267l79 -277l-242 177l-242 -177l80 280l-201 195l266 -29l94 277l96 -278l273 29z" />
    <glyph glyph-name="uni2610" unicode="&#x2610;" horiz-adv-x="900" 
d="M114 0v700h700v-700h-700zM267 153h394v394h-394v-394z" />
    <glyph glyph-name="uni2611" unicode="&#x2611;" horiz-adv-x="900" 
d="M114 0v700h700v-700h-700zM267 153h394v394h-394v-394zM548 523h102l-163 -337h-111l-82 171h106l32 -77z" />
    <glyph glyph-name="uni2612" unicode="&#x2612;" horiz-adv-x="900" 
d="M114 700h700v-700h-700v700zM661 153v394h-394v-394h394zM397 172h-119l119 179l-75 150h116l34 -67l59 86h118l-129 -180l74 -144h-120l-25 51z" />
    <glyph glyph-name="uni2620" unicode="&#x2620;" 
d="M299 129q-41 0 -72 10l-33 65q-17 10 -23.5 17t-9.5 21v42q-31 35 -31 102q0 66 48.5 109.5t120.5 43.5t120.5 -43.5t48.5 -109.5q0 -67 -31 -102v-42q-3 -14 -9.5 -21t-23.5 -17l-33 -65q-31 -10 -72 -10zM137 231l-57 28q-30 -19 -49 -19q-11 0 -19 7t-8 20q0 31 36 35
l3 7q-13 11 -13 29q0 13 8.5 21t23.5 8q36 0 41 -58l34 -20v-58zM461 231v58l34 20q5 58 41 58q15 0 23.5 -8t8.5 -21q0 -18 -13 -29l3 -7q36 -4 36 -35q0 -13 -8 -20t-19 -7q-19 0 -49 19zM218 285q17 0 28.5 10.5t11.5 26.5q0 17 -11.5 28t-28.5 11q-16 0 -27.5 -11
t-11.5 -28q0 -16 11.5 -26.5t27.5 -10.5zM380 285q16 0 27.5 10.5t11.5 26.5q0 17 -11.5 28t-27.5 11q-17 0 -28.5 -11t-11.5 -28q0 -16 11.5 -26.5t28.5 -10.5zM264 206q7 0 18 3.5t17 3.5t17 -3.5t18 -3.5v29q-16 45 -35 45t-35 -45v-29zM89 32q-15 0 -23.5 8t-8.5 21
q0 18 13 29l-3 7q-36 4 -36 35q0 13 8 20t19 7q19 0 49 -19l71 38l25 -47l-73 -41q-5 -58 -41 -58zM509 32q-36 0 -41 58l-73 41l25 47l71 -38q30 19 49 19q11 0 19 -7t8 -20q0 -31 -36 -35l-3 -7q13 -11 13 -29q0 -13 -8.5 -21t-23.5 -8z" />
    <glyph glyph-name="smileface" unicode="&#x263a;" 
d="M300 -18q-123 0 -204.5 82.5t-81.5 204.5q0 121 81.5 203.5t204.5 82.5q122 0 203.5 -82.5t81.5 -203.5q0 -123 -81 -205t-204 -82zM301 76q76 0 127 51t51 142q0 90 -51 141t-127 51q-78 0 -129.5 -51t-51.5 -141q0 -91 51.5 -142t129.5 -51zM217 292q-25 0 -40.5 15.5
t-15.5 38.5q0 22 15.5 37t40.5 15q24 0 39.5 -15t15.5 -37q0 -23 -15.5 -38.5t-39.5 -15.5zM378 292q-25 0 -40.5 15.5t-15.5 38.5q0 22 15.5 37t40.5 15q24 0 39.5 -15t15.5 -37q0 -23 -15.5 -38.5t-39.5 -15.5zM299 105q-62 0 -105 40.5t-50 97.5h66q22 -71 89 -71t89 71
h66q-7 -57 -50 -97.5t-105 -40.5z" />
    <glyph glyph-name="invsmileface" unicode="&#x263b;" 
d="M300 -18q-123 0 -204.5 82.5t-81.5 204.5q0 121 81.5 203.5t204.5 82.5q122 0 203.5 -82.5t81.5 -203.5q0 -123 -81 -205t-204 -82zM211 292q24 0 39.5 15.5t15.5 38.5q0 22 -15.5 37t-39.5 15q-25 0 -40.5 -15t-15.5 -37q0 -23 15.5 -38.5t40.5 -15.5zM387 292
q24 0 39.5 15.5t15.5 38.5q0 22 -15.5 37t-39.5 15q-25 0 -40.5 -15t-15.5 -37q0 -23 15.5 -38.5t40.5 -15.5zM299 83q62 0 105 40.5t50 97.5h-66q-22 -71 -89 -71t-89 71h-66q7 -57 50 -97.5t105 -40.5z" />
    <glyph glyph-name="sun" unicode="&#x263c;" 
d="M348 542v-116q16 -5 32 -12l89 90l71 -71l-91 -92q6 -14 8 -22h122v-99h-118q-6 -18 -10 -27l89 -89l-71 -71l-83 85q-19 -11 -38 -17v-106h-99v106q-21 6 -38 16l-82 -84l-71 71l87 87q-5 9 -11 29h-115v99h119q6 16 10 24l-90 90l71 71l89 -89q15 7 31 11v116h99z
M298 336q-29 0 -48.5 -19t-19.5 -53t19.5 -53.5t48.5 -19.5q28 0 47.5 19.5t19.5 53.5t-19.5 53t-47.5 19z" />
    <glyph glyph-name="female" unicode="&#x2640;" 
d="M364 217v-40h92v-99h-92v-78h-99v78h-91v99h91v37q-59 14 -96.5 61t-37.5 108q0 72 51.5 122.5t127.5 50.5q75 0 126.5 -50.5t51.5 -122.5q0 -59 -34.5 -104.5t-89.5 -61.5zM246 383q0 -30 18 -48.5t46 -18.5q27 0 45 18.5t18 48.5q0 29 -18 47.5t-45 18.5
q-28 0 -46 -18.5t-18 -47.5z" />
    <glyph glyph-name="male" unicode="&#x2642;" 
d="M525 542l38 -264l-81 -12l-18 143l-113 -138q30 -44 30 -97q0 -74 -51 -124t-127 -50t-127.5 50.5t-51.5 123.5q0 72 51.5 122.5t127.5 50.5q44 0 80 -18l115 137l-154 -11v78zM203 107q27 0 45 18.5t18 48.5q0 29 -18 47.5t-45 18.5q-28 0 -46 -18.5t-18 -47.5
q0 -30 18 -48.5t46 -18.5z" />
    <glyph glyph-name="spade" unicode="&#x2660;" 
d="M59 0l20 45q97 0 139.5 29.5t42.5 125.5q-39 -64 -114 -64q-45 0 -71.5 26t-26.5 72q0 34 13.5 66t50.5 74.5t67.5 72l98.5 92.5l98.5 -92.5t67.5 -72t50.5 -74.5t13.5 -66q0 -46 -26.5 -72t-71.5 -26q-75 0 -114 64q0 -96 42.5 -125.5t139.5 -29.5l20 -45h-440z" />
    <glyph glyph-name="club" unicode="&#x2663;" 
d="M65 0l20 45q97 0 139.5 29.5t42.5 125.5q-40 -66 -108 -66q-49 0 -81.5 32t-32.5 82q0 48 30 78t77 30q34 0 67 -14q-54 44 -54 99q0 48 33 77t87 29t87 -29t33 -77q0 -55 -54 -99q33 14 67 14q47 0 77 -30t30 -78q0 -50 -32.5 -82t-81.5 -32q-69 0 -108 66
q0 -96 42.5 -125.5t139.5 -29.5l20 -45h-440z" />
    <glyph glyph-name="heart" unicode="&#x2665;" 
d="M459 539q56 0 91 -33.5t35 -90.5q0 -29 -6.5 -55t-27 -57l-34.5 -51t-55 -60l-60.5 -58l-76.5 -70q-140 128 -181 175q-79 92 -79 176q0 57 35 90.5t91 33.5q49 0 79 -23t55 -69q25 46 55 69t79 23z" />
    <glyph glyph-name="diamond" unicode="&#x2666;" 
d="M299 539l220 -273l-220 -278l-220 278z" />
    <glyph glyph-name="musicalnote" unicode="&#x266a;" 
d="M348 542l40 -18q52 -24 78.5 -64t26.5 -87q0 -40 -32 -104l-52 25q3 21 3 40q0 73 -46 99l-18 10v-305q0 -44 -14 -76t-37.5 -48t-47.5 -23t-50 -7q-51 0 -81.5 21.5t-30.5 60.5q0 40 34 65t81 25q40 0 63 -10v396h83z" />
    <glyph glyph-name="musicalnotedbl" unicode="&#x266b;" 
d="M545 588v-410q0 -65 -39.5 -108t-108.5 -43q-53 0 -81.5 20.5t-28.5 58.5t31.5 63t77.5 25q37 0 67 -12v234l-200 -48v-231q0 -154 -153 -154q-49 0 -79.5 22.5t-30.5 60.5q0 41 36 65t81 24q40 0 61 -11v347z" />
    <glyph glyph-name="uni2713" unicode="&#x2713;" 
d="M458 588h170l-272 -562h-185l-136 285h176l54 -128z" />
    <glyph glyph-name="uni2717" unicode="&#x2717;" 
d="M624 588l-215 -300l122 -240h-200l-42 85l-86 -125h-198l198 299l-124 250h192l57 -112l98 143h198z" />
    <glyph glyph-name="uni2776" unicode="&#x2776;" horiz-adv-x="900" 
d="M464 -19q-168 0 -274.5 105t-106.5 263t107 264t274 106t273 -106t106 -264t-106 -263t-273 -105zM330 159h282v95h-72v287h-91q-17 -40 -41.5 -57t-83.5 -17v-89q69 0 99 23v-147h-93v-95z" />
    <glyph glyph-name="uni2777" unicode="&#x2777;" horiz-adv-x="900" 
d="M464 -19q-168 0 -274.5 105t-106.5 263t107 264t274 106t273 -106t106 -264t-106 -263t-273 -105zM307 159h311v95h-156q85 42 119 82.5t34 100.5q0 49 -41 84t-109 35q-77 0 -117.5 -42t-40.5 -112h119q0 60 35 60q29 0 29 -30q0 -37 -32.5 -67.5t-150.5 -113.5v-92z
" />
    <glyph glyph-name="uni2778" unicode="&#x2778;" horiz-adv-x="900" 
d="M464 -19q-168 0 -274.5 105t-106.5 263t107 264t274 106t273 -106t106 -264t-106 -263t-273 -105zM465 147q76 0 120.5 34.5t44.5 92.5q0 37 -22.5 59t-57.5 29q67 24 67 85q0 46 -39 76t-110 30q-65 0 -109.5 -31.5t-54.5 -81.5l112 -18q12 38 49 38q14 0 23.5 -7.5
t9.5 -20.5q0 -32 -46 -32h-30v-85h38q48 0 48 -37t-42 -37q-45 0 -58 48l-111 -25q13 -57 57 -87t111 -30z" />
    <glyph glyph-name="uni2779" unicode="&#x2779;" horiz-adv-x="900" 
d="M464 -19q-168 0 -274.5 105t-106.5 263t107 264t274 106t273 -106t106 -264t-106 -263t-273 -105zM467 159h113v55h46v94h-46v233h-150l-147 -229v-98h184v-55zM394 308l71 116v-116h-71z" />
    <glyph glyph-name="uni277A" unicode="&#x277a;" horiz-adv-x="900" 
d="M464 -19q-168 0 -274.5 105t-106.5 263t107 264t274 106t273 -106t106 -264t-106 -263t-273 -105zM456 147q83 0 128 40.5t45 108.5q0 55 -38.5 89.5t-89.5 34.5q-49 0 -78 -23l9 54h161l13 90h-266l-33 -221l102 -14q17 22 51 22q50 0 50 -43q0 -20 -13.5 -33.5
t-39.5 -13.5q-46 0 -58 40l-105 -34q15 -43 57 -70t105 -27z" />
    <glyph glyph-name="uni277B" unicode="&#x277b;" horiz-adv-x="900" 
d="M464 -19q-168 0 -274.5 105t-106.5 263t107 264t274 106t273 -106t106 -264t-106 -263t-273 -105zM464 148q69 0 115 37.5t46 102.5q0 58 -38.5 93t-91.5 35q-66 0 -95 -47q7 51 23.5 73.5t46.5 22.5q36 0 45 -29l100 32q-40 88 -146 88q-78 0 -127.5 -56.5t-49.5 -147.5
q0 -204 172 -204zM461 240q-13 0 -24.5 10t-11.5 30t11 31.5t29 11.5q19 0 28.5 -11.5t9.5 -28.5q0 -22 -12.5 -32.5t-29.5 -10.5z" />
    <glyph glyph-name="uni277C" unicode="&#x277c;" horiz-adv-x="900" 
d="M464 -19q-168 0 -274.5 105t-106.5 263t107 264t274 106t273 -106t106 -264t-106 -263t-273 -105zM372 159h126q10 99 37.5 159t87.5 127v96h-315v-141h101v44h100q-37 -34 -59 -61t-45.5 -85.5t-32.5 -138.5z" />
    <glyph glyph-name="uni277D" unicode="&#x277d;" horiz-adv-x="900" 
d="M464 -19q-168 0 -274.5 105t-106.5 263t107 264t274 106t273 -106t106 -264t-106 -263t-273 -105zM462 147q93 0 134.5 37t41.5 89q0 37 -15.5 59t-56.5 39q51 27 51 79q0 42 -40.5 74t-114.5 32q-72 0 -112 -31t-40 -78q0 -57 48 -90q-70 -27 -70 -97q0 -44 43.5 -78.5
t130.5 -34.5zM483 401l-17 6q-23 8 -32 15.5t-9 19.5q0 30 38 30q40 0 40 -29q0 -17 -20 -42zM463 241q-23 0 -39 9.5t-16 27.5q0 21 21 45l34 -9q30 -8 41.5 -15.5t11.5 -22.5q0 -35 -53 -35z" />
    <glyph glyph-name="uni277E" unicode="&#x277e;" horiz-adv-x="900" 
d="M464 -19q-168 0 -274.5 105t-106.5 263t107 264t274 106t273 -106t106 -264t-106 -263t-273 -105zM451 147q88 0 133.5 54.5t45.5 149.5q0 205 -172 205q-69 0 -115 -37.5t-46 -102.5q0 -59 38.5 -93.5t91.5 -34.5q67 0 96 46q-7 -99 -70 -99q-39 0 -51 32l-99 -40
q18 -37 56.5 -58.5t91.5 -21.5zM457 380q-19 0 -28.5 11.5t-9.5 28.5q0 21 13 32t29 11q13 0 24.5 -10t11.5 -30t-11 -31.5t-29 -11.5z" />
    <glyph glyph-name="uni2780" unicode="&#x2780;" horiz-adv-x="900" 
d="M464 719q167 0 273 -106t106 -264t-106 -263t-273 -105q-168 0 -274.5 105t-106.5 263t107 264t274 106zM464 635q-129 0 -205.5 -84t-76.5 -202t76 -201t206 -83q129 0 204.5 83t75.5 201t-75.5 202t-204.5 84zM329 159v95h94v147q-32 -24 -99 -24v89q59 0 83.5 17.5
t41.5 57.5h90v-287h73v-95h-283z" />
    <glyph glyph-name="uni2781" unicode="&#x2781;" horiz-adv-x="900" 
d="M464 719q167 0 273 -106t106 -264t-106 -263t-273 -105q-168 0 -274.5 105t-106.5 263t107 264t274 106zM464 635q-129 0 -205.5 -84t-76.5 -202t76 -201t206 -83q129 0 204.5 83t75.5 201t-75.5 202t-204.5 84zM464 556q68 0 109 -35t41 -85q0 -60 -34 -100.5
t-118 -81.5h156v-95h-311v92q120 85 151.5 114.5t31.5 66.5q0 30 -29 30q-35 0 -35 -60h-119q0 70 40 112t117 42z" />
    <glyph glyph-name="uni2782" unicode="&#x2782;" horiz-adv-x="900" 
d="M464 719q167 0 273 -106t106 -264t-106 -263t-273 -105q-168 0 -274.5 105t-106.5 263t107 264t274 106zM464 635q-129 0 -205.5 -84t-76.5 -202t76 -201t206 -83q129 0 204.5 83t75.5 201t-75.5 202t-204.5 84zM468 556q70 0 109.5 -31t39.5 -79q0 -60 -67 -84
q35 -7 57.5 -29t22.5 -59q0 -59 -45 -93t-121 -34q-66 0 -110 30t-57 87l111 25q11 -48 57 -48q43 0 43 37t-48 37h-38v85h30q46 0 46 32q0 31 -34 31q-35 0 -48 -41l-112 18q10 51 54.5 83.5t109.5 32.5z" />
    <glyph glyph-name="uni2783" unicode="&#x2783;" horiz-adv-x="900" 
d="M464 719q167 0 273 -106t106 -264t-106 -263t-273 -105q-168 0 -274.5 105t-106.5 263t107 264t274 106zM464 635q-129 0 -205.5 -84t-76.5 -202t76 -201t206 -83q129 0 204.5 83t75.5 201t-75.5 202t-204.5 84zM580 541v-233h45v-94h-45v-55h-114v55h-183v98l147 229
h150zM465 424l-71 -116h71v116z" />
    <glyph glyph-name="uni2784" unicode="&#x2784;" horiz-adv-x="900" 
d="M464 719q167 0 273 -106t106 -264t-106 -263t-273 -105q-168 0 -274.5 105t-106.5 263t107 264t274 106zM464 635q-129 0 -205.5 -84t-76.5 -202t76 -201t206 -83q129 0 204.5 83t75.5 201t-75.5 202t-204.5 84zM606 541l-14 -90h-160l-10 -55q30 24 76 24q55 0 93 -33
t38 -91q0 -68 -45 -108.5t-128 -40.5q-63 0 -105.5 27.5t-57.5 69.5l106 33q12 -40 58 -40q26 0 39.5 14t13.5 34q0 43 -50 43q-34 0 -51 -22l-102 14l33 221h266z" />
    <glyph glyph-name="uni2785" unicode="&#x2785;" horiz-adv-x="900" 
d="M464 719q167 0 273 -106t106 -264t-106 -263t-273 -105q-168 0 -274.5 105t-106.5 263t107 264t274 106zM464 635q-129 0 -205.5 -84t-76.5 -202t76 -201t206 -83q129 0 204.5 83t75.5 201t-75.5 202t-204.5 84zM469 556q52 0 90 -24t56 -65l-100 -31q-11 29 -46 29
q-29 0 -46 -22.5t-24 -73.5q30 47 98 47q53 0 90.5 -34.5t37.5 -94.5q0 -65 -46 -102.5t-115 -37.5q-172 0 -172 205q0 91 49.5 147.5t127.5 56.5zM465 323q-18 0 -29 -11.5t-11 -31.5t11.5 -30.5t24.5 -10.5q17 0 29.5 11t12.5 33q0 17 -9.5 28.5t-28.5 11.5z" />
    <glyph glyph-name="uni2786" unicode="&#x2786;" horiz-adv-x="900" 
d="M464 719q167 0 273 -106t106 -264t-106 -263t-273 -105q-168 0 -274.5 105t-106.5 263t107 264t274 106zM464 635q-129 0 -205.5 -84t-76.5 -202t76 -201t206 -83q129 0 204.5 83t75.5 201t-75.5 202t-204.5 84zM623 541v-96q-60 -66 -87.5 -126t-38.5 -160h-125
q9 80 32.5 138.5t45.5 85.5t59 61h-100v-44h-101v141h315z" />
    <glyph glyph-name="uni2787" unicode="&#x2787;" horiz-adv-x="900" 
d="M464 719q167 0 273 -106t106 -264t-106 -263t-273 -105q-168 0 -274.5 105t-106.5 263t107 264t274 106zM464 635q-129 0 -205.5 -84t-76.5 -202t76 -201t206 -83q129 0 204.5 83t75.5 201t-75.5 202t-204.5 84zM462 147q-88 0 -131 34t-43 79q0 70 70 97q-48 33 -48 89
q0 47 40 78.5t112 31.5q74 0 114.5 -32t40.5 -74q0 -52 -51 -79q41 -18 56.5 -39.5t15.5 -58.5q0 -52 -41.5 -89t-134.5 -37zM483 401q20 25 20 42q0 14 -11.5 21.5t-28.5 7.5q-39 0 -39 -30q0 -22 41 -36zM463 241q53 0 53 35q0 15 -11.5 22.5t-41.5 15.5l-34 9
q-21 -22 -21 -46q0 -18 15.5 -27t39.5 -9z" />
    <glyph glyph-name="uni2788" unicode="&#x2788;" horiz-adv-x="900" 
d="M464 719q167 0 273 -106t106 -264t-106 -263t-273 -105q-168 0 -274.5 105t-106.5 263t107 264t274 106zM464 635q-129 0 -205.5 -84t-76.5 -202t76 -201t206 -83q129 0 204.5 83t75.5 201t-75.5 202t-204.5 84zM450 147q-54 0 -92.5 21.5t-55.5 58.5l99 40
q11 -32 51 -32q63 0 70 99q-30 -47 -95 -47q-53 0 -92 34.5t-39 94.5q0 65 46 102.5t115 37.5q172 0 172 -205q0 -95 -45.5 -149.5t-133.5 -54.5zM456 380q18 0 29 11.5t11 31.5t-11.5 30t-24.5 10q-16 0 -29 -11t-13 -32q0 -17 9.5 -28.5t28.5 -11.5z" />
    <glyph glyph-name="uni278A" unicode="&#x278a;" horiz-adv-x="900" 
d="M464 -19q-168 0 -274.5 105t-106.5 263t107 264t274 106t273 -106t106 -264t-106 -263t-273 -105zM330 159h282v95h-72v287h-91q-17 -40 -41.5 -57t-83.5 -17v-89q69 0 99 23v-147h-93v-95z" />
    <glyph glyph-name="uni278B" unicode="&#x278b;" horiz-adv-x="900" 
d="M464 -19q-168 0 -274.5 105t-106.5 263t107 264t274 106t273 -106t106 -264t-106 -263t-273 -105zM307 159h311v95h-156q85 42 119 82.5t34 100.5q0 49 -41 84t-109 35q-77 0 -117.5 -42t-40.5 -112h119q0 60 35 60q29 0 29 -30q0 -37 -32.5 -67.5t-150.5 -113.5v-92z
" />
    <glyph glyph-name="uni278C" unicode="&#x278c;" horiz-adv-x="900" 
d="M464 -19q-168 0 -274.5 105t-106.5 263t107 264t274 106t273 -106t106 -264t-106 -263t-273 -105zM465 147q76 0 120.5 34.5t44.5 92.5q0 37 -22.5 59t-57.5 29q67 24 67 85q0 46 -39 76t-110 30q-65 0 -109.5 -31.5t-54.5 -81.5l112 -18q12 38 49 38q14 0 23.5 -7.5
t9.5 -20.5q0 -32 -46 -32h-30v-85h38q48 0 48 -37t-42 -37q-45 0 -58 48l-111 -25q13 -57 57 -87t111 -30z" />
    <glyph glyph-name="uni278D" unicode="&#x278d;" horiz-adv-x="900" 
d="M464 -19q-168 0 -274.5 105t-106.5 263t107 264t274 106t273 -106t106 -264t-106 -263t-273 -105zM467 159h113v55h46v94h-46v233h-150l-147 -229v-98h184v-55zM394 308l71 116v-116h-71z" />
    <glyph glyph-name="uni278E" unicode="&#x278e;" horiz-adv-x="900" 
d="M464 -19q-168 0 -274.5 105t-106.5 263t107 264t274 106t273 -106t106 -264t-106 -263t-273 -105zM456 147q83 0 128 40.5t45 108.5q0 55 -38.5 89.5t-89.5 34.5q-49 0 -78 -23l9 54h161l13 90h-266l-33 -221l102 -14q17 22 51 22q50 0 50 -43q0 -20 -13.5 -33.5
t-39.5 -13.5q-46 0 -58 40l-105 -34q15 -43 57 -70t105 -27z" />
    <glyph glyph-name="uni278F" unicode="&#x278f;" horiz-adv-x="900" 
d="M464 -19q-168 0 -274.5 105t-106.5 263t107 264t274 106t273 -106t106 -264t-106 -263t-273 -105zM464 148q69 0 115 37.5t46 102.5q0 58 -38.5 93t-91.5 35q-66 0 -95 -47q7 51 23.5 73.5t46.5 22.5q36 0 45 -29l100 32q-40 88 -146 88q-78 0 -127.5 -56.5t-49.5 -147.5
q0 -204 172 -204zM461 240q-13 0 -24.5 10t-11.5 30t11 31.5t29 11.5q19 0 28.5 -11.5t9.5 -28.5q0 -22 -12.5 -32.5t-29.5 -10.5z" />
    <glyph glyph-name="uni2790" unicode="&#x2790;" horiz-adv-x="900" 
d="M464 -19q-168 0 -274.5 105t-106.5 263t107 264t274 106t273 -106t106 -264t-106 -263t-273 -105zM372 159h126q10 99 37.5 159t87.5 127v96h-315v-141h101v44h100q-37 -34 -59 -61t-45.5 -85.5t-32.5 -138.5z" />
    <glyph glyph-name="uni2791" unicode="&#x2791;" horiz-adv-x="900" 
d="M464 -19q-168 0 -274.5 105t-106.5 263t107 264t274 106t273 -106t106 -264t-106 -263t-273 -105zM462 147q93 0 134.5 37t41.5 89q0 37 -15.5 59t-56.5 39q51 27 51 79q0 42 -40.5 74t-114.5 32q-72 0 -112 -31t-40 -78q0 -57 48 -90q-70 -27 -70 -97q0 -44 43.5 -78.5
t130.5 -34.5zM483 401l-17 6q-23 8 -32 15.5t-9 19.5q0 30 38 30q40 0 40 -29q0 -17 -20 -42zM463 241q-23 0 -39 9.5t-16 27.5q0 21 21 45l34 -9q30 -8 41.5 -15.5t11.5 -22.5q0 -35 -53 -35z" />
    <glyph glyph-name="uni2792" unicode="&#x2792;" horiz-adv-x="900" 
d="M464 -19q-168 0 -274.5 105t-106.5 263t107 264t274 106t273 -106t106 -264t-106 -263t-273 -105zM451 147q88 0 133.5 54.5t45.5 149.5q0 205 -172 205q-69 0 -115 -37.5t-46 -102.5q0 -59 38.5 -93.5t91.5 -34.5q67 0 96 46q-7 -99 -70 -99q-39 0 -51 32l-99 -40
q18 -37 56.5 -58.5t91.5 -21.5zM457 380q-19 0 -28.5 11.5t-9.5 28.5q0 21 13 32t29 11q13 0 24.5 -10t11.5 -30t-11 -31.5t-29 -11.5z" />
    <glyph glyph-name="uniFEFF" unicode="&#xfeff;" horiz-adv-x="0" 
 />
    <glyph glyph-name="u1F310" unicode="&#x1f310;" horiz-adv-x="900" 
d="M463 710q154 0 262.5 -107t108.5 -258t-108.5 -258t-262.5 -107t-262.5 107t-108.5 258t108.5 258t262.5 107zM369 632q-69 -24 -115 -74q26 -17 46 -26q28 58 69 100zM672 558q-47 50 -112 73q39 -42 67 -98q25 12 45 25zM505 502q30 2 51 7q-22 50 -51 88v-95zM421 502
v93q-29 -37 -50 -86q22 -5 50 -7zM256 381q3 39 16 84q-33 14 -61 31q-28 -53 -34 -115h79zM671 381h78q-6 62 -34 115q-27 -16 -60 -31q13 -45 16 -84zM505 431v-50h83q-4 35 -10 61q-38 -8 -73 -11zM421 431q-33 3 -73 11q-6 -26 -10 -61h83v50zM256 309h-79
q6 -62 34 -115q28 17 61 31q-13 45 -16 84zM338 309q4 -35 10 -61q40 8 73 11v50h-83zM505 259q35 -3 73 -11q6 26 10 61h-83v-50zM671 309q-3 -39 -16 -84q33 -15 60 -31q28 53 34 115h-78zM421 188q-28 -2 -50 -7q21 -49 50 -86v93zM505 188v-95q29 38 51 88q-21 5 -51 7z
M254 132q46 -50 115 -74q-41 42 -69 100q-20 -9 -46 -26zM560 59q65 23 112 73q-20 13 -45 25q-28 -56 -67 -98z" />
    <glyph glyph-name="Adieresis.ss01" horiz-adv-x="659" 
d="M409 941l-29 -166h-167l29 166h167zM651 941l-29 -166h-167l29 166h167zM274 700h262l96 -700h-212l-7 91h-219l-40 -91h-223zM384 548l-121 -297h137z" />
    <glyph glyph-name="Cdotaccent.ss01" horiz-adv-x="739" 
d="M605 952l-32 -181h-213l32 181h213zM441 719q112 0 192 -52.5t113 -160.5l-199 -51q-25 94 -126 94q-82 0 -127.5 -77t-45.5 -180q0 -68 31 -104.5t86 -36.5q54 0 88.5 26.5t66.5 83.5l194 -59q-107 -221 -374 -221q-84 0 -152.5 30t-114 99t-45.5 168q0 187 116 314
t297 127z" />
    <glyph glyph-name="Edieresis.ss01" horiz-adv-x="588" 
d="M381 941l-29 -166h-167l29 166h167zM623 941l-29 -166h-167l29 166h167zM601 532h-294l-17 -95h273l-28 -160h-273l-19 -109h303l-30 -168h-515l124 700h506z" />
    <glyph glyph-name="Edotaccent.ss01" horiz-adv-x="588" 
d="M525 952l-32 -181h-213l32 181h213zM601 532h-294l-17 -95h273l-28 -160h-273l-19 -109h303l-30 -168h-515l124 700h506z" />
    <glyph glyph-name="uni0122.ss01" horiz-adv-x="748" 
d="M445 719q239 0 306 -191l-196 -63q-28 88 -125 88q-60 0 -102.5 -40.5t-61 -100t-18.5 -129.5q0 -137 117 -137q54 0 90 28t43 74l2 13h-121l25 141h333l-71 -402h-182l10 60q-72 -80 -191 -80q-117 0 -196 73t-79 216q0 199 114.5 324.5t302.5 125.5zM172 -349l66 145
h-36l25 139h163l-25 -139l-109 -145h-84z" />
    <glyph glyph-name="Gdotaccent.ss01" horiz-adv-x="748" 
d="M593 952l-32 -181h-213l32 181h213zM445 719q239 0 306 -191l-196 -63q-28 88 -125 88q-60 0 -102.5 -40.5t-61 -100t-18.5 -129.5q0 -137 117 -137q54 0 90 28t43 74l2 13h-121l25 141h333l-71 -402h-182l10 60q-72 -80 -191 -80q-117 0 -196 73t-79 216
q0 199 114.5 324.5t302.5 125.5z" />
    <glyph glyph-name="Idieresis.ss01" horiz-adv-x="310" 
d="M235 941l-29 -166h-167l29 166h167zM477 941l-29 -166h-167l29 166h167zM337 700l-124 -700h-212l124 700h212z" />
    <glyph glyph-name="Idotaccent.ss01" horiz-adv-x="415" 
d="M429 952l-32 -181h-213l32 181h213zM440 550h-80l-70 -400h80l-27 -150h-372l27 150h80l70 400h-80l27 150h372z" />
    <glyph glyph-name="uni0136.ss01" horiz-adv-x="700" 
d="M797 700l-309 -290l195 -410h-236l-122 278l-75 -68l-37 -210h-212l124 700h212l-43 -241l251 241h252zM206 -204l25 139h163l-25 -139l-109 -145h-84l66 145h-36z" />
    <glyph glyph-name="uni013B.ss01" horiz-adv-x="548" 
d="M337 700l-93 -523h288l-31 -177h-500l124 700h212zM104 -349l66 145h-36l25 139h163l-25 -139l-109 -145h-84z" />
    <glyph glyph-name="Ldot.ss01" horiz-adv-x="548" 
d="M337 700l-93 -523h288l-31 -177h-500l124 700h212zM547 497l-33 -187h-190l33 187h190z" />
    <glyph glyph-name="uni0145.ss01" horiz-adv-x="731" 
d="M758 700l-124 -700h-256l-118 407l-71 -407h-188l124 700h261l112 -413l72 413h188zM171 -349l66 145h-36l25 139h163l-25 -139l-109 -145h-84z" />
    <glyph glyph-name="Odieresis.ss01" horiz-adv-x="788" 
d="M461 941l-29 -166h-167l29 166h167zM703 941l-29 -166h-167l29 166h167zM452 719q67 0 124 -16.5t105.5 -51.5t76 -97t27.5 -145q0 -184 -115 -306.5t-308 -122.5q-65 0 -123 19t-105 56t-74.5 98.5t-27.5 139.5q0 190 112 308t308 118zM437 549q-91 0 -138.5 -72
t-47.5 -170q0 -157 127 -157q62 0 106 39t63 92t19 110q0 83 -31 120.5t-98 37.5z" />
    <glyph glyph-name="uni0156.ss01" horiz-adv-x="672" 
d="M687 492q0 -153 -162 -219l125 -273h-240l-90 240h-65l-42 -240h-212l124 700h266q296 0 296 -208zM308 538l-25 -142h76q52 0 79.5 23t27.5 55q0 64 -75 64h-83zM188 -204l25 139h163l-25 -139l-109 -145h-84l66 145h-36z" />
    <glyph glyph-name="uni0218.ss01" horiz-adv-x="661" 
d="M305 -20q-203 0 -334 131l141 125q97 -86 211 -86q46 0 74 14.5t28 37.5t-24.5 35.5t-103.5 30.5q-121 27 -176.5 75t-55.5 135q0 110 90.5 175.5t226.5 65.5q200 0 317 -124l-151 -115q-41 37 -79.5 54t-94.5 17q-41 0 -64.5 -12t-23.5 -34q0 -23 26.5 -36.5
t103.5 -28.5q121 -24 176.5 -68.5t55.5 -134.5q0 -119 -99.5 -188t-243.5 -69zM156 -349l66 145h-36l25 139h163l-25 -139l-109 -145h-84z" />
    <glyph glyph-name="uni021A.ss01" horiz-adv-x="570" 
d="M657 700l-30 -170h-190l-94 -530h-212l94 530h-190l30 170h592zM120 -204l25 139h163l-25 -139l-109 -145h-84l66 145h-36z" />
    <glyph glyph-name="Udieresis.ss01" horiz-adv-x="722" 
d="M438 941l-29 -166h-167l29 166h167zM680 941l-29 -166h-167l29 166h167zM754 700l-75 -420q-26 -148 -108 -224t-235 -76q-137 0 -216.5 65t-79.5 179q0 29 7 65l73 411h212l-73 -411q-6 -31 -6 -51q0 -88 93 -88q56 0 83 31.5t39 99.5l74 419h212z" />
    <glyph glyph-name="Wdieresis.ss01" horiz-adv-x="875" 
d="M525 941l-29 -166h-167l29 166h167zM767 941l-29 -166h-167l29 166h167zM967 700l-268 -700h-237l20 484l-158 -484h-243l-21 700h224l-40 -500l167 500h216l-18 -493l138 493h220z" />
    <glyph glyph-name="Ydieresis.ss01" horiz-adv-x="604" 
d="M386 941l-29 -166h-167l29 166h167zM628 941l-29 -166h-167l29 166h167zM721 700l-315 -439l-47 -261h-210l48 270l-162 430h233l57 -269l157 269h239z" />
    <glyph glyph-name="Zdotaccent.ss01" horiz-adv-x="616" 
d="M530 952l-32 -181h-213l32 181h213zM657 700l-28 -159l-367 -376h316l-29 -165h-583l28 158l370 381h-286l29 161h550z" />
    <glyph glyph-name="i.loclTRK" horiz-adv-x="280" 
d="M208 806q45 0 77.5 -29.5t32.5 -73.5q0 -43 -32.5 -73t-77.5 -30q-44 0 -77 30t-33 73t33 73t77 30zM288 542l-96 -542h-200l96 542h200z" />
    <glyph glyph-name="i.TRK" horiz-adv-x="278" 
d="M207 806q45 0 77.5 -29.5t32.5 -73.5q0 -43 -32.5 -73t-77.5 -30q-44 0 -77 30t-33 73t33 73t77 30zM287 542l-96 -542h-200l96 542h200z" />
    <glyph glyph-name="f.alt01" horiz-adv-x="399" 
d="M378 574q-26 0 -38 -7.5t-15 -26.5l-3 -18h121l-24 -137h-122l-68 -385h-200l68 385h-72l24 137h73l6 35q28 159 213 159q76 0 138 -19l-24 -133q-42 10 -77 10z" />
    <glyph glyph-name="j.alt01" horiz-adv-x="280" 
d="M208 807q45 0 77.5 -29.5t32.5 -73.5q0 -43 -32.5 -73t-77.5 -30q-44 0 -77 30t-33 73t33 73t77 30zM-21 -198q-40 0 -70 9l24 138q8 -1 15 -1q35 0 44 53l96 541h200l-95 -538q-20 -110 -68 -156t-146 -46z" />
    <glyph glyph-name="uni0237.alt01" horiz-adv-x="280" 
d="M-21 -198q-40 0 -70 9l24 138q8 -1 15 -1q35 0 44 53l96 541h200l-95 -538q-20 -110 -68 -156t-146 -46z" />
    <glyph glyph-name="jcircumflex.alt01" horiz-adv-x="278" 
d="M-57 605l172 168h206l112 -168h-168l-56 70l-82 -70h-184zM-22 -198q-40 0 -70 9l24 138q8 -1 15 -1q35 0 44 53l96 541h200l-95 -538q-20 -110 -68 -156t-146 -46z" />
    <glyph glyph-name="adieresis.ss01" horiz-adv-x="571" 
d="M138 618l29 166h167l-29 -166h-167zM380 618l29 166h167l-29 -166h-167zM326 557q230 0 230 -159q0 -20 -5 -50l-40 -226q-9 -54 -9 -79q0 -18 5 -43h-192q-12 25 -9 52q-56 -66 -155 -66q-74 0 -116 39.5t-42 107.5q0 176 269 209l89 11l3 16q3 18 3 23q0 18 -10 26
t-34 8q-53 0 -60 -50h-199q31 181 272 181zM332 240l-45 -7q-47 -7 -67 -23.5t-20 -44.5q0 -34 41 -34q32 0 55 20t29 51z" />
    <glyph glyph-name="j.alt01.ss01" horiz-adv-x="280" 
d="M337 794l-32 -181h-209l32 181h209zM-21 -198q-40 0 -70 9l24 138q8 -1 15 -1q35 0 44 53l96 541h200l-95 -538q-20 -110 -68 -156t-146 -46z" />
    <glyph glyph-name="cdotaccent.ss01" horiz-adv-x="572" 
d="M490 794l-32 -181h-209l32 181h209zM338 557q182 0 248 -157l-174 -59q-16 64 -76 64q-59 0 -87.5 -50t-28.5 -115q0 -102 75 -102q33 0 54 19t37 54l170 -64q-91 -161 -281 -161q-128 0 -197.5 64t-69.5 176q0 139 93 235t237 96z" />
    <glyph glyph-name="edieresis.ss01" horiz-adv-x="595" 
d="M336 784l-29 -166h-167l29 166h167zM578 784l-29 -166h-167l29 166h167zM336 557q116 0 184.5 -61.5t68.5 -172.5q0 -33 -6 -69l-6 -34h-368v-3q0 -85 88 -85q69 0 116 59l146 -73q-105 -132 -283 -132q-120 0 -193.5 66.5t-73.5 179.5q0 136 91 230.5t236 94.5zM395 332
q2 16 2 25q0 66 -75 66q-72 0 -99 -91h172z" />
    <glyph glyph-name="edotaccent.ss01" horiz-adv-x="595" 
d="M485 794l-32 -181h-209l32 181h209zM336 557q116 0 184.5 -61.5t68.5 -172.5q0 -33 -6 -69l-6 -34h-368v-3q0 -85 88 -85q69 0 116 59l146 -73q-105 -132 -283 -132q-120 0 -193.5 66.5t-73.5 179.5q0 136 91 230.5t236 94.5zM395 332q2 16 2 25q0 66 -75 66
q-72 0 -99 -91h172z" />
    <glyph glyph-name="uni0123.ss01" horiz-adv-x="604" 
d="M437 744l-25 -139h-163l25 139l109 145h84l-66 -145h36zM428 542h188l-86 -489q-24 -138 -98.5 -194.5t-224.5 -56.5q-130 0 -190.5 50.5t-61.5 124.5h181q0 -20 21.5 -34.5t63.5 -14.5q57 0 79.5 22t34.5 83l6 35q-61 -48 -140 -48q-87 0 -139 50t-52 156q0 131 77 231
t198 100q92 0 137 -45zM222 246q0 -39 18 -59.5t49 -20.5q52 0 80.5 50t28.5 114q0 83 -68 83q-49 0 -78.5 -52.5t-29.5 -114.5z" />
    <glyph glyph-name="gdotaccent.ss01" horiz-adv-x="604" 
d="M478 794l-32 -181h-209l32 181h209zM428 542h188l-86 -489q-24 -138 -98.5 -194.5t-224.5 -56.5q-130 0 -190.5 50.5t-61.5 124.5h181q0 -20 21.5 -34.5t63.5 -14.5q57 0 79.5 22t34.5 83l6 35q-61 -48 -140 -48q-87 0 -139 50t-52 156q0 131 77 231t198 100
q92 0 137 -45zM222 246q0 -39 18 -59.5t49 -20.5q52 0 80.5 50t28.5 114q0 83 -68 83q-49 0 -78.5 -52.5t-29.5 -114.5z" />
    <glyph glyph-name="i.ss01" horiz-adv-x="278" 
d="M336 793l-32 -181h-209l32 181h209zM287 542l-96 -542h-200l96 542h200z" />
    <glyph glyph-name="idieresis.ss01" horiz-adv-x="278" 
d="M-9 617l29 166h167l-29 -166h-167zM233 617l29 166h167l-29 -166h-167zM287 542l-96 -542h-200l96 542h200z" />
    <glyph glyph-name="i.loclTRK.ss01" horiz-adv-x="278" 
d="M336 793l-32 -181h-209l32 181h209zM287 542l-96 -542h-200l96 542h200z" />
    <glyph glyph-name="ij.ss01" horiz-adv-x="559" 
d="M617 794l-32 -181h-209l32 181h209zM336 793l-32 -181h-209l32 181h209zM287 542l-96 -542h-200l96 542h200zM245 -198q-52 0 -97 9l24 138q13 -1 26 -1q34 0 53 20.5t30 79.5l87 494h200l-95 -538q-19 -107 -74 -154.5t-154 -47.5z" />
    <glyph glyph-name="iogonek.ss01" horiz-adv-x="278" 
d="M127 793h209l-32 -181h-209zM-6 19l93 523h200l-96 -542q-72 -10 -106.5 -38.5t-34.5 -63.5q0 -55 67 -55q22 0 36 4l29 -93q-39 -13 -88 -13q-86 0 -135 37.5t-49 100.5q0 41 23 78t61 62z" />
    <glyph glyph-name="j.ss01" horiz-adv-x="279" 
d="M337 794l-32 -181h-209l32 181h209zM-35 -198q-52 0 -97 9l24 138q13 -1 26 -1q34 0 53 20.5t30 79.5l87 494h200l-95 -538q-19 -107 -74 -154.5t-154 -47.5z" />
    <glyph glyph-name="uni0137.ss01" horiz-adv-x="612" 
d="M672 542l-235 -204l148 -338h-222l-83 214l-60 -51l-29 -163h-200l124 700h200l-57 -322l183 164h231zM156 -204l25 139h163l-25 -139l-109 -145h-84l66 145h-36z" />
    <glyph glyph-name="uni013C.ss01" horiz-adv-x="301" 
d="M310 700l-89 -503q-4 -20 -4 -35t8 -20t30 -5q9 0 19 1l-24 -135q-40 -11 -93 -11q-143 0 -143 137q0 26 9 80l87 491h200zM-19 -349l66 145h-36l25 139h163l-25 -139l-109 -145h-84z" />
    <glyph glyph-name="ldot.ss01" horiz-adv-x="427" 
d="M310 700l-89 -503q-4 -20 -4 -35t8 -20t30 -5q9 0 19 1l-24 -135q-40 -11 -93 -11q-143 0 -143 137q0 26 9 80l87 491h200zM453 433l-29 -161h-163l29 161h163z" />
    <glyph glyph-name="napostrophe.ss01" horiz-adv-x="666" 
d="M49 551l66 145h-36l25 139h163l-25 -139l-109 -145h-84zM493 557q71 0 114.5 -39.5t43.5 -110.5q0 -24 -14 -103l-54 -304h-200l48 267q10 57 10 78q0 45 -49 45q-37 0 -64 -27.5t-35 -74.5l-51 -288h-200l96 542h190l-13 -75q68 90 178 90z" />
    <glyph glyph-name="uni0146.ss01" horiz-adv-x="614" 
d="M442 557q71 0 114.5 -39.5t43.5 -110.5q0 -24 -14 -103l-54 -304h-200l48 267q10 57 10 78q0 45 -49 45q-37 0 -64 -27.5t-35 -74.5l-51 -288h-200l96 542h190l-13 -75q68 90 178 90zM112 -349l66 145h-36l25 139h163l-25 -139l-109 -145h-84z" />
    <glyph glyph-name="odieresis.ss01" horiz-adv-x="640" 
d="M160 618l29 166h167l-29 -166h-167zM402 618l29 166h167l-29 -166h-167zM350 557q130 0 205 -69.5t75 -188.5q0 -135 -94 -224t-246 -89q-133 0 -206.5 68t-73.5 188q0 135 95 225t245 90zM342 405q-61 0 -90 -51t-29 -120q0 -96 76 -96q59 0 89.5 53t30.5 120
q0 94 -77 94z" />
    <glyph glyph-name="uni0157.ss01" horiz-adv-x="415" 
d="M420 557q22 0 46 -3l-33 -187q-18 1 -31 1q-70 0 -114.5 -37.5t-62.5 -138.5l-34 -192h-200l96 542h190l-16 -87q52 102 159 102zM-56 -349l66 145h-36l25 139h163l-25 -139l-109 -145h-84z" />
    <glyph glyph-name="uni0219.ss01" horiz-adv-x="547" 
d="M313 557q142 0 244 -81l-105 -104q-69 49 -144 49q-53 0 -53 -31q0 -15 18 -23t90 -25q83 -19 122 -58t39 -109q0 -85 -83 -137t-197 -52q-94 0 -155 22.5t-120 67.5l96 115q92 -65 176 -65q68 0 68 32q0 16 -16.5 25.5t-75.5 22.5q-88 20 -132 58.5t-44 103.5
q0 87 76 138t196 51zM93 -349l66 145h-36l25 139h163l-25 -139l-109 -145h-84z" />
    <glyph glyph-name="uni021B.ss01" horiz-adv-x="412" 
d="M296 385l-33 -187q-2 -12 -2 -20q0 -35 50 -35q29 0 71 9l-26 -153q-53 -13 -113 -13q-185 0 -185 153q0 29 6 61l33 185h-73l24 137h73l24 138h200l-24 -138h120l-24 -137h-121zM105 -204l25 139h163l-25 -139l-109 -145h-84l66 145h-36z" />
    <glyph glyph-name="udieresis.ss01" horiz-adv-x="608" 
d="M171 603l29 166h167l-29 -166h-167zM413 603l29 166h167l-29 -166h-167zM167 -15q-69 0 -110.5 40t-41.5 111q0 25 14 104l54 302h200l-48 -265q-10 -57 -10 -78q0 -47 49 -47q36 0 60 27t32 75l51 288h200l-96 -542h-190l13 69q-61 -84 -177 -84z" />
    <glyph glyph-name="wdieresis.ss01" horiz-adv-x="805" 
d="M255 618l29 166h167l-29 -166h-167zM497 618l29 166h167l-29 -166h-167zM869 542l-224 -542h-230l9 385l-133 -385h-229l-30 542h210l-30 -369l128 369h217l-2 -369l107 369h207z" />
    <glyph glyph-name="ydieresis.ss01" horiz-adv-x="540" 
d="M125 618l29 166h167l-29 -166h-167zM367 618l29 166h167l-29 -166h-167zM609 542l-248 -541q-30 -65 -61.5 -106t-82 -67t-118.5 -26q-58 0 -107 8l23 132q37 -4 74 -4q41 0 59 11t30 51h-82l-74 542h222l-2 -410l138 410h229z" />
    <glyph glyph-name="zdotaccent.ss01" horiz-adv-x="500" 
d="M445 794l-32 -181h-209l32 181h209zM521 542l-27 -151l-255 -233h227l-28 -158h-477l26 148l258 238h-196l28 156h444z" />
    <glyph glyph-name="g.ss03" horiz-adv-x="606" 
d="M429 542h188l-86 -489q-24 -138 -98.5 -194.5t-224.5 -56.5q-130 0 -190.5 50.5t-61.5 124.5h181q0 -20 21.5 -34.5t63.5 -14.5q57 0 79.5 22t34.5 83l6 35q-61 -48 -140 -48q-87 0 -139 50t-52 156q0 131 77 231t198 100q92 0 137 -45zM223 246q0 -39 18 -59.5t49 -20.5
q52 0 80.5 50t28.5 114q0 83 -68 83q-49 0 -78.5 -52.5t-29.5 -114.5z" />
    <glyph glyph-name="gbreve.ss03" horiz-adv-x="606" 
d="M337 597q-85 0 -132 46.5t-47 129.5h112q0 -51 76 -51q38 0 57 12.5t31 38.5h118q-51 -176 -215 -176zM429 542h188l-86 -489q-24 -138 -98.5 -194.5t-224.5 -56.5q-130 0 -190.5 50.5t-61.5 124.5h181q0 -20 21.5 -34.5t63.5 -14.5q57 0 79.5 22t34.5 83l6 35
q-61 -48 -140 -48q-87 0 -139 50t-52 156q0 131 77 231t198 100q92 0 137 -45zM223 246q0 -39 18 -59.5t49 -20.5q52 0 80.5 50t28.5 114q0 83 -68 83q-49 0 -78.5 -52.5t-29.5 -114.5z" />
    <glyph glyph-name="gcircumflex.ss03" horiz-adv-x="604" 
d="M351 675l-82 -70h-184l172 168h206l112 -168h-168zM428 542h188l-86 -489q-24 -138 -98.5 -194.5t-224.5 -56.5q-130 0 -190.5 50.5t-61.5 124.5h181q0 -20 21.5 -34.5t63.5 -14.5q57 0 79.5 22t34.5 83l6 35q-61 -48 -140 -48q-87 0 -139 50t-52 156q0 131 77 231
t198 100q92 0 137 -45zM222 246q0 -39 18 -59.5t49 -20.5q52 0 80.5 50t28.5 114q0 83 -68 83q-49 0 -78.5 -52.5t-29.5 -114.5z" />
    <glyph glyph-name="uni0123.ss03" horiz-adv-x="606" 
d="M351 591q-45 0 -69 26.5t-24 64.5q0 50 35.5 106t92.5 105l67 -38q-28 -31 -40.5 -52.5t-19.5 -56.5q47 -28 47 -75q0 -33 -26 -56.5t-63 -23.5zM429 542h188l-86 -489q-24 -138 -98.5 -194.5t-224.5 -56.5q-130 0 -190.5 50.5t-61.5 124.5h181q0 -20 21.5 -34.5
t63.5 -14.5q57 0 79.5 22t34.5 83l6 35q-61 -48 -140 -48q-87 0 -139 50t-52 156q0 131 77 231t198 100q92 0 137 -45zM223 246q0 -39 18 -59.5t49 -20.5q52 0 80.5 50t28.5 114q0 83 -68 83q-49 0 -78.5 -52.5t-29.5 -114.5z" />
    <glyph glyph-name="gdotaccent.ss03" horiz-adv-x="606" 
d="M350 601q-44 0 -77 30t-33 73t33 73t77 30q45 0 77.5 -29.5t32.5 -73.5q0 -43 -32.5 -73t-77.5 -30zM429 542h188l-86 -489q-24 -138 -98.5 -194.5t-224.5 -56.5q-130 0 -190.5 50.5t-61.5 124.5h181q0 -20 21.5 -34.5t63.5 -14.5q57 0 79.5 22t34.5 83l6 35
q-61 -48 -140 -48q-87 0 -139 50t-52 156q0 131 77 231t198 100q92 0 137 -45zM223 246q0 -39 18 -59.5t49 -20.5q52 0 80.5 50t28.5 114q0 83 -68 83q-49 0 -78.5 -52.5t-29.5 -114.5z" />
    <glyph glyph-name="uni0123.ss01.ss03" horiz-adv-x="612" 
d="M466 889l-66 -145h36l-25 -139h-163l25 139l109 145h84zM221 -198q-103 0 -163.5 15.5t-82 40.5t-21.5 65q0 72 88 122q-33 23 -33 71q0 67 90 129q-60 42 -60 114q0 91 79.5 144.5t202.5 53.5q93 0 146 -29q64 76 192 78l-24 -154q-50 0 -83 -9q20 -27 20 -72
q0 -85 -76 -132.5t-191 -47.5q-73 0 -118 13q-15 -15 -15 -29q0 -25 63 -25h61q118 0 180.5 -42t62.5 -115q0 -191 -318 -191zM304 322q34 0 54 17.5t20 48.5q0 22 -16.5 35t-44.5 13q-34 0 -55 -18.5t-21 -46.5q0 -24 17 -36.5t46 -12.5zM220 -71q110 0 110 39q0 19 -16 26
t-50 7h-121q-22 -15 -22 -35t20 -28.5t79 -8.5z" />
    <glyph glyph-name="gdotaccent.ss01.ss03" horiz-adv-x="612" 
d="M477 794l-32 -181h-209l32 181h209zM221 -198q-103 0 -163.5 15.5t-82 40.5t-21.5 65q0 72 88 122q-33 23 -33 71q0 67 90 129q-60 42 -60 114q0 91 79.5 144.5t202.5 53.5q93 0 146 -29q64 76 192 78l-24 -154q-50 0 -83 -9q20 -27 20 -72q0 -85 -76 -132.5t-191 -47.5
q-73 0 -118 13q-15 -15 -15 -29q0 -25 63 -25h61q118 0 180.5 -42t62.5 -115q0 -191 -318 -191zM304 322q34 0 54 17.5t20 48.5q0 22 -16.5 35t-44.5 13q-34 0 -55 -18.5t-21 -46.5q0 -24 17 -36.5t46 -12.5zM220 -71q110 0 110 39q0 19 -16 26t-50 7h-121q-22 -15 -22 -35
t20 -28.5t79 -8.5z" />
    <glyph glyph-name="f_i" horiz-adv-x="679" 
d="M607 806q45 0 77.5 -29.5t32.5 -73.5q0 -43 -32.5 -73t-77.5 -30q-44 0 -77 30t-33 73t33 73t77 30zM419 385h-122l-68 -385h-200l68 385h-72l24 137h72l7 38q28 159 213 159q86 0 153 -23l-24 -132q-47 13 -92 13q-26 0 -38 -7.5t-15 -26.5l-4 -21h122zM391 0l96 542
h200l-96 -542h-200z" />
    <glyph glyph-name="f_l" horiz-adv-x="702" 
d="M419 385h-122l-68 -385h-200l68 385h-72l24 137h72l7 38q28 159 213 159q86 0 153 -23l-24 -132q-47 13 -92 13q-26 0 -38 -7.5t-15 -26.5l-4 -21h122zM617 162q0 -15 8 -20t30 -5q9 0 19 1l-24 -135q-40 -11 -93 -11q-143 0 -143 137q0 26 9 80l87 491h200l-89 -503
q-4 -20 -4 -35z" />
    <glyph glyph-name="f_f.alt01" horiz-adv-x="745" 
d="M724 574q-26 0 -38 -7.5t-15 -26.5l-3 -18h121l-24 -137h-122l-68 -385h-200l68 385h-146l-68 -385h-200l68 385h-72l24 137h72l7 38q30 159 230 159q105 0 186 -40q52 37 143 37q76 0 138 -19l-24 -133q-42 10 -77 10zM468 522l6 35l3 13q-49 17 -89 17q-55 0 -63 -44
l-4 -21h147z" />
    <glyph glyph-name="i.TRK.sc" horiz-adv-x="366" 
d="M258 870q45 0 77.5 -29.5t32.5 -73.5q0 -43 -32.5 -73t-77.5 -30q-44 0 -77 30t-33 73t33 73t77 30zM398 588l-24 -138h-60l-56 -312h60l-24 -138h-322l24 138h62l56 312h-62l24 138h322z" />
    <glyph glyph-name="a.sc" horiz-adv-x="581" 
d="M342 0l-9 83h-158l-38 -83h-206l288 588h252l83 -588h-212zM326 218l-9 227l-88 -227h97z" />
    <glyph glyph-name="aacute.sc" horiz-adv-x="581" 
d="M629 807l-215 -168h-138l117 168h236zM219 588h252l83 -588h-212l-9 83h-158l-38 -83h-206zM317 445l-88 -227h97z" />
    <glyph glyph-name="abreve.sc" horiz-adv-x="581" 
d="M358 637q-85 0 -132 46.5t-47 129.5h112q0 -51 76 -51q38 0 57 12.5t31 38.5h118q-51 -176 -215 -176zM219 588h252l83 -588h-212l-9 83h-158l-38 -83h-206zM317 445l-88 -227h97z" />
    <glyph glyph-name="uni01CE.sc" horiz-adv-x="581" 
d="M465 645h-206l-112 168h168l56 -70l82 70h184zM219 588h252l83 -588h-212l-9 83h-158l-38 -83h-206zM317 445l-88 -227h97z" />
    <glyph glyph-name="acircumflex.sc" horiz-adv-x="581" 
d="M370 728l-82 -70h-184l172 168h206l112 -168h-168zM219 588h252l83 -588h-212l-9 83h-158l-38 -83h-206zM317 445l-88 -227h97z" />
    <glyph glyph-name="adieresis.sc" horiz-adv-x="581" 
d="M230 638q-41 0 -71.5 30t-30.5 70q0 41 30.5 70.5t71.5 29.5t71 -29.5t30 -70.5q0 -40 -30 -70t-71 -30zM494 838q41 0 71.5 -29.5t30.5 -70.5q0 -40 -30.5 -70t-71.5 -30t-71 30t-30 70q0 41 30 70.5t71 29.5zM219 588h252l83 -588h-212l-9 83h-158l-38 -83h-206z
M317 445l-88 -227h97z" />
    <glyph glyph-name="agrave.sc" horiz-adv-x="581" 
d="M423 643h-138l-198 168h231zM342 0l-9 83h-158l-38 -83h-206l288 588h252l83 -588h-212zM326 218l-9 227l-88 -227h97z" />
    <glyph glyph-name="amacron.sc" horiz-adv-x="581" 
d="M574 790l-23 -132h-396l23 132h396zM219 588h252l83 -588h-212l-9 83h-158l-38 -83h-206zM317 445l-88 -227h97z" />
    <glyph glyph-name="aogonek.sc" horiz-adv-x="581" 
d="M553 0q-72 -10 -106.5 -38.5t-34.5 -63.5q0 -55 67 -55q22 0 36 4l29 -93q-39 -13 -88 -13q-86 0 -135 37.5t-49 100.5q0 75 69 129l-8 75h-158l-38 -83h-206l288 588h252l83 -588h-1zM326 218l-9 227l-88 -227h97z" />
    <glyph glyph-name="aring.sc" horiz-adv-x="581" 
d="M342 0l-9 83h-158l-38 -83h-206l286 583q-25 36 -25 83q0 66 45.5 106.5t111.5 40.5t111.5 -40.5t45.5 -106.5q0 -55 -33 -93l81 -573h-212zM349 709q-17 0 -28 -11.5t-11 -31.5t11 -31.5t28 -11.5t28 11.5t11 31.5t-11 31.5t-28 11.5zM326 218l-9 227l-88 -227h97z" />
    <glyph glyph-name="aringacute.sc" horiz-adv-x="581" 
d="M607 1004l-206 -162h-133l113 162h226zM506 666q0 -55 -33 -93l81 -573h-212l-9 83h-158l-38 -83h-206l286 583q-25 36 -25 83q0 66 45.5 106.5t111.5 40.5t111.5 -40.5t45.5 -106.5zM349 709q-17 0 -28 -11.5t-11 -31.5t11 -31.5t28 -11.5t28 11.5t11 31.5t-11 31.5
t-28 11.5zM326 218l-9 227l-88 -227h97z" />
    <glyph glyph-name="atilde.sc" horiz-adv-x="581" 
d="M286 681q-26 0 -43 -30h-101q12 75 51.5 115t98.5 40q46 0 89.5 -22t51.5 -22q26 0 43 30h102q-8 -73 -50.5 -114t-99.5 -41q-46 0 -90 22t-52 22zM219 588h252l83 -588h-212l-9 83h-158l-38 -83h-206zM317 445l-88 -227h97z" />
    <glyph glyph-name="ae.sc" horiz-adv-x="827" 
d="M837 588l-27 -152h-241l-4 -67h214l-24 -138h-191l-4 -79h242l-27 -152h-414l5 71h-191l-40 -71h-214l359 588h557zM384 449l-137 -229h125z" />
    <glyph glyph-name="aeacute.sc" horiz-adv-x="827" 
d="M798 807l-215 -168h-138l117 168h236zM837 588l-27 -152h-241l-4 -67h214l-24 -138h-191l-4 -79h242l-27 -152h-414l5 71h-191l-40 -71h-214l359 588h557zM384 449l-137 -229h125z" />
    <glyph glyph-name="b.sc" horiz-adv-x="612" 
d="M467 318q65 -12 95 -42t30 -82q0 -98 -79.5 -146t-213.5 -48h-298l104 588h234q140 0 201.5 -34.5t61.5 -103.5q0 -56 -35.5 -89t-99.5 -43zM326 360q60 0 60 47q0 23 -15 30.5t-43 7.5h-48l-15 -85h61zM308 143q74 0 74 53q0 41 -60 41h-79l-17 -94h82z" />
    <glyph glyph-name="c.sc" horiz-adv-x="657" 
d="M379 605q218 0 269 -173l-189 -57q-10 39 -32 56t-62 17q-66 0 -99 -57.5t-33 -138.5q0 -109 89 -109q40 0 67.5 20.5t52.5 66.5l184 -59q-104 -185 -335 -185q-114 0 -192.5 66.5t-78.5 185.5q0 160 100 263.5t259 103.5z" />
    <glyph glyph-name="cacute.sc" horiz-adv-x="657" 
d="M670 807l-215 -168h-138l117 168h236zM379 605q218 0 269 -173l-189 -57q-10 39 -32 56t-62 17q-66 0 -99 -57.5t-33 -138.5q0 -109 89 -109q40 0 67.5 20.5t52.5 66.5l184 -59q-104 -185 -335 -185q-114 0 -192.5 66.5t-78.5 185.5q0 160 100 263.5t259 103.5z" />
    <glyph glyph-name="ccaron.sc" horiz-adv-x="657" 
d="M678 813l-172 -168h-206l-112 168h168l56 -70l82 70h184zM379 605q218 0 269 -173l-189 -57q-10 39 -32 56t-62 17q-66 0 -99 -57.5t-33 -138.5q0 -109 89 -109q40 0 67.5 20.5t52.5 66.5l184 -59q-104 -185 -335 -185q-114 0 -192.5 66.5t-78.5 185.5q0 160 100 263.5
t259 103.5z" />
    <glyph glyph-name="ccedilla.sc" horiz-adv-x="657" 
d="M322 143q40 0 67.5 20.5t52.5 66.5l184 -59q-90 -161 -274 -182l-6 -31q103 -10 103 -95q0 -57 -50 -89.5t-136 -32.5q-85 0 -152 36l56 87q43 -19 84 -19q44 0 44 26q0 16 -21.5 21.5t-76.5 5.5l28 94q-91 18 -148 81.5t-57 164.5q0 160 100 263.5t259 103.5
q218 0 269 -173l-189 -57q-10 39 -32 56t-62 17q-66 0 -99 -57.5t-33 -138.5q0 -109 89 -109z" />
    <glyph glyph-name="ccircumflex.sc" horiz-adv-x="657" 
d="M145 658l172 168h206l112 -168h-168l-56 70l-82 -70h-184zM379 605q218 0 269 -173l-189 -57q-10 39 -32 56t-62 17q-66 0 -99 -57.5t-33 -138.5q0 -109 89 -109q40 0 67.5 20.5t52.5 66.5l184 -59q-104 -185 -335 -185q-114 0 -192.5 66.5t-78.5 185.5q0 160 100 263.5
t259 103.5z" />
    <glyph glyph-name="cdotaccent.sc" horiz-adv-x="657" 
d="M407 870q45 0 77.5 -29.5t32.5 -73.5q0 -43 -32.5 -73t-77.5 -30q-44 0 -77 30t-33 73t33 73t77 30zM379 605q218 0 269 -173l-189 -57q-10 39 -32 56t-62 17q-66 0 -99 -57.5t-33 -138.5q0 -109 89 -109q40 0 67.5 20.5t52.5 66.5l184 -59q-104 -185 -335 -185
q-114 0 -192.5 66.5t-78.5 185.5q0 160 100 263.5t259 103.5z" />
    <glyph glyph-name="d.sc" horiz-adv-x="644" 
d="M313 588q62 0 116.5 -13t101 -40.5t73.5 -76.5t27 -116q0 -161 -99 -251.5t-272 -90.5h-259l104 588h208zM307 436h-29l-50 -284h54q70 0 104 53t34 134q0 50 -27 73.5t-86 23.5z" />
    <glyph glyph-name="eth.sc" horiz-adv-x="654" 
d="M323 588q62 0 116.5 -13t101 -40.5t73.5 -76.5t27 -116q0 -161 -99 -251.5t-272 -90.5h-259l42 239h-50l23 126h50l39 223h208zM292 152q70 0 104 53t34 134q0 50 -27 73.5t-86 23.5h-29l-12 -71h99l-23 -126h-99l-15 -87h54z" />
    <glyph glyph-name="dcaron.sc" horiz-adv-x="644" 
d="M639 813l-172 -168h-206l-112 168h168l56 -70l82 70h184zM313 588q62 0 116.5 -13t101 -40.5t73.5 -76.5t27 -116q0 -161 -99 -251.5t-272 -90.5h-259l104 588h208zM307 436h-29l-50 -284h54q70 0 104 53t34 134q0 50 -27 73.5t-86 23.5z" />
    <glyph glyph-name="dcroat.sc" horiz-adv-x="654" 
d="M323 588q62 0 116.5 -13t101 -40.5t73.5 -76.5t27 -116q0 -161 -99 -251.5t-272 -90.5h-259l42 239h-50l23 126h50l39 223h208zM292 152q70 0 104 53t34 134q0 50 -27 73.5t-86 23.5h-29l-12 -71h99l-23 -126h-99l-15 -87h54z" />
    <glyph glyph-name="e.sc" horiz-adv-x="530" 
d="M527 436h-249l-11 -65h231l-26 -143h-231l-13 -76h257l-27 -152h-457l104 588h449z" />
    <glyph glyph-name="eacute.sc" horiz-adv-x="530" 
d="M613 807l-215 -168h-138l117 168h236zM1 0l104 588h449l-27 -152h-249l-11 -65h231l-26 -143h-231l-13 -76h257l-27 -152h-457z" />
    <glyph glyph-name="ebreve.sc" horiz-adv-x="530" 
d="M342 637q-85 0 -132 46.5t-47 129.5h112q0 -51 76 -51q38 0 57 12.5t31 38.5h118q-51 -176 -215 -176zM1 0l104 588h449l-27 -152h-249l-11 -65h231l-26 -143h-231l-13 -76h257l-27 -152h-457z" />
    <glyph glyph-name="ecaron.sc" horiz-adv-x="530" 
d="M449 645h-206l-112 168h168l56 -70l82 70h184zM1 0l104 588h449l-27 -152h-249l-11 -65h231l-26 -143h-231l-13 -76h257l-27 -152h-457z" />
    <glyph glyph-name="ecircumflex.sc" horiz-adv-x="530" 
d="M354 728l-82 -70h-184l172 168h206l112 -168h-168zM1 0l104 588h449l-27 -152h-249l-11 -65h231l-26 -143h-231l-13 -76h257l-27 -152h-457z" />
    <glyph glyph-name="edieresis.sc" horiz-adv-x="530" 
d="M214 638q-41 0 -71.5 30t-30.5 70q0 41 30.5 70.5t71.5 29.5t71 -29.5t30 -70.5q0 -40 -30 -70t-71 -30zM478 638q-41 0 -71 30t-30 70q0 41 30 70.5t71 29.5t71.5 -29.5t30.5 -70.5q0 -40 -30.5 -70t-71.5 -30zM1 0l104 588h449l-27 -152h-249l-11 -65h231l-26 -143
h-231l-13 -76h257l-27 -152h-457z" />
    <glyph glyph-name="edotaccent.sc" horiz-adv-x="530" 
d="M350 664q-44 0 -77 30t-33 73t33 73t77 30q45 0 77.5 -29.5t32.5 -73.5q0 -43 -32.5 -73t-77.5 -30zM527 436h-249l-11 -65h231l-26 -143h-231l-13 -76h257l-27 -152h-457l104 588h449z" />
    <glyph glyph-name="egrave.sc" horiz-adv-x="530" 
d="M407 643h-138l-198 168h231zM527 436h-249l-11 -65h231l-26 -143h-231l-13 -76h257l-27 -152h-457l104 588h449z" />
    <glyph glyph-name="emacron.sc" horiz-adv-x="530" 
d="M558 790l-23 -132h-396l23 132h396zM1 0l104 588h449l-27 -152h-249l-11 -65h231l-26 -143h-231l-13 -76h257l-27 -152h-457z" />
    <glyph glyph-name="eogonek.sc" horiz-adv-x="530" 
d="M527 436h-249l-11 -65h231l-26 -143h-231l-13 -76h257l-27 -152h-110q-79 -57 -79 -105q0 -45 51 -45q28 0 63 12l30 -96q-55 -25 -124 -25q-76 0 -121.5 32t-45.5 86q0 96 113 141h-234l104 588h449z" />
    <glyph glyph-name="uni0259.sc" horiz-adv-x="689" 
d="M389 605q128 0 208 -68.5t80 -191.5q0 -155 -103.5 -260t-268.5 -105q-128 0 -205.5 72t-77.5 200q0 28 6 69l4 25h426q-1 62 -24.5 87t-67.5 25q-76 0 -117 -80l-181 64q107 163 321 163zM314 125q95 0 128 96h-217q-1 -5 -1 -16q0 -36 24 -58t66 -22z" />
    <glyph glyph-name="f.sc" horiz-adv-x="504" 
d="M519 436h-241l-15 -86h221l-25 -143h-221l-37 -207h-200l104 588h441z" />
    <glyph glyph-name="f_f.sc" horiz-adv-x="1012" 
d="M279 436l-15 -86h221l-25 -143h-221l-37 -207h-200l104 588h441l-27 -152h-241zM1026 436h-241l-15 -86h221l-25 -143h-221l-37 -207h-200l104 588h441z" />
    <glyph glyph-name="f_f_i.sc" horiz-adv-x="1312" 
d="M279 436l-15 -86h221l-25 -143h-221l-37 -207h-200l104 588h441l-27 -152h-241zM785 436l-15 -86h221l-25 -143h-221l-37 -207h-200l104 588h441l-27 -152h-241zM1118 588h200l-104 -588h-200z" />
    <glyph glyph-name="f_f_j.sc" horiz-adv-x="1338" 
d="M279 436l-15 -86h221l-25 -143h-221l-37 -207h-200l104 588h441l-27 -152h-241zM966 207h-221l-37 -207h-200l104 588h441l-27 -152h-241l-15 -86h221zM1149 588h200l-66 -376q-20 -114 -81 -170t-178 -56q-47 0 -106 11l30 154q28 -4 55 -4q37 0 55.5 17.5t25.5 55.5z
" />
    <glyph glyph-name="f_f_l.sc" horiz-adv-x="1509" 
d="M279 436l-15 -86h221l-25 -143h-221l-37 -207h-200l104 588h441l-27 -152h-241zM785 436l-15 -86h221l-25 -143h-221l-37 -207h-200l104 588h441l-27 -152h-241zM1244 164h246l-29 -164h-447l104 588h201z" />
    <glyph glyph-name="f_j.sc" horiz-adv-x="832" 
d="M460 207h-221l-37 -207h-200l104 588h441l-27 -152h-241l-15 -86h221zM643 588h200l-66 -376q-20 -114 -81 -170t-178 -56q-47 0 -106 11l30 154q28 -4 55 -4q37 0 55.5 17.5t25.5 55.5z" />
    <glyph glyph-name="fi.sc" horiz-adv-x="806" 
d="M279 436l-15 -86h221l-25 -143h-221l-37 -207h-200l104 588h441l-27 -152h-241zM612 588h200l-104 -588h-200z" />
    <glyph glyph-name="fl.sc" horiz-adv-x="1003" 
d="M279 436l-15 -86h221l-25 -143h-221l-37 -207h-200l104 588h441l-27 -152h-241zM738 164h246l-29 -164h-447l104 588h201z" />
    <glyph glyph-name="g.sc" horiz-adv-x="667" 
d="M380 605q210 0 271 -148l-182 -69q-14 36 -36 50.5t-59 14.5q-68 0 -104.5 -63.5t-36.5 -140.5q0 -60 22.5 -85t66.5 -25q42 0 68.5 19t31.5 50l1 6h-97l23 131h297l-61 -345h-172l9 49q-66 -63 -165 -63q-101 0 -169 63.5t-68 187.5q0 159 98 263.5t262 104.5z" />
    <glyph glyph-name="uni01F5.sc" horiz-adv-x="669" 
d="M667 807l-215 -168h-138l117 168h236zM381 605q210 0 271 -148l-182 -69q-14 36 -36 50.5t-59 14.5q-68 0 -104.5 -63.5t-36.5 -140.5q0 -60 22.5 -85t66.5 -25q42 0 68.5 19t31.5 50l1 6h-97l23 131h297l-61 -345h-172l9 49q-66 -63 -165 -63q-101 0 -169 63.5
t-68 187.5q0 159 98 263.5t262 104.5z" />
    <glyph glyph-name="gbreve.sc" horiz-adv-x="667" 
d="M610 813q-51 -176 -215 -176q-85 0 -132 46.5t-47 129.5h112q0 -51 76 -51q38 0 57 12.5t31 38.5h118zM380 605q210 0 271 -148l-182 -69q-14 36 -36 50.5t-59 14.5q-68 0 -104.5 -63.5t-36.5 -140.5q0 -60 22.5 -85t66.5 -25q42 0 68.5 19t31.5 50l1 6h-97l23 131h297
l-61 -345h-172l9 49q-66 -63 -165 -63q-101 0 -169 63.5t-68 187.5q0 159 98 263.5t262 104.5z" />
    <glyph glyph-name="gcircumflex.sc" horiz-adv-x="667" 
d="M141 658l172 168h206l112 -168h-168l-56 70l-82 -70h-184zM380 605q210 0 271 -148l-182 -69q-14 36 -36 50.5t-59 14.5q-68 0 -104.5 -63.5t-36.5 -140.5q0 -60 22.5 -85t66.5 -25q42 0 68.5 19t31.5 50l1 6h-97l23 131h297l-61 -345h-172l9 49q-66 -63 -165 -63
q-101 0 -169 63.5t-68 187.5q0 159 98 263.5t262 104.5z" />
    <glyph glyph-name="uni0123.sc" horiz-adv-x="667" 
d="M380 605q210 0 271 -148l-182 -69q-14 36 -36 50.5t-59 14.5q-68 0 -104.5 -63.5t-36.5 -140.5q0 -60 22.5 -85t66.5 -25q42 0 68.5 19t31.5 50l1 6h-97l23 131h297l-61 -345h-172l9 49q-66 -63 -165 -63q-101 0 -169 63.5t-68 187.5q0 159 98 263.5t262 104.5zM274 -51
q45 0 69 -26.5t24 -64.5q0 -50 -35.5 -106t-92.5 -105l-67 38q28 31 40.5 52.5t19.5 56.5q-47 28 -47 75q0 33 26 56.5t63 23.5z" />
    <glyph glyph-name="gdotaccent.sc" horiz-adv-x="667" 
d="M403 870q45 0 77.5 -29.5t32.5 -73.5q0 -43 -32.5 -73t-77.5 -30q-44 0 -77 30t-33 73t33 73t77 30zM380 605q210 0 271 -148l-182 -69q-14 36 -36 50.5t-59 14.5q-68 0 -104.5 -63.5t-36.5 -140.5q0 -60 22.5 -85t66.5 -25q42 0 68.5 19t31.5 50l1 6h-97l23 131h297
l-61 -345h-172l9 49q-66 -63 -165 -63q-101 0 -169 63.5t-68 187.5q0 159 98 263.5t262 104.5z" />
    <glyph glyph-name="h.sc" horiz-adv-x="672" 
d="M478 588h201l-104 -588h-201l41 229h-173l-41 -229h-200l104 588h200l-37 -207h173z" />
    <glyph glyph-name="hbar.sc" horiz-adv-x="685" 
d="M722 533l-17 -95h-46l-77 -438h-201l41 229h-174l-41 -229h-200l77 438h-46l17 95h46l10 55h200l-10 -55h174l10 55h201l-10 -55h46zM448 381l10 57h-174l-10 -57h174z" />
    <glyph glyph-name="hcircumflex.sc" horiz-adv-x="672" 
d="M417 728l-82 -70h-184l172 168h206l112 -168h-168zM478 588h201l-104 -588h-201l41 229h-173l-41 -229h-200l104 588h200l-37 -207h173z" />
    <glyph glyph-name="i.sc" horiz-adv-x="298" 
d="M305 588l-104 -588h-200l104 588h200z" />
    <glyph glyph-name="dotlessi.sc" horiz-adv-x="298" 
d="M305 588l-104 -588h-200l104 588h200z" />
    <glyph glyph-name="iacute.sc" horiz-adv-x="298" 
d="M488 807l-215 -168h-138l117 168h236zM305 588l-104 -588h-200l104 588h200z" />
    <glyph glyph-name="ibreve.sc" horiz-adv-x="300" 
d="M433 813q-51 -176 -215 -176q-85 0 -132 46.5t-47 129.5h112q0 -51 76 -51q38 0 57 12.5t31 38.5h118zM306 588l-104 -588h-200l104 588h200z" />
    <glyph glyph-name="uni01D0.sc" horiz-adv-x="298" 
d="M496 813l-172 -168h-206l-112 168h168l56 -70l82 70h184zM305 588l-104 -588h-200l104 588h200z" />
    <glyph glyph-name="icircumflex.sc" horiz-adv-x="298" 
d="M-37 658l172 168h206l112 -168h-168l-56 70l-82 -70h-184zM305 588l-104 -588h-200l104 588h200z" />
    <glyph glyph-name="idieresis.sc" horiz-adv-x="298" 
d="M89 838q41 0 71 -29.5t30 -70.5q0 -40 -30 -70t-71 -30t-71.5 30t-30.5 70q0 41 30.5 70.5t71.5 29.5zM353 838q41 0 71.5 -29.5t30.5 -70.5q0 -40 -30.5 -70t-71.5 -30t-71 30t-30 70q0 41 30 70.5t71 29.5zM305 588l-104 -588h-200l104 588h200z" />
    <glyph glyph-name="i.sc.loclTRK" horiz-adv-x="298" 
d="M225 870q45 0 77.5 -29.5t32.5 -73.5q0 -43 -32.5 -73t-77.5 -30q-44 0 -77 30t-33 73t33 73t77 30zM305 588l-104 -588h-200l104 588h200z" />
    <glyph glyph-name="igrave.sc" horiz-adv-x="298" 
d="M177 811l105 -168h-138l-198 168h231zM305 588l-104 -588h-200l104 588h200z" />
    <glyph glyph-name="ij.sc" horiz-adv-x="674" 
d="M305 588l-104 -588h-200l104 588h200zM686 588l-66 -376q-20 -114 -81 -170t-178 -56q-47 0 -106 11l30 154q28 -4 55 -4q37 0 55.5 17.5t25.5 55.5l65 368h200z" />
    <glyph glyph-name="imacron.sc" horiz-adv-x="298" 
d="M433 790l-23 -132h-396l23 132h396zM305 588l-104 -588h-200l104 588h200z" />
    <glyph glyph-name="iogonek.sc" horiz-adv-x="298" 
d="M201 0q-72 -10 -106.5 -38.5t-34.5 -63.5q0 -55 67 -55q22 0 36 4l29 -93q-39 -13 -88 -13q-86 0 -135 37.5t-49 100.5q0 41 23 78t61 62l101 569h200z" />
    <glyph glyph-name="itilde.sc" horiz-adv-x="298" 
d="M151 806q46 0 89.5 -22t51.5 -22q26 0 43 30h102q-8 -73 -50.5 -114t-99.5 -41q-46 0 -90 22t-52 22q-26 0 -43 -30h-101q12 75 51.5 115t98.5 40zM305 588l-104 -588h-200l104 588h200z" />
    <glyph glyph-name="j.sc" horiz-adv-x="374" 
d="M386 588l-66 -376q-20 -114 -81 -170t-178 -56q-47 0 -106 11l30 154q28 -4 55 -4q37 0 55.5 17.5t25.5 55.5l65 368h200z" />
    <glyph glyph-name="uni0237.sc" horiz-adv-x="376" 
d="M387 588l-66 -376q-20 -114 -81 -170t-178 -56q-47 0 -106 11l30 154q28 -4 55 -4q37 0 55.5 17.5t25.5 55.5l65 368h200z" />
    <glyph glyph-name="jcircumflex.sc" horiz-adv-x="374" 
d="M44 658l172 168h206l112 -168h-168l-56 70l-82 -70h-184zM386 588l-66 -376q-20 -114 -81 -170t-178 -56q-47 0 -106 11l30 154q28 -4 55 -4q37 0 55.5 17.5t25.5 55.5l65 368h200z" />
    <glyph glyph-name="k.sc" horiz-adv-x="650" 
d="M724 588l-272 -240l181 -348h-229l-108 218l-67 -59l-28 -159h-200l104 588h200l-32 -182l199 182h252z" />
    <glyph glyph-name="uni0137.sc" horiz-adv-x="650" 
d="M724 588l-272 -240l181 -348h-229l-108 218l-67 -59l-28 -159h-200l104 588h200l-32 -182l199 182h252zM280 -51q45 0 69 -26.5t24 -64.5q0 -50 -35.5 -106t-92.5 -105l-67 38q28 31 40.5 52.5t19.5 56.5q-47 28 -47 75q0 33 26 56.5t63 23.5z" />
    <glyph glyph-name="kgreenlandic.sc" horiz-adv-x="650" 
d="M724 588l-272 -240l181 -348h-229l-108 218l-67 -59l-28 -159h-200l104 588h200l-32 -182l199 182h252z" />
    <glyph glyph-name="l.sc" horiz-adv-x="495" 
d="M306 588l-75 -424h246l-29 -164h-447l104 588h201z" />
    <glyph glyph-name="lacute.sc" horiz-adv-x="495" 
d="M489 807l-215 -168h-138l117 168h236zM306 588l-75 -424h246l-29 -164h-447l104 588h201z" />
    </font>
</defs>
</svg>
